M48
;Layer_Color=6321
;FILE_FORMAT=2:4
INCH,LZ
;TYPE=PLATED
T1F00S00C0.0150
T2F00S00C0.0300
T3F00S00C0.0350
%
T01
X03575Y02845
X0302Y0301
X0285Y02845
X0274Y02795
X02025Y02965
X01925Y0306
X01825Y0301
X0173Y03025
X01725Y03075
X02715Y03465
X02695Y03795
X028Y03795
X0301Y03545
X0312Y03375
X0308Y03195
X0233Y0399
X0329Y0391
X03575Y03795
Y03545
X03235Y0355
X0322Y03275
X03235Y03145
X0315Y03195
T02
X015748Y027242
Y028242
X016748
Y027242
X017748
Y028242
X018748
Y027242
X019748
Y028242
X020748
Y027242
X021748
Y028242
X022748
Y027242
X023748
Y028242
X024748
Y027242
X024248Y026742
X023248
X022248
X021248
X020248
X019248
X018248
X017248
X016248
Y027742
X017248
X018248
X019248
X020248
X021248
X022248
X023248
X024248
X025248
X025748Y028242
Y029242
X024748
Y030242
X025748
Y031242
X024748
X025248Y030742
Y029742
Y028742
X024248
Y029742
Y030742
X014748Y031242
X013748
Y030242
X014748
Y029242
X013748
Y028242
X014748
Y027242
X014248Y026742
Y027742
Y028742
Y029742
Y030742
X013248
Y029742
Y028742
Y027742
X015248
Y026742
X014748Y032242
Y033242
Y034242
Y035242
Y036242
Y037242
Y038242
Y039242
X015248Y038742
Y037742
X014248
X013748Y038242
Y037242
Y036242
Y035242
Y034242
Y033242
Y032242
X013248Y032742
Y033742
Y034742
Y035742
Y036742
Y037742
X014248Y038742
Y036742
Y035742
Y034742
Y033742
Y032742
Y031742
X013248
X015748Y038242
X016748
X017748
X018748
X019748
X020748
X021748
X022748
X023748
X024748
Y037242
Y036242
Y035242
Y034242
Y033242
X025748
Y034242
Y035242
Y036242
Y037242
Y038242
X025248Y037742
Y036742
Y035742
Y034742
Y033742
Y032742
X025748Y032242
X024748
X024248Y032742
Y033742
Y034742
Y035742
Y036742
Y037742
Y038742
X024748Y039242
X023748
X022748
X021748
X020748
X019748
X018748
X017748
X016748
X015748
X016248Y038742
X017248
X018248
X019248
X020248
X021248
X022248
X023248
Y037742
X022248
X021248
X020248
X019248
X018248
X017248
X016248
X024248Y031742
X025248
T03
X01195Y03425
Y03525
M30
