G04 Layer_Color=15132400*
%FSLAX24Y24*%
%MOIN*%
G70*
G01*
G75*
%ADD13C,0.0100*%
%ADD23C,0.0060*%
D13*
X31100Y38200D02*
G03*
X31350Y38200I125J0D01*
G01*
X30975D02*
X31100D01*
X31350D02*
X31375D01*
X29800D02*
X31075D01*
X31375D02*
X32650D01*
Y28107D02*
Y38200D01*
X29800Y28107D02*
X32650D01*
X29800D02*
Y38200D01*
X25848Y40342D02*
X26198D01*
X22748Y32842D02*
X23748Y33242D01*
X22748Y32842D02*
Y33642D01*
X23748Y33242D01*
X26848Y26142D02*
Y38342D01*
X12648Y26142D02*
X26848D01*
X12648D02*
Y40342D01*
X24648D01*
X26848Y38342D02*
Y39692D01*
X26198Y40342D02*
X26848Y39692D01*
X24648Y40342D02*
X25848D01*
X31520Y30100D02*
Y29700D01*
X31120Y30100D01*
X31020D01*
X30920Y30000D01*
Y29800D01*
X31020Y29700D01*
X30920Y30700D02*
Y30300D01*
X31220D01*
X31120Y30500D01*
Y30600D01*
X31220Y30700D01*
X31420D01*
X31520Y30600D01*
Y30400D01*
X31420Y30300D01*
X30920Y31299D02*
X31020Y31100D01*
X31220Y30900D01*
X31420D01*
X31520Y31000D01*
Y31200D01*
X31420Y31299D01*
X31320D01*
X31220Y31200D01*
Y30900D01*
X30920Y31499D02*
X31520D01*
X31320D01*
X30920Y31899D01*
X31220Y31599D01*
X31520Y31899D01*
X31120Y32099D02*
X31520Y32499D01*
X31320Y32299D01*
X31120Y32499D01*
X31520Y32099D01*
Y32699D02*
Y32899D01*
Y32799D01*
X30920D01*
X31020Y32699D01*
X30920Y33599D02*
X31020Y33399D01*
X31220Y33199D01*
X31420D01*
X31520Y33299D01*
Y33499D01*
X31420Y33599D01*
X31320D01*
X31220Y33499D01*
Y33199D01*
X30920Y34398D02*
X31520D01*
Y34698D01*
X31420Y34798D01*
X31020D01*
X30920Y34698D01*
Y34398D01*
X31520Y34998D02*
X30920D01*
Y35298D01*
X31020Y35398D01*
X31220D01*
X31320Y35298D01*
Y34998D01*
Y35198D02*
X31520Y35398D01*
Y35598D02*
X31120D01*
X30920Y35798D01*
X31120Y35998D01*
X31520D01*
X31220D01*
Y35598D01*
X31520Y36198D02*
X30920D01*
X31120Y36398D01*
X30920Y36598D01*
X31520D01*
X28600Y39050D02*
Y38550D01*
X28700Y38450D01*
X28900D01*
X29000Y38550D01*
Y39050D01*
X29600Y38450D02*
X29200D01*
X29600Y38850D01*
Y38950D01*
X29500Y39050D01*
X29300D01*
X29200Y38950D01*
X11750Y39500D02*
X12250D01*
X12350Y39600D01*
Y39800D01*
X12250Y39900D01*
X11750D01*
X12350Y40100D02*
Y40300D01*
Y40200D01*
X11750D01*
X11850Y40100D01*
X27555Y29655D02*
X27455Y29755D01*
X27255D01*
X27155Y29655D01*
Y29255D01*
X27255Y29155D01*
X27455D01*
X27555Y29255D01*
X27755Y29655D02*
X27855Y29755D01*
X28055D01*
X28155Y29655D01*
Y29555D01*
X28055Y29455D01*
X27955D01*
X28055D01*
X28155Y29355D01*
Y29255D01*
X28055Y29155D01*
X27855D01*
X27755Y29255D01*
X27550Y36450D02*
X27450Y36550D01*
X27250D01*
X27150Y36450D01*
Y36050D01*
X27250Y35950D01*
X27450D01*
X27550Y36050D01*
X28150Y35950D02*
X27750D01*
X28150Y36350D01*
Y36450D01*
X28050Y36550D01*
X27850D01*
X27750Y36450D01*
X27505Y39155D02*
X27405Y39255D01*
X27205D01*
X27105Y39155D01*
Y38755D01*
X27205Y38655D01*
X27405D01*
X27505Y38755D01*
X27705Y38655D02*
X27905D01*
X27805D01*
Y39255D01*
X27705Y39155D01*
X28920Y27210D02*
Y26610D01*
X29220D01*
X29320Y26710D01*
Y27110D01*
X29220Y27210D01*
X28920D01*
X29520Y26610D02*
X29720D01*
X29620D01*
Y27010D01*
X29520D01*
X30320Y26610D02*
X30120D01*
X30020Y26710D01*
Y26910D01*
X30120Y27010D01*
X30320D01*
X30420Y26910D01*
Y26810D01*
X30020D01*
X30719Y27110D02*
Y27010D01*
X30619D01*
X30819D01*
X30719D01*
Y26710D01*
X30819Y26610D01*
X31719D02*
Y27010D01*
X31919Y27210D01*
X32119Y27010D01*
Y26610D01*
Y26910D01*
X31719D01*
X32519Y26410D02*
X32619D01*
X32719Y26510D01*
Y27010D01*
X32419D01*
X32319Y26910D01*
Y26710D01*
X32419Y26610D01*
X32719D01*
X32919D02*
Y27010D01*
X33219D01*
X33319Y26910D01*
Y26610D01*
X33519Y27010D02*
Y26710D01*
X33618Y26610D01*
X33918D01*
Y27010D01*
X34118Y26610D02*
X34418D01*
X34518Y26710D01*
X34418Y26810D01*
X34218D01*
X34118Y26910D01*
X34218Y27010D01*
X34518D01*
X16400Y35200D02*
Y35600D01*
X16600Y35800D01*
X16800Y35600D01*
Y35200D01*
Y35500D01*
X16400D01*
X17200Y35000D02*
X17300D01*
X17400Y35100D01*
Y35600D01*
X17100D01*
X17000Y35500D01*
Y35300D01*
X17100Y35200D01*
X17400D01*
X17600D02*
Y35600D01*
X17900D01*
X17999Y35500D01*
Y35200D01*
X18199Y35600D02*
Y35300D01*
X18299Y35200D01*
X18599D01*
Y35600D01*
X18799Y35200D02*
X19099D01*
X19199Y35300D01*
X19099Y35400D01*
X18899D01*
X18799Y35500D01*
X18899Y35600D01*
X19199D01*
X19999Y35700D02*
X20099Y35800D01*
X20299D01*
X20399Y35700D01*
Y35600D01*
X20299Y35500D01*
X20399Y35400D01*
Y35300D01*
X20299Y35200D01*
X20099D01*
X19999Y35300D01*
Y35400D01*
X20099Y35500D01*
X19999Y35600D01*
Y35700D01*
X20099Y35500D02*
X20299D01*
X20599Y35700D02*
X20699Y35800D01*
X20899D01*
X20999Y35700D01*
Y35600D01*
X20899Y35500D01*
X20799D01*
X20899D01*
X20999Y35400D01*
Y35300D01*
X20899Y35200D01*
X20699D01*
X20599Y35300D01*
X21198Y35800D02*
X21598D01*
Y35700D01*
X21198Y35300D01*
Y35200D01*
X22198D02*
X21798D01*
X22198Y35600D01*
Y35700D01*
X22098Y35800D01*
X21898D01*
X21798Y35700D01*
X22398Y35200D02*
Y35600D01*
X22598Y35800D01*
X22798Y35600D01*
Y35200D01*
Y35500D01*
X22398D01*
D23*
X12520Y35320D02*
Y35820D01*
X11380D02*
X12520D01*
X11380Y35320D02*
Y35820D01*
Y33680D02*
Y34180D01*
Y33680D02*
X12520D01*
Y34180D01*
X11800Y37100D02*
X12100D01*
X11800Y36900D01*
X12100D01*
Y36800D02*
Y36600D01*
Y36700D01*
X11800D01*
X12050Y36300D02*
X12100Y36350D01*
Y36450D01*
X12050Y36500D01*
X12000D01*
X11950Y36450D01*
Y36350D01*
X11900Y36300D01*
X11850D01*
X11800Y36350D01*
Y36450D01*
X11850Y36500D01*
X12050Y36000D02*
X12100Y36050D01*
Y36150D01*
X12050Y36200D01*
X11850D01*
X11800Y36150D01*
Y36050D01*
X11850Y36000D01*
X28920Y25960D02*
Y26160D01*
X29020Y26260D01*
X29120Y26160D01*
Y25960D01*
Y26110D01*
X28920D01*
X29420Y26260D02*
X29220D01*
Y26110D01*
X29320Y26160D01*
X29370D01*
X29420Y26110D01*
Y26010D01*
X29370Y25960D01*
X29270D01*
X29220Y26010D01*
X29520Y26210D02*
X29570Y26260D01*
X29670D01*
X29720Y26210D01*
Y26010D01*
X29670Y25960D01*
X29570D01*
X29520Y26010D01*
Y26210D01*
X29820D02*
X29870Y26260D01*
X29970D01*
X30020Y26210D01*
Y26010D01*
X29970Y25960D01*
X29870D01*
X29820Y26010D01*
Y26210D01*
X30120Y26110D02*
X30320D01*
X30220Y26210D02*
Y26010D01*
X30719Y26210D02*
X30769Y26260D01*
X30869D01*
X30919Y26210D01*
Y26160D01*
X30869Y26110D01*
X30919Y26060D01*
Y26010D01*
X30869Y25960D01*
X30769D01*
X30719Y26010D01*
Y26060D01*
X30769Y26110D01*
X30719Y26160D01*
Y26210D01*
X30769Y26110D02*
X30869D01*
X31019Y26210D02*
X31069Y26260D01*
X31169D01*
X31219Y26210D01*
Y26160D01*
X31169Y26110D01*
X31119D01*
X31169D01*
X31219Y26060D01*
Y26010D01*
X31169Y25960D01*
X31069D01*
X31019Y26010D01*
X31319Y26260D02*
X31519D01*
Y26210D01*
X31319Y26010D01*
Y25960D01*
X31819D02*
X31619D01*
X31819Y26160D01*
Y26210D01*
X31769Y26260D01*
X31669D01*
X31619Y26210D01*
X31919Y25960D02*
Y26160D01*
X32019Y26260D01*
X32119Y26160D01*
Y25960D01*
Y26110D01*
X31919D01*
X32519Y25960D02*
Y26160D01*
X32619Y26260D01*
X32719Y26160D01*
Y25960D01*
Y26110D01*
X32519D01*
X33019Y26260D02*
Y25960D01*
X32869D01*
X32819Y26010D01*
Y26110D01*
X32869Y26160D01*
X33019D01*
X33169D02*
X33269D01*
X33319Y26110D01*
Y25960D01*
X33169D01*
X33119Y26010D01*
X33169Y26060D01*
X33319D01*
X33419Y25860D02*
Y26160D01*
X33568D01*
X33618Y26110D01*
Y26010D01*
X33568Y25960D01*
X33419D01*
X33768Y26210D02*
Y26160D01*
X33718D01*
X33818D01*
X33768D01*
Y26010D01*
X33818Y25960D01*
X34118D02*
X34018D01*
X33968Y26010D01*
Y26110D01*
X34018Y26160D01*
X34118D01*
X34168Y26110D01*
Y26060D01*
X33968D01*
X34268Y26160D02*
Y25960D01*
Y26060D01*
X34318Y26110D01*
X34368Y26160D01*
X34418D01*
X29770Y25710D02*
X29720Y25760D01*
X29620D01*
X29570Y25710D01*
Y25510D01*
X29620Y25460D01*
X29720D01*
X29770Y25510D01*
Y25610D01*
X29670D01*
X29870Y25460D02*
X29970D01*
X29920D01*
Y25660D01*
X29870D01*
X30170Y25710D02*
Y25660D01*
X30120D01*
X30220D01*
X30170D01*
Y25510D01*
X30220Y25460D01*
X30370Y25760D02*
Y25460D01*
Y25610D01*
X30420Y25660D01*
X30520D01*
X30570Y25610D01*
Y25460D01*
X30670Y25660D02*
Y25510D01*
X30720Y25460D01*
X30870D01*
Y25660D01*
X30970Y25760D02*
Y25460D01*
X31119D01*
X31169Y25510D01*
Y25560D01*
Y25610D01*
X31119Y25660D01*
X30970D01*
X31269Y25460D02*
Y25510D01*
X31319D01*
Y25460D01*
X31269D01*
X31719Y25660D02*
X31569D01*
X31519Y25610D01*
Y25510D01*
X31569Y25460D01*
X31719D01*
X31869D02*
X31969D01*
X32019Y25510D01*
Y25610D01*
X31969Y25660D01*
X31869D01*
X31819Y25610D01*
Y25510D01*
X31869Y25460D01*
X32119D02*
Y25660D01*
X32169D01*
X32219Y25610D01*
Y25460D01*
Y25610D01*
X32269Y25660D01*
X32319Y25610D01*
Y25460D01*
X32419D02*
X32619Y25660D01*
X32719Y25760D02*
Y25460D01*
X32919D01*
X33019Y25760D02*
X33119D01*
X33069D01*
Y25460D01*
X33019D01*
X33119D01*
X33269Y25760D02*
Y25560D01*
X33369Y25460D01*
X33469Y25560D01*
Y25760D01*
X33769Y25460D02*
X33569D01*
X33769Y25660D01*
Y25710D01*
X33719Y25760D01*
X33619D01*
X33569Y25710D01*
M02*
