G04 Layer_Color=13813960*
%FSLAX24Y24*%
%MOIN*%
G70*
G01*
G75*
%ADD13C,0.0100*%
%ADD23C,0.0060*%
%ADD32C,0.0050*%
D13*
X31100Y38200D02*
G03*
X31350Y38200I125J0D01*
G01*
X31475D01*
X31075D02*
X31100D01*
X31375D02*
X32650D01*
X29800D02*
X31075D01*
X29800Y28107D02*
Y38200D01*
Y28107D02*
X32650D01*
Y38200D01*
X15700Y33950D02*
X15800Y34050D01*
X16000D01*
X16100Y33950D01*
Y33550D01*
X16000Y33450D01*
X15800D01*
X15700Y33550D01*
X15500Y34050D02*
X15100D01*
Y33950D01*
X15500Y33550D01*
Y33450D01*
X31520Y36200D02*
Y36600D01*
X31120Y36200D01*
X31020D01*
X30920Y36300D01*
Y36500D01*
X31020Y36600D01*
X30920Y35600D02*
Y36000D01*
X31220D01*
X31120Y35800D01*
Y35700D01*
X31220Y35600D01*
X31420D01*
X31520Y35700D01*
Y35900D01*
X31420Y36000D01*
X30920Y35001D02*
X31020Y35200D01*
X31220Y35400D01*
X31420D01*
X31520Y35300D01*
Y35100D01*
X31420Y35001D01*
X31320D01*
X31220Y35100D01*
Y35400D01*
X30920Y34801D02*
X31520D01*
X31320D01*
X30920Y34401D01*
X31220Y34701D01*
X31520Y34401D01*
X31120Y34201D02*
X31520Y33801D01*
X31320Y34001D01*
X31120Y33801D01*
X31520Y34201D01*
Y33601D02*
Y33401D01*
Y33501D01*
X30920D01*
X31020Y33601D01*
X30920Y32701D02*
X31020Y32901D01*
X31220Y33101D01*
X31420D01*
X31520Y33001D01*
Y32801D01*
X31420Y32701D01*
X31320D01*
X31220Y32801D01*
Y33101D01*
X30920Y31902D02*
X31520D01*
Y31602D01*
X31420Y31502D01*
X31020D01*
X30920Y31602D01*
Y31902D01*
X31520Y31302D02*
X30920D01*
Y31002D01*
X31020Y30902D01*
X31220D01*
X31320Y31002D01*
Y31302D01*
Y31102D02*
X31520Y30902D01*
Y30702D02*
X31120D01*
X30920Y30502D01*
X31120Y30302D01*
X31520D01*
X31220D01*
Y30702D01*
X31520Y30102D02*
X30920D01*
X31120Y29902D01*
X30920Y29702D01*
X31520D01*
X33660Y39150D02*
Y38650D01*
X33560Y38550D01*
X33360D01*
X33260Y38650D01*
Y39150D01*
X33060Y39050D02*
X32960Y39150D01*
X32760D01*
X32660Y39050D01*
Y38950D01*
X32760Y38850D01*
X32860D01*
X32760D01*
X32660Y38750D01*
Y38650D01*
X32760Y38550D01*
X32960D01*
X33060Y38650D01*
X35100Y39150D02*
X35200Y39250D01*
X35400D01*
X35500Y39150D01*
Y38750D01*
X35400Y38650D01*
X35200D01*
X35100Y38750D01*
X34500Y39250D02*
X34700Y39150D01*
X34900Y38950D01*
Y38750D01*
X34800Y38650D01*
X34600D01*
X34500Y38750D01*
Y38850D01*
X34600Y38950D01*
X34900D01*
X35100Y36650D02*
X35200Y36750D01*
X35400D01*
X35500Y36650D01*
Y36250D01*
X35400Y36150D01*
X35200D01*
X35100Y36250D01*
X34500Y36750D02*
X34900D01*
Y36450D01*
X34700Y36550D01*
X34600D01*
X34500Y36450D01*
Y36250D01*
X34600Y36150D01*
X34800D01*
X34900Y36250D01*
X35100Y29650D02*
X35200Y29750D01*
X35400D01*
X35500Y29650D01*
Y29250D01*
X35400Y29150D01*
X35200D01*
X35100Y29250D01*
X34600Y29150D02*
Y29750D01*
X34900Y29450D01*
X34500D01*
X35550Y26450D02*
Y27050D01*
X35250D01*
X35150Y26950D01*
Y26750D01*
X35250Y26650D01*
X35550D01*
X35350D02*
X35150Y26450D01*
X34550Y27050D02*
X34950D01*
Y26450D01*
X34550D01*
X34950Y26750D02*
X34750D01*
X34350Y27050D02*
Y26650D01*
X34150Y26450D01*
X33951Y26650D01*
Y27050D01*
X33151Y26450D02*
Y26850D01*
X32951Y27050D01*
X32751Y26850D01*
Y26450D01*
Y26750D01*
X33151D01*
X35550Y25550D02*
Y26150D01*
X35350Y25950D01*
X35150Y26150D01*
Y25550D01*
X34850Y25950D02*
X34650D01*
X34550Y25850D01*
Y25550D01*
X34850D01*
X34950Y25650D01*
X34850Y25750D01*
X34550D01*
X34350Y25950D02*
Y25650D01*
X34250Y25550D01*
X33951D01*
Y25450D01*
X34050Y25350D01*
X34150D01*
X33951Y25550D02*
Y25950D01*
X32751Y25550D02*
X33151D01*
X32751Y25950D01*
Y26050D01*
X32851Y26150D01*
X33051D01*
X33151Y26050D01*
X32551D02*
X32451Y26150D01*
X32251D01*
X32151Y26050D01*
Y25650D01*
X32251Y25550D01*
X32451D01*
X32551Y25650D01*
Y26050D01*
X31551Y25550D02*
X31951D01*
X31551Y25950D01*
Y26050D01*
X31651Y26150D01*
X31851D01*
X31951Y26050D01*
X31351D02*
X31251Y26150D01*
X31051D01*
X30951Y26050D01*
Y25650D01*
X31051Y25550D01*
X31251D01*
X31351Y25650D01*
Y26050D01*
D23*
X15950Y29190D02*
X15750D01*
X15650Y29290D01*
X15750Y29390D01*
X15950D01*
Y29490D02*
X15650D01*
Y29640D01*
X15700Y29690D01*
X15750D01*
X15800Y29640D01*
Y29490D01*
Y29640D01*
X15850Y29690D01*
X15900D01*
X15950Y29640D01*
Y29490D01*
Y29790D02*
X15650D01*
Y29940D01*
X15700Y29990D01*
X15750D01*
X15800Y29940D01*
Y29790D01*
Y29940D01*
X15850Y29990D01*
X15900D01*
X15950Y29940D01*
Y29790D01*
Y30540D02*
Y30440D01*
X15900Y30390D01*
X15700D01*
X15650Y30440D01*
Y30540D01*
X15700Y30590D01*
X15900D01*
X15950Y30540D01*
X15650Y30690D02*
X15950D01*
X15650Y30889D01*
X15950D01*
Y30989D02*
X15650D01*
Y31189D01*
X15950Y31289D02*
X15900D01*
X15800Y31389D01*
X15900Y31489D01*
X15950D01*
X15800Y31389D02*
X15650D01*
X19020Y30590D02*
X19320D01*
Y30740D01*
X19270Y30790D01*
X19170D01*
X19120Y30740D01*
Y30590D01*
Y30690D02*
X19020Y30790D01*
Y30890D02*
X19220D01*
X19320Y30990D01*
X19220Y31090D01*
X19020D01*
X19170D01*
Y30890D01*
X19270Y31390D02*
X19320Y31340D01*
Y31240D01*
X19270Y31190D01*
X19220D01*
X19170Y31240D01*
Y31340D01*
X19120Y31390D01*
X19070D01*
X19020Y31340D01*
Y31240D01*
X19070Y31190D01*
X19270Y31490D02*
X19320Y31540D01*
Y31640D01*
X19270Y31690D01*
X19070D01*
X19020Y31640D01*
Y31540D01*
X19070Y31490D01*
X19270D01*
X20170Y30590D02*
X20470D01*
Y30740D01*
X20420Y30790D01*
X20320D01*
X20270Y30740D01*
Y30590D01*
Y30690D02*
X20170Y30790D01*
Y30890D02*
X20370D01*
X20470Y30990D01*
X20370Y31090D01*
X20170D01*
X20320D01*
Y30890D01*
X20420Y31390D02*
X20470Y31340D01*
Y31240D01*
X20420Y31190D01*
X20370D01*
X20320Y31240D01*
Y31340D01*
X20270Y31390D01*
X20220D01*
X20170Y31340D01*
Y31240D01*
X20220Y31190D01*
X20170Y31490D02*
Y31590D01*
Y31540D01*
X20470D01*
X20420Y31490D01*
X17270Y30790D02*
X17320Y30740D01*
Y30640D01*
X17270Y30590D01*
X17070D01*
X17020Y30640D01*
Y30740D01*
X17070Y30790D01*
X17020Y30890D02*
X17220D01*
X17320Y30990D01*
X17220Y31090D01*
X17020D01*
X17170D01*
Y30890D01*
X17270Y31390D02*
X17320Y31340D01*
Y31240D01*
X17270Y31190D01*
X17220D01*
X17170Y31240D01*
Y31340D01*
X17120Y31390D01*
X17070D01*
X17020Y31340D01*
Y31240D01*
X17070Y31190D01*
X17320Y31490D02*
X17070D01*
X17020Y31540D01*
Y31640D01*
X17070Y31690D01*
X17320D01*
X18320Y30790D02*
X18370Y30740D01*
Y30640D01*
X18320Y30590D01*
X18120D01*
X18070Y30640D01*
Y30740D01*
X18120Y30790D01*
X18070Y30890D02*
X18270D01*
X18370Y30990D01*
X18270Y31090D01*
X18070D01*
X18220D01*
Y30890D01*
X18320Y31390D02*
X18370Y31340D01*
Y31240D01*
X18320Y31190D01*
X18270D01*
X18220Y31240D01*
Y31340D01*
X18170Y31390D01*
X18120D01*
X18070Y31340D01*
Y31240D01*
X18120Y31190D01*
X18370Y31490D02*
X18070D01*
Y31690D01*
X22550Y32150D02*
X22750D01*
Y31850D01*
X22550D01*
X22750Y32000D02*
X22650D01*
X22450Y31850D02*
Y32050D01*
X22300D01*
X22250Y32000D01*
Y31850D01*
X22100Y32050D02*
X22000D01*
X21950Y32000D01*
Y31850D01*
X22100D01*
X22150Y31900D01*
X22100Y31950D01*
X21950D01*
X21850Y32150D02*
Y31850D01*
X21700D01*
X21650Y31900D01*
Y31950D01*
Y32000D01*
X21700Y32050D01*
X21850D01*
X21550Y31850D02*
X21450D01*
X21500D01*
Y32150D01*
X21550D01*
X21151Y31850D02*
X21250D01*
X21300Y31900D01*
Y32000D01*
X21250Y32050D01*
X21151D01*
X21101Y32000D01*
Y31950D01*
X21300D01*
X20801Y32150D02*
Y31850D01*
X20951D01*
X21001Y31900D01*
Y32000D01*
X20951Y32050D01*
X20801D01*
X22850Y32850D02*
Y32550D01*
X22700D01*
X22650Y32600D01*
Y32800D01*
X22700Y32850D01*
X22850D01*
X22550Y32550D02*
X22450D01*
X22500D01*
Y32750D01*
X22550D01*
X22300Y32550D02*
X22150D01*
X22100Y32600D01*
X22150Y32650D01*
X22250D01*
X22300Y32700D01*
X22250Y32750D01*
X22100D01*
X21950D02*
X21850D01*
X21800Y32700D01*
Y32550D01*
X21950D01*
X22000Y32600D01*
X21950Y32650D01*
X21800D01*
X21700Y32850D02*
Y32550D01*
X21550D01*
X21500Y32600D01*
Y32650D01*
Y32700D01*
X21550Y32750D01*
X21700D01*
X21400Y32550D02*
X21300D01*
X21350D01*
Y32850D01*
X21400D01*
X21001Y32550D02*
X21101D01*
X21151Y32600D01*
Y32700D01*
X21101Y32750D01*
X21001D01*
X20951Y32700D01*
Y32650D01*
X21151D01*
X20651Y32850D02*
Y32550D01*
X20801D01*
X20851Y32600D01*
Y32700D01*
X20801Y32750D01*
X20651D01*
X20000Y32950D02*
Y33150D01*
X19900Y33250D01*
X19800Y33150D01*
Y32950D01*
Y33100D01*
X20000D01*
X19700Y32950D02*
Y33150D01*
X19650D01*
X19600Y33100D01*
Y32950D01*
Y33100D01*
X19550Y33150D01*
X19500Y33100D01*
Y32950D01*
X19400D02*
X19300D01*
X19350D01*
Y33150D01*
X19400D01*
X19050Y32850D02*
X19000D01*
X18950Y32900D01*
Y33150D01*
X19100D01*
X19150Y33100D01*
Y33000D01*
X19100Y32950D01*
X18950D01*
X18800Y33150D02*
X18700D01*
X18650Y33100D01*
Y32950D01*
X18800D01*
X18850Y33000D01*
X18800Y33050D01*
X18650D01*
X18251Y32950D02*
Y33250D01*
X18101D01*
X18051Y33200D01*
Y33100D01*
X18101Y33050D01*
X18251D01*
X18151D02*
X18051Y32950D01*
X17951D02*
Y33150D01*
X17851Y33250D01*
X17751Y33150D01*
Y32950D01*
Y33100D01*
X17951D01*
X17651Y32950D02*
Y33250D01*
X17551Y33150D01*
X17451Y33250D01*
Y32950D01*
D32*
X20650Y32300D02*
X22900D01*
M02*
