G04 Layer_Physical_Order=1*
G04 Layer_Color=25308*
%FSLAX24Y24*%
%MOIN*%
G70*
G01*
G75*
%ADD10R,0.0532X0.0571*%
%ADD11R,0.0945X0.0236*%
%ADD12O,0.0945X0.0236*%
%ADD13C,0.0100*%
%ADD14C,0.0090*%
%ADD15C,0.0200*%
%ADD16R,0.0590X0.0590*%
%ADD17C,0.0590*%
%ADD18C,0.0450*%
%ADD19C,0.0300*%
G36*
X28005Y31538D02*
X27992Y31529D01*
X27992Y31529D01*
X27152Y30690D01*
X25579D01*
X25534Y30730D01*
X25535Y30742D01*
X25525Y30817D01*
X25497Y30886D01*
X25451Y30946D01*
X25391Y30991D01*
X25322Y31020D01*
X25248Y31030D01*
X25173Y31020D01*
X25104Y30991D01*
X25044Y30946D01*
X24999Y30886D01*
X24970Y30817D01*
X24960Y30742D01*
X24962Y30732D01*
X24917Y30689D01*
X24916Y30690D01*
X24916Y30690D01*
X24606D01*
X24604Y30692D01*
X24248D01*
Y30742D01*
X24198D01*
Y31064D01*
X24163Y31059D01*
X24084Y31026D01*
X24016Y30974D01*
X23964Y30906D01*
X23931Y30827D01*
X23920Y30742D01*
X23873Y30712D01*
X19428D01*
X19401Y30751D01*
X19332Y30798D01*
X19250Y30814D01*
X19168Y30798D01*
X19099Y30751D01*
X19072Y30712D01*
X18105D01*
X18105Y30712D01*
X18062Y30704D01*
X18026Y30679D01*
X18026Y30679D01*
X17557Y30211D01*
X17511Y30235D01*
X17514Y30250D01*
X17498Y30332D01*
X17451Y30401D01*
X17382Y30448D01*
X17300Y30464D01*
X17218Y30448D01*
X17149Y30401D01*
X17102Y30332D01*
X17086Y30250D01*
X17094Y30207D01*
X15079Y28192D01*
X15032Y28215D01*
X15035Y28242D01*
X15025Y28317D01*
X15012Y28348D01*
X17208Y30544D01*
X17250Y30536D01*
X17332Y30552D01*
X17401Y30599D01*
X17448Y30668D01*
X17464Y30750D01*
X17456Y30792D01*
X18252Y31588D01*
X23770D01*
X24030Y31328D01*
X24030Y31328D01*
X24066Y31304D01*
X24109Y31295D01*
X24109Y31295D01*
X24376D01*
X24379Y31292D01*
X25115D01*
X25119Y31295D01*
X25386D01*
X25386Y31295D01*
X25418Y31301D01*
X25451Y31280D01*
X25463Y31266D01*
X25460Y31242D01*
X25470Y31168D01*
X25499Y31099D01*
X25544Y31039D01*
X25604Y30993D01*
X25673Y30965D01*
X25748Y30955D01*
X25822Y30965D01*
X25891Y30993D01*
X25951Y31039D01*
X25997Y31099D01*
X26025Y31168D01*
X26035Y31242D01*
X26025Y31317D01*
X25997Y31386D01*
X25951Y31446D01*
X25891Y31491D01*
X25822Y31520D01*
X25783Y31525D01*
X25758Y31579D01*
X25763Y31588D01*
X27989D01*
X28005Y31538D01*
D02*
G37*
G36*
X36150Y24900D02*
X26023D01*
X26016Y24909D01*
X26018Y24971D01*
X27915Y26868D01*
X29807D01*
X29807Y26868D01*
X29850Y26876D01*
X29886Y26901D01*
X30699Y27714D01*
X30699Y27714D01*
X30724Y27750D01*
X30732Y27793D01*
Y28024D01*
X31546Y28838D01*
X32756D01*
X32767Y28822D01*
X32826Y28782D01*
X32896Y28768D01*
X33604D01*
X33674Y28782D01*
X33733Y28822D01*
X33772Y28881D01*
X33786Y28950D01*
X33772Y29019D01*
X33733Y29078D01*
X33674Y29118D01*
X33604Y29132D01*
X32896D01*
X32826Y29118D01*
X32767Y29078D01*
X32756Y29062D01*
X31500D01*
X31500Y29062D01*
X31457Y29054D01*
X31421Y29029D01*
X30618Y28227D01*
X30572Y28246D01*
Y28371D01*
X31544Y29343D01*
X32753D01*
X32767Y29322D01*
X32826Y29282D01*
X32896Y29268D01*
X33604D01*
X33674Y29282D01*
X33733Y29322D01*
X33772Y29381D01*
X33786Y29450D01*
X33772Y29520D01*
X33733Y29578D01*
X33674Y29618D01*
X33604Y29632D01*
X32896D01*
X32826Y29618D01*
X32767Y29578D01*
X32753Y29557D01*
X31500D01*
X31459Y29549D01*
X31424Y29526D01*
X30468Y28570D01*
X30422Y28589D01*
Y28714D01*
X31546Y29838D01*
X32756D01*
X32767Y29822D01*
X32826Y29782D01*
X32896Y29768D01*
X33604D01*
X33674Y29782D01*
X33733Y29822D01*
X33772Y29880D01*
X33786Y29950D01*
X33772Y30020D01*
X33733Y30078D01*
X33674Y30118D01*
X33604Y30132D01*
X32896D01*
X32826Y30118D01*
X32767Y30078D01*
X32756Y30062D01*
X31500D01*
X31500Y30062D01*
X31457Y30054D01*
X31421Y30029D01*
X31421Y30029D01*
X30308Y28917D01*
X30262Y28936D01*
Y29061D01*
X31544Y30343D01*
X32753D01*
X32767Y30322D01*
X32826Y30282D01*
X32896Y30268D01*
X33604D01*
X33674Y30282D01*
X33733Y30322D01*
X33772Y30380D01*
X33786Y30450D01*
X33772Y30519D01*
X33733Y30578D01*
X33674Y30618D01*
X33604Y30632D01*
X32896D01*
X32826Y30618D01*
X32767Y30578D01*
X32753Y30557D01*
X31581D01*
X31562Y30603D01*
X31796Y30838D01*
X32756D01*
X32767Y30822D01*
X32826Y30782D01*
X32896Y30768D01*
X33604D01*
X33674Y30782D01*
X33733Y30822D01*
X33772Y30880D01*
X33786Y30950D01*
X33772Y31019D01*
X33733Y31078D01*
X33674Y31118D01*
X33604Y31132D01*
X32896D01*
X32826Y31118D01*
X32767Y31078D01*
X32756Y31062D01*
X31791D01*
X31771Y31112D01*
X31996Y31338D01*
X32172D01*
X32199Y31299D01*
X32268Y31252D01*
X32350Y31236D01*
X32432Y31252D01*
X32501Y31299D01*
X32548Y31368D01*
X32564Y31450D01*
X32548Y31532D01*
X32501Y31601D01*
X32432Y31648D01*
X32350Y31664D01*
X32268Y31648D01*
X32199Y31601D01*
X32172Y31562D01*
X31950D01*
X31907Y31554D01*
X31871Y31529D01*
X31871Y31529D01*
X31132Y30790D01*
X29719D01*
X29695Y30840D01*
X29722Y30880D01*
X29736Y30950D01*
X29723Y31016D01*
X29723Y31027D01*
X29744Y31066D01*
X30928D01*
X30928Y31066D01*
X30971Y31074D01*
X31007Y31099D01*
X31579Y31671D01*
X31579Y31671D01*
X31604Y31707D01*
X31612Y31750D01*
X31612Y31750D01*
Y31772D01*
X31651Y31799D01*
X31678Y31838D01*
X32756D01*
X32767Y31822D01*
X32826Y31782D01*
X32896Y31768D01*
X33604D01*
X33674Y31782D01*
X33733Y31822D01*
X33772Y31881D01*
X33786Y31950D01*
X33772Y32020D01*
X33733Y32078D01*
X33674Y32118D01*
X33604Y32132D01*
X32896D01*
X32826Y32118D01*
X32767Y32078D01*
X32756Y32062D01*
X31678D01*
X31651Y32101D01*
X31582Y32148D01*
X31500Y32164D01*
X31418Y32148D01*
X31349Y32101D01*
X31302Y32032D01*
X31286Y31950D01*
X31302Y31868D01*
X31349Y31799D01*
X31352Y31761D01*
X30882Y31290D01*
X29719D01*
X29695Y31340D01*
X29722Y31381D01*
X29736Y31450D01*
X29722Y31519D01*
X29710Y31538D01*
X29737Y31588D01*
X30550D01*
X30550Y31588D01*
X30593Y31596D01*
X30629Y31621D01*
X30754Y31745D01*
X30800Y31736D01*
X30882Y31752D01*
X30951Y31799D01*
X30998Y31868D01*
X31014Y31950D01*
X30998Y32032D01*
X30995Y32036D01*
X31296Y32338D01*
X32756D01*
X32767Y32322D01*
X32826Y32282D01*
X32896Y32268D01*
X33604D01*
X33674Y32282D01*
X33733Y32322D01*
X33772Y32380D01*
X33786Y32450D01*
X33772Y32520D01*
X33733Y32578D01*
X33674Y32618D01*
X33604Y32632D01*
X32896D01*
X32826Y32618D01*
X32767Y32578D01*
X32756Y32562D01*
X32380D01*
X32360Y32612D01*
X32398Y32668D01*
X32414Y32750D01*
X32398Y32832D01*
X32351Y32901D01*
X32282Y32948D01*
X32200Y32964D01*
X32118Y32948D01*
X32049Y32901D01*
X32022Y32862D01*
X31200D01*
X31200Y32862D01*
X31157Y32854D01*
X31121Y32829D01*
X31121Y32829D01*
X30354Y32062D01*
X29694D01*
X29683Y32078D01*
X29624Y32118D01*
X29554Y32132D01*
X28846D01*
X28776Y32118D01*
X28717Y32078D01*
X28706Y32062D01*
X26065D01*
X26037Y32112D01*
X26049Y32130D01*
X27142D01*
X27142Y32130D01*
X27185Y32139D01*
X27222Y32163D01*
X28396Y33338D01*
X28706D01*
X28717Y33322D01*
X28776Y33282D01*
X28846Y33268D01*
X29554D01*
X29624Y33282D01*
X29683Y33322D01*
X29722Y33380D01*
X29736Y33450D01*
X29722Y33519D01*
X29683Y33578D01*
X29624Y33618D01*
X29554Y33632D01*
X28846D01*
X28776Y33618D01*
X28717Y33578D01*
X28706Y33562D01*
X28350D01*
X28307Y33554D01*
X28271Y33529D01*
X28271Y33529D01*
X27096Y32355D01*
X26010D01*
X25997Y32386D01*
X25951Y32446D01*
X25896Y32488D01*
X25896Y32503D01*
X25910Y32538D01*
X27050D01*
X27050Y32538D01*
X27093Y32546D01*
X27129Y32571D01*
X28396Y33838D01*
X28706D01*
X28717Y33822D01*
X28776Y33782D01*
X28846Y33768D01*
X29554D01*
X29624Y33782D01*
X29683Y33822D01*
X29722Y33881D01*
X29736Y33950D01*
X29722Y34019D01*
X29683Y34078D01*
X29624Y34118D01*
X29554Y34132D01*
X28846D01*
X28776Y34118D01*
X28717Y34078D01*
X28706Y34062D01*
X28350D01*
X28350Y34062D01*
X28307Y34054D01*
X28271Y34029D01*
X28271Y34029D01*
X27004Y32762D01*
X25682D01*
X25639Y32754D01*
X25602Y32729D01*
X25602Y32729D01*
X25581Y32708D01*
X25534Y32732D01*
X25535Y32742D01*
X25525Y32817D01*
X25497Y32886D01*
X25451Y32946D01*
X25391Y32991D01*
X25322Y33020D01*
X25248Y33030D01*
X25173Y33020D01*
X25104Y32991D01*
X25044Y32946D01*
X24999Y32886D01*
X24970Y32817D01*
X24960Y32742D01*
X24970Y32668D01*
X24999Y32599D01*
X25044Y32539D01*
X25104Y32493D01*
X25173Y32465D01*
X25248Y32455D01*
X25259Y32456D01*
X25282Y32409D01*
X25227Y32355D01*
X25010D01*
X24997Y32386D01*
X24951Y32446D01*
X24891Y32491D01*
X24822Y32520D01*
X24748Y32530D01*
X24673Y32520D01*
X24604Y32491D01*
X24544Y32446D01*
X24499Y32386D01*
X24470Y32317D01*
X24460Y32242D01*
X24462Y32230D01*
X24417Y32190D01*
X21819D01*
X20362Y33646D01*
Y37481D01*
X20391Y37493D01*
X20451Y37539D01*
X20497Y37599D01*
X20525Y37668D01*
X20535Y37742D01*
X20525Y37817D01*
X20497Y37886D01*
X20451Y37946D01*
X20391Y37991D01*
X20322Y38020D01*
X20248Y38030D01*
X20173Y38020D01*
X20104Y37991D01*
X20044Y37946D01*
X19999Y37886D01*
X19970Y37817D01*
X19960Y37742D01*
X19970Y37668D01*
X19999Y37599D01*
X20044Y37539D01*
X20104Y37493D01*
X20138Y37479D01*
Y33600D01*
X20138Y33600D01*
X20146Y33557D01*
X20171Y33521D01*
X21693Y31998D01*
X21693Y31998D01*
X21730Y31974D01*
X21773Y31965D01*
X21773Y31965D01*
X23996D01*
X24021Y31915D01*
X23999Y31886D01*
X23970Y31817D01*
X23965Y31780D01*
X23912Y31762D01*
X23896Y31779D01*
X23859Y31804D01*
X23816Y31812D01*
X23816Y31812D01*
X18205D01*
X18205Y31812D01*
X18162Y31804D01*
X18126Y31779D01*
X18126Y31779D01*
X17301Y30954D01*
X17250Y30964D01*
X17168Y30948D01*
X17099Y30901D01*
X17052Y30832D01*
X17036Y30750D01*
X17046Y30699D01*
X14854Y28507D01*
X14822Y28520D01*
X14748Y28530D01*
X14673Y28520D01*
X14604Y28491D01*
X14544Y28446D01*
X14499Y28386D01*
X14470Y28317D01*
X14460Y28242D01*
X14470Y28168D01*
X14499Y28099D01*
X14544Y28039D01*
X14604Y27993D01*
X14673Y27965D01*
X14748Y27955D01*
X14775Y27959D01*
X14798Y27911D01*
X14621Y27734D01*
X14574Y27757D01*
X14564Y27827D01*
X14532Y27906D01*
X14479Y27974D01*
X14412Y28026D01*
X14333Y28059D01*
X14298Y28064D01*
Y27742D01*
X14248D01*
Y27692D01*
X13926D01*
X13931Y27658D01*
X13964Y27578D01*
X14016Y27511D01*
X14021Y27507D01*
X14004Y27457D01*
X13684D01*
X13510Y27631D01*
X13525Y27668D01*
X13535Y27742D01*
X13525Y27817D01*
X13497Y27886D01*
X13451Y27946D01*
X13391Y27991D01*
X13322Y28020D01*
X13248Y28030D01*
X13173Y28020D01*
X13104Y27991D01*
X13044Y27946D01*
X12999Y27886D01*
X12970Y27817D01*
X12960Y27742D01*
X12970Y27668D01*
X12999Y27599D01*
X13044Y27539D01*
X13104Y27493D01*
X13173Y27465D01*
X13248Y27455D01*
X13322Y27465D01*
X13359Y27480D01*
X13564Y27274D01*
X13564Y27274D01*
X13599Y27251D01*
X13640Y27243D01*
X14389D01*
X14411Y27247D01*
X14416Y27247D01*
X14456Y27223D01*
X14464Y27214D01*
X14470Y27168D01*
X14499Y27099D01*
X14544Y27039D01*
X14604Y26993D01*
X14673Y26965D01*
X14748Y26955D01*
X14822Y26965D01*
X14891Y26993D01*
X14951Y27039D01*
X14997Y27099D01*
X15010Y27130D01*
X15242D01*
X15242Y27130D01*
X15285Y27139D01*
X15322Y27163D01*
X15417Y27258D01*
X15462Y27232D01*
X15470Y27168D01*
X15499Y27099D01*
X15544Y27039D01*
X15604Y26993D01*
X15673Y26965D01*
X15748Y26955D01*
X15822Y26965D01*
X15891Y26993D01*
X15951Y27039D01*
X15997Y27099D01*
X16010Y27130D01*
X16221D01*
X16221Y27130D01*
X16264Y27139D01*
X16301Y27163D01*
X16371Y27233D01*
X16423Y27215D01*
X16431Y27158D01*
X16464Y27078D01*
X16516Y27011D01*
X16584Y26959D01*
X16663Y26926D01*
X16698Y26921D01*
Y27242D01*
X16748D01*
Y27292D01*
X17069D01*
X17064Y27327D01*
X17032Y27406D01*
X16979Y27474D01*
X16912Y27526D01*
X16833Y27559D01*
X16775Y27567D01*
X16757Y27619D01*
X16914Y27777D01*
X16962Y27753D01*
X16960Y27742D01*
X16970Y27668D01*
X16999Y27599D01*
X17044Y27539D01*
X17104Y27493D01*
X17173Y27465D01*
X17248Y27455D01*
X17322Y27465D01*
X17391Y27493D01*
X17451Y27539D01*
X17497Y27599D01*
X17525Y27668D01*
X17535Y27742D01*
X17525Y27817D01*
X17497Y27886D01*
X17451Y27946D01*
X17391Y27991D01*
X17322Y28020D01*
X17248Y28030D01*
X17224Y28027D01*
X17211Y28039D01*
X17189Y28073D01*
X17195Y28104D01*
X17195Y28104D01*
Y28486D01*
X18246Y29538D01*
X20072D01*
X20099Y29499D01*
X20168Y29452D01*
X20250Y29436D01*
X20332Y29452D01*
X20401Y29499D01*
X20428Y29538D01*
X23820D01*
X24030Y29328D01*
X24030Y29328D01*
X24066Y29304D01*
X24109Y29295D01*
X24413D01*
X24413Y29295D01*
X24417Y29296D01*
X24462Y29254D01*
X24460Y29242D01*
X24470Y29168D01*
X24499Y29099D01*
X24544Y29039D01*
X24604Y28993D01*
X24673Y28965D01*
X24748Y28955D01*
X24822Y28965D01*
X24891Y28993D01*
X24951Y29039D01*
X24997Y29099D01*
X25025Y29168D01*
X25035Y29242D01*
X25032Y29266D01*
X25044Y29280D01*
X25078Y29301D01*
X25109Y29295D01*
X25386D01*
X25386Y29295D01*
X25418Y29301D01*
X25451Y29280D01*
X25463Y29266D01*
X25460Y29242D01*
X25470Y29168D01*
X25499Y29099D01*
X25544Y29039D01*
X25604Y28993D01*
X25673Y28965D01*
X25748Y28955D01*
X25822Y28965D01*
X25891Y28993D01*
X25951Y29039D01*
X25997Y29099D01*
X26025Y29168D01*
X26035Y29242D01*
X26025Y29317D01*
X25997Y29386D01*
X25951Y29446D01*
X25896Y29488D01*
X25896Y29503D01*
X25910Y29538D01*
X26614D01*
X26633Y29492D01*
X26221Y29079D01*
X26196Y29043D01*
X26188Y29000D01*
X26188Y29000D01*
Y27237D01*
X25363Y26412D01*
X24306D01*
X24302Y26462D01*
X24322Y26465D01*
X24391Y26493D01*
X24451Y26539D01*
X24497Y26599D01*
X24525Y26668D01*
X24535Y26742D01*
X24525Y26817D01*
X24497Y26886D01*
X24451Y26946D01*
X24391Y26991D01*
X24322Y27020D01*
X24248Y27030D01*
X24173Y27020D01*
X24104Y26991D01*
X24044Y26946D01*
X23999Y26886D01*
X23970Y26817D01*
X23960Y26742D01*
X23970Y26668D01*
X23999Y26599D01*
X24044Y26539D01*
X24104Y26493D01*
X24173Y26465D01*
X24193Y26462D01*
X24190Y26412D01*
X23306D01*
X23303Y26462D01*
X23322Y26465D01*
X23391Y26493D01*
X23451Y26539D01*
X23497Y26599D01*
X23525Y26668D01*
X23535Y26742D01*
X23525Y26817D01*
X23497Y26886D01*
X23451Y26946D01*
X23391Y26991D01*
X23322Y27020D01*
X23248Y27030D01*
X23173Y27020D01*
X23104Y26991D01*
X23044Y26946D01*
X22999Y26886D01*
X22970Y26817D01*
X22960Y26742D01*
X22970Y26668D01*
X22999Y26599D01*
X23044Y26539D01*
X23104Y26493D01*
X23173Y26465D01*
X23193Y26462D01*
X23190Y26412D01*
X22306D01*
X22302Y26462D01*
X22322Y26465D01*
X22391Y26493D01*
X22451Y26539D01*
X22497Y26599D01*
X22525Y26668D01*
X22535Y26742D01*
X22525Y26817D01*
X22497Y26886D01*
X22451Y26946D01*
X22391Y26991D01*
X22322Y27020D01*
X22248Y27030D01*
X22173Y27020D01*
X22104Y26991D01*
X22044Y26946D01*
X21999Y26886D01*
X21970Y26817D01*
X21960Y26742D01*
X21970Y26668D01*
X21999Y26599D01*
X22044Y26539D01*
X22104Y26493D01*
X22173Y26465D01*
X22193Y26462D01*
X22190Y26412D01*
X21306D01*
X21302Y26462D01*
X21322Y26465D01*
X21391Y26493D01*
X21451Y26539D01*
X21497Y26599D01*
X21525Y26668D01*
X21535Y26742D01*
X21525Y26817D01*
X21497Y26886D01*
X21451Y26946D01*
X21391Y26991D01*
X21322Y27020D01*
X21248Y27030D01*
X21173Y27020D01*
X21104Y26991D01*
X21044Y26946D01*
X20999Y26886D01*
X20970Y26817D01*
X20960Y26742D01*
X20970Y26668D01*
X20999Y26599D01*
X21044Y26539D01*
X21104Y26493D01*
X21173Y26465D01*
X21193Y26462D01*
X21190Y26412D01*
X20306D01*
X20303Y26462D01*
X20322Y26465D01*
X20391Y26493D01*
X20451Y26539D01*
X20497Y26599D01*
X20525Y26668D01*
X20535Y26742D01*
X20525Y26817D01*
X20497Y26886D01*
X20451Y26946D01*
X20391Y26991D01*
X20322Y27020D01*
X20248Y27030D01*
X20173Y27020D01*
X20104Y26991D01*
X20044Y26946D01*
X19999Y26886D01*
X19970Y26817D01*
X19960Y26742D01*
X19970Y26668D01*
X19999Y26599D01*
X20044Y26539D01*
X20104Y26493D01*
X20173Y26465D01*
X20193Y26462D01*
X20190Y26412D01*
X19306D01*
X19303Y26462D01*
X19322Y26465D01*
X19391Y26493D01*
X19451Y26539D01*
X19497Y26599D01*
X19525Y26668D01*
X19535Y26742D01*
X19525Y26817D01*
X19497Y26886D01*
X19451Y26946D01*
X19391Y26991D01*
X19322Y27020D01*
X19248Y27030D01*
X19173Y27020D01*
X19104Y26991D01*
X19044Y26946D01*
X18999Y26886D01*
X18970Y26817D01*
X18960Y26742D01*
X18970Y26668D01*
X18999Y26599D01*
X19044Y26539D01*
X19104Y26493D01*
X19173Y26465D01*
X19193Y26462D01*
X19190Y26412D01*
X18306D01*
X18303Y26462D01*
X18322Y26465D01*
X18391Y26493D01*
X18451Y26539D01*
X18497Y26599D01*
X18525Y26668D01*
X18535Y26742D01*
X18525Y26817D01*
X18497Y26886D01*
X18451Y26946D01*
X18391Y26991D01*
X18322Y27020D01*
X18248Y27030D01*
X18173Y27020D01*
X18104Y26991D01*
X18044Y26946D01*
X17999Y26886D01*
X17970Y26817D01*
X17960Y26742D01*
X17970Y26668D01*
X17999Y26599D01*
X18044Y26539D01*
X18104Y26493D01*
X18173Y26465D01*
X18193Y26462D01*
X18190Y26412D01*
X17306D01*
X17303Y26462D01*
X17322Y26465D01*
X17391Y26493D01*
X17451Y26539D01*
X17497Y26599D01*
X17525Y26668D01*
X17535Y26742D01*
X17525Y26817D01*
X17497Y26886D01*
X17451Y26946D01*
X17391Y26991D01*
X17322Y27020D01*
X17248Y27030D01*
X17173Y27020D01*
X17104Y26991D01*
X17044Y26946D01*
X16999Y26886D01*
X16970Y26817D01*
X16960Y26742D01*
X16970Y26668D01*
X16999Y26599D01*
X17044Y26539D01*
X17104Y26493D01*
X17173Y26465D01*
X17193Y26462D01*
X17190Y26412D01*
X16430D01*
X16417Y26446D01*
X16416Y26462D01*
X16479Y26511D01*
X16532Y26579D01*
X16564Y26658D01*
X16569Y26692D01*
X15926D01*
X15931Y26658D01*
X15964Y26579D01*
X16016Y26511D01*
X16079Y26462D01*
X16079Y26446D01*
X16065Y26412D01*
X15306D01*
X15302Y26462D01*
X15322Y26465D01*
X15391Y26493D01*
X15451Y26539D01*
X15497Y26599D01*
X15525Y26668D01*
X15535Y26742D01*
X15525Y26817D01*
X15497Y26886D01*
X15451Y26946D01*
X15391Y26991D01*
X15322Y27020D01*
X15248Y27030D01*
X15173Y27020D01*
X15104Y26991D01*
X15044Y26946D01*
X14999Y26886D01*
X14970Y26817D01*
X14960Y26742D01*
X14970Y26668D01*
X14999Y26599D01*
X15044Y26539D01*
X15104Y26493D01*
X15173Y26465D01*
X15193Y26462D01*
X15190Y26412D01*
X14306D01*
X14303Y26462D01*
X14322Y26465D01*
X14391Y26493D01*
X14451Y26539D01*
X14497Y26599D01*
X14525Y26668D01*
X14535Y26742D01*
X14525Y26817D01*
X14497Y26886D01*
X14451Y26946D01*
X14391Y26991D01*
X14322Y27020D01*
X14248Y27030D01*
X14173Y27020D01*
X14104Y26991D01*
X14044Y26946D01*
X13999Y26886D01*
X13970Y26817D01*
X13960Y26742D01*
X13970Y26668D01*
X13999Y26599D01*
X14044Y26539D01*
X14104Y26493D01*
X14173Y26465D01*
X14193Y26462D01*
X14190Y26412D01*
X13489D01*
X12905Y26996D01*
Y28752D01*
X12912Y28756D01*
X12929Y28751D01*
X12962Y28729D01*
X12970Y28668D01*
X12999Y28599D01*
X13044Y28539D01*
X13104Y28493D01*
X13173Y28465D01*
X13248Y28455D01*
X13322Y28465D01*
X13391Y28493D01*
X13451Y28539D01*
X13497Y28599D01*
X13525Y28668D01*
X13535Y28742D01*
X13525Y28817D01*
X13497Y28886D01*
X13451Y28946D01*
X13391Y28991D01*
X13322Y29020D01*
X13248Y29030D01*
X13212Y29025D01*
X13189Y29073D01*
X13246Y29130D01*
X13486D01*
X13499Y29099D01*
X13544Y29039D01*
X13604Y28993D01*
X13673Y28965D01*
X13748Y28955D01*
X13822Y28965D01*
X13891Y28993D01*
X13951Y29039D01*
X13997Y29099D01*
X14025Y29168D01*
X14035Y29242D01*
X14025Y29317D01*
X13997Y29386D01*
X13951Y29446D01*
X13891Y29491D01*
X13822Y29520D01*
X13748Y29530D01*
X13673Y29520D01*
X13604Y29491D01*
X13544Y29446D01*
X13499Y29386D01*
X13486Y29355D01*
X13200D01*
X13157Y29346D01*
X13121Y29322D01*
X13121Y29322D01*
X12791Y28992D01*
X12744Y29011D01*
Y29193D01*
X13071Y29519D01*
X13104Y29493D01*
X13173Y29465D01*
X13248Y29455D01*
X13322Y29465D01*
X13391Y29493D01*
X13451Y29539D01*
X13497Y29599D01*
X13525Y29668D01*
X13535Y29742D01*
X13525Y29817D01*
X13497Y29886D01*
X13451Y29946D01*
X13391Y29991D01*
X13322Y30020D01*
X13248Y30030D01*
X13173Y30020D01*
X13104Y29991D01*
X13044Y29946D01*
X12999Y29886D01*
X12970Y29817D01*
X12960Y29742D01*
X12964Y29715D01*
X12641Y29392D01*
X12595Y29411D01*
Y29605D01*
X13120Y30130D01*
X13486D01*
X13499Y30099D01*
X13544Y30039D01*
X13604Y29993D01*
X13673Y29965D01*
X13748Y29955D01*
X13822Y29965D01*
X13891Y29993D01*
X13951Y30039D01*
X13997Y30099D01*
X14025Y30168D01*
X14035Y30242D01*
X14025Y30317D01*
X13997Y30386D01*
X13951Y30446D01*
X13891Y30491D01*
X13822Y30520D01*
X13748Y30530D01*
X13673Y30520D01*
X13604Y30491D01*
X13544Y30446D01*
X13499Y30386D01*
X13486Y30355D01*
X13073D01*
X13073Y30355D01*
X13030Y30346D01*
X12994Y30322D01*
X12994Y30322D01*
X12481Y29809D01*
X12435Y29828D01*
Y30226D01*
X12839Y30630D01*
X12986D01*
X12999Y30599D01*
X13044Y30539D01*
X13104Y30493D01*
X13173Y30465D01*
X13248Y30455D01*
X13322Y30465D01*
X13391Y30493D01*
X13451Y30539D01*
X13497Y30599D01*
X13525Y30668D01*
X13535Y30742D01*
X13525Y30817D01*
X13497Y30886D01*
X13451Y30946D01*
X13391Y30991D01*
X13322Y31020D01*
X13248Y31030D01*
X13173Y31020D01*
X13104Y30991D01*
X13044Y30946D01*
X12999Y30886D01*
X12986Y30855D01*
X12792D01*
X12749Y30846D01*
X12713Y30822D01*
X12713Y30822D01*
X12321Y30429D01*
X12275Y30449D01*
Y30566D01*
X12839Y31130D01*
X13486D01*
X13499Y31099D01*
X13544Y31039D01*
X13604Y30993D01*
X13673Y30965D01*
X13748Y30955D01*
X13822Y30965D01*
X13891Y30993D01*
X13951Y31039D01*
X13997Y31099D01*
X14025Y31168D01*
X14035Y31242D01*
X14025Y31317D01*
X13997Y31386D01*
X13951Y31446D01*
X13891Y31491D01*
X13822Y31520D01*
X13748Y31530D01*
X13673Y31520D01*
X13604Y31491D01*
X13544Y31446D01*
X13499Y31386D01*
X13486Y31355D01*
X12792D01*
X12792Y31355D01*
X12749Y31346D01*
X12713Y31322D01*
X12713Y31322D01*
X12161Y30769D01*
X12114Y30788D01*
Y30913D01*
X12837Y31635D01*
X12984D01*
X12999Y31599D01*
X13044Y31539D01*
X13104Y31493D01*
X13173Y31465D01*
X13248Y31455D01*
X13322Y31465D01*
X13391Y31493D01*
X13451Y31539D01*
X13497Y31599D01*
X13525Y31668D01*
X13535Y31742D01*
X13525Y31817D01*
X13497Y31886D01*
X13451Y31946D01*
X13391Y31991D01*
X13322Y32020D01*
X13248Y32030D01*
X13173Y32020D01*
X13104Y31991D01*
X13044Y31946D01*
X12999Y31886D01*
X12984Y31849D01*
X12792D01*
X12792Y31849D01*
X12751Y31841D01*
X12717Y31818D01*
X12717Y31818D01*
X12008Y31110D01*
X11962Y31129D01*
Y31254D01*
X12839Y32130D01*
X13486D01*
X13499Y32099D01*
X13544Y32039D01*
X13604Y31993D01*
X13673Y31965D01*
X13748Y31955D01*
X13822Y31965D01*
X13891Y31993D01*
X13951Y32039D01*
X13997Y32099D01*
X14025Y32168D01*
X14035Y32242D01*
X14025Y32317D01*
X13997Y32386D01*
X13951Y32446D01*
X13891Y32491D01*
X13822Y32520D01*
X13748Y32530D01*
X13673Y32520D01*
X13604Y32491D01*
X13544Y32446D01*
X13499Y32386D01*
X13486Y32355D01*
X12792D01*
X12792Y32355D01*
X12749Y32346D01*
X12713Y32322D01*
X12713Y32322D01*
X11848Y31457D01*
X11802Y31476D01*
Y31601D01*
X12837Y32635D01*
X12984D01*
X12999Y32599D01*
X13044Y32539D01*
X13104Y32493D01*
X13173Y32465D01*
X13248Y32455D01*
X13322Y32465D01*
X13391Y32493D01*
X13451Y32539D01*
X13497Y32599D01*
X13525Y32668D01*
X13535Y32742D01*
X13525Y32817D01*
X13497Y32886D01*
X13451Y32946D01*
X13391Y32991D01*
X13322Y33020D01*
X13248Y33030D01*
X13173Y33020D01*
X13104Y32991D01*
X13044Y32946D01*
X12999Y32886D01*
X12984Y32849D01*
X12792D01*
X12751Y32841D01*
X12717Y32818D01*
X11698Y31800D01*
X11652Y31819D01*
Y31944D01*
X12839Y33130D01*
X13486D01*
X13499Y33099D01*
X13544Y33039D01*
X13604Y32993D01*
X13673Y32965D01*
X13748Y32955D01*
X13822Y32965D01*
X13891Y32993D01*
X13951Y33039D01*
X13997Y33099D01*
X14025Y33168D01*
X14035Y33242D01*
X14025Y33317D01*
X13997Y33386D01*
X13951Y33446D01*
X13891Y33491D01*
X13822Y33520D01*
X13748Y33530D01*
X13673Y33520D01*
X13604Y33491D01*
X13544Y33446D01*
X13499Y33386D01*
X13486Y33355D01*
X12792D01*
X12792Y33355D01*
X12749Y33346D01*
X12713Y33322D01*
X11461Y32069D01*
X11450Y32053D01*
X11400Y32068D01*
Y41090D01*
X36150D01*
Y24900D01*
D02*
G37*
G36*
X31157Y30516D02*
X29921Y29279D01*
X29896Y29243D01*
X29888Y29200D01*
X29888Y29200D01*
Y28096D01*
X29504Y27712D01*
X27600D01*
X27577Y27708D01*
X27558Y27755D01*
X27580Y27770D01*
X27636Y27852D01*
X27645Y27900D01*
X27450D01*
Y27705D01*
X27482Y27711D01*
X27507Y27665D01*
X26928Y27087D01*
X26882Y27106D01*
Y28674D01*
X27009Y28801D01*
X27059Y28780D01*
Y28500D01*
X27425D01*
Y28400D01*
X27059D01*
Y28065D01*
X27120D01*
X27158Y28015D01*
X27155Y28000D01*
X27645D01*
X27642Y28015D01*
X27680Y28065D01*
X27791D01*
Y28105D01*
X28401D01*
Y28208D01*
X28451Y28246D01*
X28500Y28236D01*
X28582Y28252D01*
X28634Y28287D01*
X28769D01*
X28776Y28282D01*
X28846Y28268D01*
X29554D01*
X29624Y28282D01*
X29683Y28322D01*
X29722Y28380D01*
X29736Y28450D01*
X29722Y28519D01*
X29683Y28578D01*
X29624Y28618D01*
X29554Y28632D01*
X28846D01*
X28776Y28618D01*
X28769Y28613D01*
X28634D01*
X28582Y28648D01*
X28500Y28664D01*
X28451Y28654D01*
X28401Y28692D01*
Y28788D01*
X28401Y28795D01*
X28419Y28838D01*
X28706D01*
X28717Y28822D01*
X28776Y28782D01*
X28846Y28768D01*
X29554D01*
X29624Y28782D01*
X29683Y28822D01*
X29722Y28881D01*
X29736Y28950D01*
X29722Y29019D01*
X29683Y29078D01*
X29624Y29118D01*
X29554Y29132D01*
X28846D01*
X28776Y29118D01*
X28717Y29078D01*
X28706Y29062D01*
X27030D01*
X27009Y29112D01*
X27235Y29338D01*
X28706D01*
X28717Y29322D01*
X28776Y29282D01*
X28846Y29268D01*
X29554D01*
X29624Y29282D01*
X29683Y29322D01*
X29722Y29381D01*
X29736Y29450D01*
X29722Y29520D01*
X29683Y29578D01*
X29624Y29618D01*
X29554Y29632D01*
X28846D01*
X28776Y29618D01*
X28717Y29578D01*
X28706Y29562D01*
X27298D01*
X27279Y29608D01*
X27514Y29843D01*
X28703D01*
X28717Y29822D01*
X28776Y29782D01*
X28846Y29768D01*
X29554D01*
X29624Y29782D01*
X29683Y29822D01*
X29722Y29880D01*
X29736Y29950D01*
X29722Y30020D01*
X29683Y30078D01*
X29624Y30118D01*
X29554Y30132D01*
X28846D01*
X28776Y30118D01*
X28717Y30078D01*
X28703Y30057D01*
X27581D01*
X27562Y30103D01*
X27796Y30338D01*
X28706D01*
X28717Y30322D01*
X28776Y30282D01*
X28846Y30268D01*
X29554D01*
X29624Y30282D01*
X29683Y30322D01*
X29722Y30380D01*
X29736Y30450D01*
X29723Y30516D01*
X29723Y30527D01*
X29744Y30566D01*
X31137D01*
X31157Y30516D01*
D02*
G37*
%LPC*%
G36*
X33200Y31672D02*
X32896D01*
X32811Y31655D01*
X32738Y31607D01*
X32690Y31535D01*
X32683Y31500D01*
X33200D01*
Y31672D01*
D02*
G37*
G36*
X33604D02*
X33300D01*
Y31500D01*
X33817D01*
X33810Y31535D01*
X33762Y31607D01*
X33689Y31655D01*
X33604Y31672D01*
D02*
G37*
G36*
X14748Y32530D02*
X14673Y32520D01*
X14604Y32491D01*
X14544Y32446D01*
X14499Y32386D01*
X14470Y32317D01*
X14460Y32242D01*
X14470Y32168D01*
X14499Y32099D01*
X14544Y32039D01*
X14604Y31993D01*
X14673Y31965D01*
X14748Y31955D01*
X14822Y31965D01*
X14891Y31993D01*
X14951Y32039D01*
X14997Y32099D01*
X15025Y32168D01*
X15035Y32242D01*
X15025Y32317D01*
X14997Y32386D01*
X14951Y32446D01*
X14891Y32491D01*
X14822Y32520D01*
X14748Y32530D01*
D02*
G37*
G36*
X29554Y32632D02*
X28846D01*
X28776Y32618D01*
X28717Y32578D01*
X28678Y32520D01*
X28664Y32450D01*
X28678Y32380D01*
X28717Y32322D01*
X28776Y32282D01*
X28846Y32268D01*
X29554D01*
X29624Y32282D01*
X29683Y32322D01*
X29722Y32380D01*
X29736Y32450D01*
X29722Y32520D01*
X29683Y32578D01*
X29624Y32618D01*
X29554Y32632D01*
D02*
G37*
G36*
X33604Y33132D02*
X32896D01*
X32826Y33118D01*
X32767Y33078D01*
X32728Y33019D01*
X32714Y32950D01*
X32728Y32880D01*
X32767Y32822D01*
X32826Y32782D01*
X32896Y32768D01*
X33604D01*
X33674Y32782D01*
X33733Y32822D01*
X33772Y32880D01*
X33786Y32950D01*
X33772Y33019D01*
X33733Y33078D01*
X33674Y33118D01*
X33604Y33132D01*
D02*
G37*
G36*
X14748Y33530D02*
X14673Y33520D01*
X14604Y33491D01*
X14544Y33446D01*
X14499Y33386D01*
X14470Y33317D01*
X14460Y33242D01*
X14470Y33168D01*
X14499Y33099D01*
X14544Y33039D01*
X14604Y32993D01*
X14673Y32965D01*
X14748Y32955D01*
X14822Y32965D01*
X14891Y32993D01*
X14951Y33039D01*
X14997Y33099D01*
X15025Y33168D01*
X15035Y33242D01*
X15025Y33317D01*
X14997Y33386D01*
X14951Y33446D01*
X14891Y33491D01*
X14822Y33520D01*
X14748Y33530D01*
D02*
G37*
G36*
X29554Y33132D02*
X28846D01*
X28776Y33118D01*
X28717Y33078D01*
X28678Y33019D01*
X28664Y32950D01*
X28678Y32880D01*
X28717Y32822D01*
X28776Y32782D01*
X28846Y32768D01*
X29554D01*
X29624Y32782D01*
X29683Y32822D01*
X29722Y32880D01*
X29736Y32950D01*
X29722Y33019D01*
X29683Y33078D01*
X29624Y33118D01*
X29554Y33132D01*
D02*
G37*
G36*
X14248Y33030D02*
X14173Y33020D01*
X14104Y32991D01*
X14044Y32946D01*
X13999Y32886D01*
X13970Y32817D01*
X13960Y32742D01*
X13970Y32668D01*
X13999Y32599D01*
X14044Y32539D01*
X14104Y32493D01*
X14173Y32465D01*
X14248Y32455D01*
X14322Y32465D01*
X14391Y32493D01*
X14451Y32539D01*
X14497Y32599D01*
X14525Y32668D01*
X14535Y32742D01*
X14525Y32817D01*
X14497Y32886D01*
X14451Y32946D01*
X14391Y32991D01*
X14322Y33020D01*
X14248Y33030D01*
D02*
G37*
G36*
X24248D02*
X24173Y33020D01*
X24104Y32991D01*
X24044Y32946D01*
X23999Y32886D01*
X23970Y32817D01*
X23960Y32742D01*
X23970Y32668D01*
X23999Y32599D01*
X24044Y32539D01*
X24104Y32493D01*
X24173Y32465D01*
X24248Y32455D01*
X24322Y32465D01*
X24391Y32493D01*
X24451Y32539D01*
X24497Y32599D01*
X24525Y32668D01*
X24535Y32742D01*
X24525Y32817D01*
X24497Y32886D01*
X24451Y32946D01*
X24391Y32991D01*
X24322Y33020D01*
X24248Y33030D01*
D02*
G37*
G36*
X24298Y31064D02*
Y30792D01*
X24569D01*
X24564Y30827D01*
X24532Y30906D01*
X24479Y30974D01*
X24412Y31026D01*
X24333Y31059D01*
X24298Y31064D01*
D02*
G37*
G36*
X24698Y31192D02*
X24426D01*
X24431Y31158D01*
X24464Y31079D01*
X24516Y31011D01*
X24584Y30959D01*
X24663Y30926D01*
X24698Y30921D01*
Y31192D01*
D02*
G37*
G36*
X14248Y31030D02*
X14173Y31020D01*
X14104Y30991D01*
X14044Y30946D01*
X13999Y30886D01*
X13970Y30817D01*
X13960Y30742D01*
X13970Y30668D01*
X13999Y30599D01*
X14044Y30539D01*
X14104Y30493D01*
X14173Y30465D01*
X14248Y30455D01*
X14322Y30465D01*
X14391Y30493D01*
X14451Y30539D01*
X14497Y30599D01*
X14525Y30668D01*
X14535Y30742D01*
X14525Y30817D01*
X14497Y30886D01*
X14451Y30946D01*
X14391Y30991D01*
X14322Y31020D01*
X14248Y31030D01*
D02*
G37*
G36*
Y30030D02*
X14173Y30020D01*
X14104Y29991D01*
X14044Y29946D01*
X13999Y29886D01*
X13970Y29817D01*
X13960Y29742D01*
X13970Y29668D01*
X13999Y29599D01*
X14044Y29539D01*
X14104Y29493D01*
X14173Y29465D01*
X14248Y29455D01*
X14322Y29465D01*
X14391Y29493D01*
X14451Y29539D01*
X14497Y29599D01*
X14525Y29668D01*
X14535Y29742D01*
X14525Y29817D01*
X14497Y29886D01*
X14451Y29946D01*
X14391Y29991D01*
X14322Y30020D01*
X14248Y30030D01*
D02*
G37*
G36*
X14748Y30530D02*
X14673Y30520D01*
X14604Y30491D01*
X14544Y30446D01*
X14499Y30386D01*
X14470Y30317D01*
X14460Y30242D01*
X14470Y30168D01*
X14499Y30099D01*
X14544Y30039D01*
X14604Y29993D01*
X14673Y29965D01*
X14748Y29955D01*
X14822Y29965D01*
X14891Y29993D01*
X14951Y30039D01*
X14997Y30099D01*
X15025Y30168D01*
X15035Y30242D01*
X15025Y30317D01*
X14997Y30386D01*
X14951Y30446D01*
X14891Y30491D01*
X14822Y30520D01*
X14748Y30530D01*
D02*
G37*
G36*
X33817Y31400D02*
X33300D01*
Y31228D01*
X33604D01*
X33689Y31245D01*
X33762Y31293D01*
X33810Y31365D01*
X33817Y31400D01*
D02*
G37*
G36*
X14248Y32030D02*
X14173Y32020D01*
X14104Y31991D01*
X14044Y31946D01*
X13999Y31886D01*
X13970Y31817D01*
X13960Y31742D01*
X13970Y31668D01*
X13999Y31599D01*
X14044Y31539D01*
X14104Y31493D01*
X14173Y31465D01*
X14248Y31455D01*
X14322Y31465D01*
X14391Y31493D01*
X14451Y31539D01*
X14497Y31599D01*
X14525Y31668D01*
X14535Y31742D01*
X14525Y31817D01*
X14497Y31886D01*
X14451Y31946D01*
X14391Y31991D01*
X14322Y32020D01*
X14248Y32030D01*
D02*
G37*
G36*
X33200Y31400D02*
X32683D01*
X32690Y31365D01*
X32738Y31293D01*
X32811Y31245D01*
X32896Y31228D01*
X33200D01*
Y31400D01*
D02*
G37*
G36*
X25069Y31192D02*
X24798D01*
Y30921D01*
X24833Y30926D01*
X24912Y30959D01*
X24979Y31011D01*
X25032Y31079D01*
X25064Y31158D01*
X25069Y31192D01*
D02*
G37*
G36*
X14748Y31530D02*
X14673Y31520D01*
X14604Y31491D01*
X14544Y31446D01*
X14499Y31386D01*
X14470Y31317D01*
X14460Y31242D01*
X14470Y31168D01*
X14499Y31099D01*
X14544Y31039D01*
X14604Y30993D01*
X14673Y30965D01*
X14748Y30955D01*
X14822Y30965D01*
X14891Y30993D01*
X14951Y31039D01*
X14997Y31099D01*
X15025Y31168D01*
X15035Y31242D01*
X15025Y31317D01*
X14997Y31386D01*
X14951Y31446D01*
X14891Y31491D01*
X14822Y31520D01*
X14748Y31530D01*
D02*
G37*
G36*
X14798Y34564D02*
Y34292D01*
X15069D01*
X15064Y34327D01*
X15032Y34406D01*
X14979Y34474D01*
X14912Y34526D01*
X14833Y34559D01*
X14798Y34564D01*
D02*
G37*
G36*
X27100Y34600D02*
X26905D01*
X26915Y34552D01*
X26970Y34470D01*
X27052Y34415D01*
X27100Y34405D01*
Y34600D01*
D02*
G37*
G36*
X14698Y34564D02*
X14663Y34559D01*
X14584Y34526D01*
X14516Y34474D01*
X14464Y34406D01*
X14431Y34327D01*
X14426Y34292D01*
X14698D01*
Y34564D01*
D02*
G37*
G36*
X15069Y34192D02*
X14798D01*
Y33921D01*
X14833Y33926D01*
X14912Y33959D01*
X14979Y34011D01*
X15032Y34079D01*
X15064Y34158D01*
X15069Y34192D01*
D02*
G37*
G36*
X12305Y34605D02*
X11595D01*
Y33895D01*
X12305D01*
Y34143D01*
X13480D01*
X13499Y34099D01*
X13544Y34039D01*
X13604Y33993D01*
X13673Y33965D01*
X13748Y33955D01*
X13822Y33965D01*
X13891Y33993D01*
X13951Y34039D01*
X13997Y34099D01*
X14025Y34168D01*
X14035Y34242D01*
X14025Y34317D01*
X13997Y34386D01*
X13951Y34446D01*
X13891Y34491D01*
X13822Y34520D01*
X13748Y34530D01*
X13673Y34520D01*
X13604Y34491D01*
X13544Y34446D01*
X13499Y34386D01*
X13487Y34357D01*
X12305D01*
Y34605D01*
D02*
G37*
G36*
X24248Y35030D02*
X24173Y35020D01*
X24104Y34991D01*
X24044Y34946D01*
X23999Y34886D01*
X23970Y34817D01*
X23960Y34742D01*
X23970Y34668D01*
X23999Y34599D01*
X24044Y34539D01*
X24104Y34493D01*
X24173Y34465D01*
X24248Y34455D01*
X24322Y34465D01*
X24391Y34493D01*
X24451Y34539D01*
X24497Y34599D01*
X24525Y34668D01*
X24535Y34742D01*
X24525Y34817D01*
X24497Y34886D01*
X24451Y34946D01*
X24391Y34991D01*
X24322Y35020D01*
X24248Y35030D01*
D02*
G37*
G36*
X27100Y34895D02*
X27052Y34885D01*
X26970Y34830D01*
X26915Y34748D01*
X26905Y34700D01*
X27100D01*
Y34895D01*
D02*
G37*
G36*
X14248Y35030D02*
X14173Y35020D01*
X14104Y34991D01*
X14044Y34946D01*
X13999Y34886D01*
X13970Y34817D01*
X13960Y34742D01*
X13970Y34668D01*
X13999Y34599D01*
X14044Y34539D01*
X14104Y34493D01*
X14173Y34465D01*
X14248Y34455D01*
X14322Y34465D01*
X14391Y34493D01*
X14451Y34539D01*
X14497Y34599D01*
X14525Y34668D01*
X14535Y34742D01*
X14525Y34817D01*
X14497Y34886D01*
X14451Y34946D01*
X14391Y34991D01*
X14322Y35020D01*
X14248Y35030D01*
D02*
G37*
G36*
X27395Y34600D02*
X27200D01*
Y34405D01*
X27248Y34415D01*
X27330Y34470D01*
X27385Y34552D01*
X27395Y34600D01*
D02*
G37*
G36*
X13248Y35030D02*
X13173Y35020D01*
X13104Y34991D01*
X13044Y34946D01*
X12999Y34886D01*
X12970Y34817D01*
X12960Y34742D01*
X12970Y34668D01*
X12999Y34599D01*
X13044Y34539D01*
X13104Y34493D01*
X13173Y34465D01*
X13248Y34455D01*
X13322Y34465D01*
X13391Y34493D01*
X13451Y34539D01*
X13497Y34599D01*
X13525Y34668D01*
X13535Y34742D01*
X13525Y34817D01*
X13497Y34886D01*
X13451Y34946D01*
X13391Y34991D01*
X13322Y35020D01*
X13248Y35030D01*
D02*
G37*
G36*
X14698Y34192D02*
X14426D01*
X14431Y34158D01*
X14464Y34079D01*
X14516Y34011D01*
X14584Y33959D01*
X14663Y33926D01*
X14698Y33921D01*
Y34192D01*
D02*
G37*
G36*
X24248Y34030D02*
X24173Y34020D01*
X24104Y33991D01*
X24044Y33946D01*
X23999Y33886D01*
X23970Y33817D01*
X23960Y33742D01*
X23970Y33668D01*
X23999Y33599D01*
X24044Y33539D01*
X24104Y33493D01*
X24173Y33465D01*
X24248Y33455D01*
X24322Y33465D01*
X24391Y33493D01*
X24451Y33539D01*
X24497Y33599D01*
X24525Y33668D01*
X24535Y33742D01*
X24525Y33817D01*
X24497Y33886D01*
X24451Y33946D01*
X24391Y33991D01*
X24322Y34020D01*
X24248Y34030D01*
D02*
G37*
G36*
X31150Y33700D02*
X30955D01*
X30965Y33652D01*
X31020Y33570D01*
X31102Y33514D01*
X31150Y33505D01*
Y33700D01*
D02*
G37*
G36*
X14248Y34030D02*
X14173Y34020D01*
X14104Y33991D01*
X14044Y33946D01*
X13999Y33886D01*
X13970Y33817D01*
X13960Y33742D01*
X13970Y33668D01*
X13999Y33599D01*
X14044Y33539D01*
X14104Y33493D01*
X14173Y33465D01*
X14248Y33455D01*
X14322Y33465D01*
X14391Y33493D01*
X14451Y33539D01*
X14497Y33599D01*
X14525Y33668D01*
X14535Y33742D01*
X14525Y33817D01*
X14497Y33886D01*
X14451Y33946D01*
X14391Y33991D01*
X14322Y34020D01*
X14248Y34030D01*
D02*
G37*
G36*
X13198Y33692D02*
X12926D01*
X12931Y33658D01*
X12964Y33579D01*
X13016Y33511D01*
X13084Y33459D01*
X13163Y33426D01*
X13198Y33421D01*
Y33692D01*
D02*
G37*
G36*
X13569D02*
X13298D01*
Y33421D01*
X13333Y33426D01*
X13412Y33459D01*
X13479Y33511D01*
X13532Y33579D01*
X13564Y33658D01*
X13569Y33692D01*
D02*
G37*
G36*
X31150Y33995D02*
X31102Y33986D01*
X31020Y33930D01*
X30965Y33848D01*
X30955Y33800D01*
X31150D01*
Y33995D01*
D02*
G37*
G36*
X31250D02*
Y33800D01*
X31445D01*
X31435Y33848D01*
X31380Y33930D01*
X31298Y33986D01*
X31250Y33995D01*
D02*
G37*
G36*
X13298Y34064D02*
Y33792D01*
X13569D01*
X13564Y33827D01*
X13532Y33906D01*
X13479Y33974D01*
X13412Y34026D01*
X13333Y34059D01*
X13298Y34064D01*
D02*
G37*
G36*
X31445Y33700D02*
X31250D01*
Y33505D01*
X31298Y33514D01*
X31380Y33570D01*
X31435Y33652D01*
X31445Y33700D01*
D02*
G37*
G36*
X13198Y34064D02*
X13163Y34059D01*
X13084Y34026D01*
X13016Y33974D01*
X12964Y33906D01*
X12931Y33827D01*
X12926Y33792D01*
X13198D01*
Y34064D01*
D02*
G37*
G36*
X21248Y28030D02*
X21173Y28020D01*
X21104Y27991D01*
X21044Y27946D01*
X20999Y27886D01*
X20970Y27817D01*
X20960Y27742D01*
X20970Y27668D01*
X20999Y27599D01*
X21044Y27539D01*
X21104Y27493D01*
X21173Y27465D01*
X21248Y27455D01*
X21322Y27465D01*
X21391Y27493D01*
X21451Y27539D01*
X21497Y27599D01*
X21525Y27668D01*
X21535Y27742D01*
X21525Y27817D01*
X21497Y27886D01*
X21451Y27946D01*
X21391Y27991D01*
X21322Y28020D01*
X21248Y28030D01*
D02*
G37*
G36*
X22248D02*
X22173Y28020D01*
X22104Y27991D01*
X22044Y27946D01*
X21999Y27886D01*
X21970Y27817D01*
X21960Y27742D01*
X21970Y27668D01*
X21999Y27599D01*
X22044Y27539D01*
X22104Y27493D01*
X22173Y27465D01*
X22248Y27455D01*
X22322Y27465D01*
X22391Y27493D01*
X22451Y27539D01*
X22497Y27599D01*
X22525Y27668D01*
X22535Y27742D01*
X22525Y27817D01*
X22497Y27886D01*
X22451Y27946D01*
X22391Y27991D01*
X22322Y28020D01*
X22248Y28030D01*
D02*
G37*
G36*
X20248D02*
X20173Y28020D01*
X20104Y27991D01*
X20044Y27946D01*
X19999Y27886D01*
X19970Y27817D01*
X19960Y27742D01*
X19970Y27668D01*
X19999Y27599D01*
X20044Y27539D01*
X20104Y27493D01*
X20173Y27465D01*
X20248Y27455D01*
X20322Y27465D01*
X20391Y27493D01*
X20451Y27539D01*
X20497Y27599D01*
X20525Y27668D01*
X20535Y27742D01*
X20525Y27817D01*
X20497Y27886D01*
X20451Y27946D01*
X20391Y27991D01*
X20322Y28020D01*
X20248Y28030D01*
D02*
G37*
G36*
X18248D02*
X18173Y28020D01*
X18104Y27991D01*
X18044Y27946D01*
X17999Y27886D01*
X17970Y27817D01*
X17960Y27742D01*
X17970Y27668D01*
X17999Y27599D01*
X18044Y27539D01*
X18104Y27493D01*
X18173Y27465D01*
X18248Y27455D01*
X18322Y27465D01*
X18391Y27493D01*
X18451Y27539D01*
X18497Y27599D01*
X18525Y27668D01*
X18535Y27742D01*
X18525Y27817D01*
X18497Y27886D01*
X18451Y27946D01*
X18391Y27991D01*
X18322Y28020D01*
X18248Y28030D01*
D02*
G37*
G36*
X19248D02*
X19173Y28020D01*
X19104Y27991D01*
X19044Y27946D01*
X18999Y27886D01*
X18970Y27817D01*
X18960Y27742D01*
X18970Y27668D01*
X18999Y27599D01*
X19044Y27539D01*
X19104Y27493D01*
X19173Y27465D01*
X19248Y27455D01*
X19322Y27465D01*
X19391Y27493D01*
X19451Y27539D01*
X19497Y27599D01*
X19525Y27668D01*
X19535Y27742D01*
X19525Y27817D01*
X19497Y27886D01*
X19451Y27946D01*
X19391Y27991D01*
X19322Y28020D01*
X19248Y28030D01*
D02*
G37*
G36*
X27350Y27900D02*
X27155D01*
X27164Y27852D01*
X27220Y27770D01*
X27302Y27715D01*
X27350Y27705D01*
Y27900D01*
D02*
G37*
G36*
X14198Y28064D02*
X14163Y28059D01*
X14084Y28026D01*
X14016Y27974D01*
X13964Y27906D01*
X13931Y27827D01*
X13926Y27792D01*
X14198D01*
Y28064D01*
D02*
G37*
G36*
X25248Y28030D02*
X25173Y28020D01*
X25104Y27991D01*
X25044Y27946D01*
X24999Y27886D01*
X24970Y27817D01*
X24960Y27742D01*
X24970Y27668D01*
X24999Y27599D01*
X25044Y27539D01*
X25104Y27493D01*
X25173Y27465D01*
X25248Y27455D01*
X25322Y27465D01*
X25391Y27493D01*
X25451Y27539D01*
X25497Y27599D01*
X25525Y27668D01*
X25535Y27742D01*
X25525Y27817D01*
X25497Y27886D01*
X25451Y27946D01*
X25391Y27991D01*
X25322Y28020D01*
X25248Y28030D01*
D02*
G37*
G36*
X23248D02*
X23173Y28020D01*
X23104Y27991D01*
X23044Y27946D01*
X22999Y27886D01*
X22970Y27817D01*
X22960Y27742D01*
X22970Y27668D01*
X22999Y27599D01*
X23044Y27539D01*
X23104Y27493D01*
X23173Y27465D01*
X23248Y27455D01*
X23322Y27465D01*
X23391Y27493D01*
X23451Y27539D01*
X23497Y27599D01*
X23525Y27668D01*
X23535Y27742D01*
X23525Y27817D01*
X23497Y27886D01*
X23451Y27946D01*
X23391Y27991D01*
X23322Y28020D01*
X23248Y28030D01*
D02*
G37*
G36*
X24248D02*
X24173Y28020D01*
X24104Y27991D01*
X24044Y27946D01*
X23999Y27886D01*
X23970Y27817D01*
X23960Y27742D01*
X23970Y27668D01*
X23999Y27599D01*
X24044Y27539D01*
X24104Y27493D01*
X24173Y27465D01*
X24248Y27455D01*
X24322Y27465D01*
X24391Y27493D01*
X24451Y27539D01*
X24497Y27599D01*
X24525Y27668D01*
X24535Y27742D01*
X24525Y27817D01*
X24497Y27886D01*
X24451Y27946D01*
X24391Y27991D01*
X24322Y28020D01*
X24248Y28030D01*
D02*
G37*
G36*
X24748Y27530D02*
X24673Y27520D01*
X24604Y27491D01*
X24544Y27446D01*
X24499Y27386D01*
X24470Y27317D01*
X24460Y27242D01*
X24470Y27168D01*
X24499Y27099D01*
X24544Y27039D01*
X24604Y26993D01*
X24673Y26965D01*
X24748Y26955D01*
X24822Y26965D01*
X24891Y26993D01*
X24951Y27039D01*
X24997Y27099D01*
X25025Y27168D01*
X25035Y27242D01*
X25025Y27317D01*
X24997Y27386D01*
X24951Y27446D01*
X24891Y27491D01*
X24822Y27520D01*
X24748Y27530D01*
D02*
G37*
G36*
X17748D02*
X17673Y27520D01*
X17604Y27491D01*
X17544Y27446D01*
X17499Y27386D01*
X17470Y27317D01*
X17460Y27242D01*
X17470Y27168D01*
X17499Y27099D01*
X17544Y27039D01*
X17604Y26993D01*
X17673Y26965D01*
X17748Y26955D01*
X17822Y26965D01*
X17891Y26993D01*
X17951Y27039D01*
X17997Y27099D01*
X18025Y27168D01*
X18035Y27242D01*
X18025Y27317D01*
X17997Y27386D01*
X17951Y27446D01*
X17891Y27491D01*
X17822Y27520D01*
X17748Y27530D01*
D02*
G37*
G36*
X18748D02*
X18673Y27520D01*
X18604Y27491D01*
X18544Y27446D01*
X18499Y27386D01*
X18470Y27317D01*
X18460Y27242D01*
X18470Y27168D01*
X18499Y27099D01*
X18544Y27039D01*
X18604Y26993D01*
X18673Y26965D01*
X18748Y26955D01*
X18822Y26965D01*
X18891Y26993D01*
X18951Y27039D01*
X18997Y27099D01*
X19025Y27168D01*
X19035Y27242D01*
X19025Y27317D01*
X18997Y27386D01*
X18951Y27446D01*
X18891Y27491D01*
X18822Y27520D01*
X18748Y27530D01*
D02*
G37*
G36*
X17069Y27192D02*
X16798D01*
Y26921D01*
X16833Y26926D01*
X16912Y26959D01*
X16979Y27011D01*
X17032Y27078D01*
X17064Y27158D01*
X17069Y27192D01*
D02*
G37*
G36*
X16198Y27064D02*
X16163Y27059D01*
X16084Y27026D01*
X16016Y26974D01*
X15964Y26906D01*
X15931Y26827D01*
X15926Y26792D01*
X16198D01*
Y27064D01*
D02*
G37*
G36*
X16298D02*
Y26792D01*
X16569D01*
X16564Y26827D01*
X16532Y26906D01*
X16479Y26974D01*
X16412Y27026D01*
X16333Y27059D01*
X16298Y27064D01*
D02*
G37*
G36*
X22748Y27530D02*
X22673Y27520D01*
X22604Y27491D01*
X22544Y27446D01*
X22499Y27386D01*
X22470Y27317D01*
X22460Y27242D01*
X22470Y27168D01*
X22499Y27099D01*
X22544Y27039D01*
X22604Y26993D01*
X22673Y26965D01*
X22748Y26955D01*
X22822Y26965D01*
X22891Y26993D01*
X22951Y27039D01*
X22997Y27099D01*
X23025Y27168D01*
X23035Y27242D01*
X23025Y27317D01*
X22997Y27386D01*
X22951Y27446D01*
X22891Y27491D01*
X22822Y27520D01*
X22748Y27530D01*
D02*
G37*
G36*
X23748D02*
X23673Y27520D01*
X23604Y27491D01*
X23544Y27446D01*
X23499Y27386D01*
X23470Y27317D01*
X23460Y27242D01*
X23470Y27168D01*
X23499Y27099D01*
X23544Y27039D01*
X23604Y26993D01*
X23673Y26965D01*
X23748Y26955D01*
X23822Y26965D01*
X23891Y26993D01*
X23951Y27039D01*
X23997Y27099D01*
X24025Y27168D01*
X24035Y27242D01*
X24025Y27317D01*
X23997Y27386D01*
X23951Y27446D01*
X23891Y27491D01*
X23822Y27520D01*
X23748Y27530D01*
D02*
G37*
G36*
X21748D02*
X21673Y27520D01*
X21604Y27491D01*
X21544Y27446D01*
X21499Y27386D01*
X21470Y27317D01*
X21460Y27242D01*
X21470Y27168D01*
X21499Y27099D01*
X21544Y27039D01*
X21604Y26993D01*
X21673Y26965D01*
X21748Y26955D01*
X21822Y26965D01*
X21891Y26993D01*
X21951Y27039D01*
X21997Y27099D01*
X22025Y27168D01*
X22035Y27242D01*
X22025Y27317D01*
X21997Y27386D01*
X21951Y27446D01*
X21891Y27491D01*
X21822Y27520D01*
X21748Y27530D01*
D02*
G37*
G36*
X19748D02*
X19673Y27520D01*
X19604Y27491D01*
X19544Y27446D01*
X19499Y27386D01*
X19470Y27317D01*
X19460Y27242D01*
X19470Y27168D01*
X19499Y27099D01*
X19544Y27039D01*
X19604Y26993D01*
X19673Y26965D01*
X19748Y26955D01*
X19822Y26965D01*
X19891Y26993D01*
X19951Y27039D01*
X19997Y27099D01*
X20025Y27168D01*
X20035Y27242D01*
X20025Y27317D01*
X19997Y27386D01*
X19951Y27446D01*
X19891Y27491D01*
X19822Y27520D01*
X19748Y27530D01*
D02*
G37*
G36*
X20748D02*
X20673Y27520D01*
X20604Y27491D01*
X20544Y27446D01*
X20499Y27386D01*
X20470Y27317D01*
X20460Y27242D01*
X20470Y27168D01*
X20499Y27099D01*
X20544Y27039D01*
X20604Y26993D01*
X20673Y26965D01*
X20748Y26955D01*
X20822Y26965D01*
X20891Y26993D01*
X20951Y27039D01*
X20997Y27099D01*
X21025Y27168D01*
X21035Y27242D01*
X21025Y27317D01*
X20997Y27386D01*
X20951Y27446D01*
X20891Y27491D01*
X20822Y27520D01*
X20748Y27530D01*
D02*
G37*
G36*
X13748Y28530D02*
X13673Y28520D01*
X13604Y28491D01*
X13544Y28446D01*
X13499Y28386D01*
X13470Y28317D01*
X13460Y28242D01*
X13470Y28168D01*
X13499Y28099D01*
X13544Y28039D01*
X13604Y27993D01*
X13673Y27965D01*
X13748Y27955D01*
X13822Y27965D01*
X13891Y27993D01*
X13951Y28039D01*
X13997Y28099D01*
X14025Y28168D01*
X14035Y28242D01*
X14025Y28317D01*
X13997Y28386D01*
X13951Y28446D01*
X13891Y28491D01*
X13822Y28520D01*
X13748Y28530D01*
D02*
G37*
G36*
X24248Y29030D02*
X24173Y29020D01*
X24104Y28991D01*
X24044Y28946D01*
X23999Y28886D01*
X23970Y28817D01*
X23960Y28742D01*
X23970Y28668D01*
X23999Y28599D01*
X24044Y28539D01*
X24104Y28493D01*
X24173Y28465D01*
X24248Y28455D01*
X24322Y28465D01*
X24391Y28493D01*
X24451Y28539D01*
X24497Y28599D01*
X24525Y28668D01*
X24535Y28742D01*
X24525Y28817D01*
X24497Y28886D01*
X24451Y28946D01*
X24391Y28991D01*
X24322Y29020D01*
X24248Y29030D01*
D02*
G37*
G36*
X25248D02*
X25173Y29020D01*
X25104Y28991D01*
X25044Y28946D01*
X24999Y28886D01*
X24970Y28817D01*
X24960Y28742D01*
X24970Y28668D01*
X24999Y28599D01*
X25044Y28539D01*
X25104Y28493D01*
X25173Y28465D01*
X25248Y28455D01*
X25322Y28465D01*
X25391Y28493D01*
X25451Y28539D01*
X25497Y28599D01*
X25525Y28668D01*
X25535Y28742D01*
X25525Y28817D01*
X25497Y28886D01*
X25451Y28946D01*
X25391Y28991D01*
X25322Y29020D01*
X25248Y29030D01*
D02*
G37*
G36*
X14248D02*
X14173Y29020D01*
X14104Y28991D01*
X14044Y28946D01*
X13999Y28886D01*
X13970Y28817D01*
X13960Y28742D01*
X13970Y28668D01*
X13999Y28599D01*
X14044Y28539D01*
X14104Y28493D01*
X14173Y28465D01*
X14248Y28455D01*
X14322Y28465D01*
X14391Y28493D01*
X14451Y28539D01*
X14497Y28599D01*
X14525Y28668D01*
X14535Y28742D01*
X14525Y28817D01*
X14497Y28886D01*
X14451Y28946D01*
X14391Y28991D01*
X14322Y29020D01*
X14248Y29030D01*
D02*
G37*
G36*
X33200Y28400D02*
X32683D01*
X32690Y28365D01*
X32738Y28293D01*
X32811Y28245D01*
X32896Y28228D01*
X33200D01*
Y28400D01*
D02*
G37*
G36*
X33817D02*
X33300D01*
Y28228D01*
X33604D01*
X33689Y28245D01*
X33762Y28293D01*
X33810Y28365D01*
X33817Y28400D01*
D02*
G37*
G36*
X35800Y28695D02*
Y28500D01*
X35995D01*
X35986Y28548D01*
X35930Y28630D01*
X35848Y28686D01*
X35800Y28695D01*
D02*
G37*
G36*
X14748Y29530D02*
X14673Y29520D01*
X14604Y29491D01*
X14544Y29446D01*
X14499Y29386D01*
X14470Y29317D01*
X14460Y29242D01*
X14470Y29168D01*
X14499Y29099D01*
X14544Y29039D01*
X14604Y28993D01*
X14673Y28965D01*
X14748Y28955D01*
X14822Y28965D01*
X14891Y28993D01*
X14951Y29039D01*
X14997Y29099D01*
X15025Y29168D01*
X15035Y29242D01*
X15025Y29317D01*
X14997Y29386D01*
X14951Y29446D01*
X14891Y29491D01*
X14822Y29520D01*
X14748Y29530D01*
D02*
G37*
G36*
X35700Y28695D02*
X35652Y28686D01*
X35570Y28630D01*
X35515Y28548D01*
X35505Y28500D01*
X35700D01*
Y28695D01*
D02*
G37*
G36*
X33200Y28672D02*
X32896D01*
X32811Y28655D01*
X32738Y28607D01*
X32690Y28535D01*
X32683Y28500D01*
X33200D01*
Y28672D01*
D02*
G37*
G36*
X33604D02*
X33300D01*
Y28500D01*
X33817D01*
X33810Y28535D01*
X33762Y28607D01*
X33689Y28655D01*
X33604Y28672D01*
D02*
G37*
G36*
X35995Y28400D02*
X35800D01*
Y28205D01*
X35848Y28214D01*
X35930Y28270D01*
X35986Y28352D01*
X35995Y28400D01*
D02*
G37*
G36*
X20748Y28530D02*
X20673Y28520D01*
X20604Y28491D01*
X20544Y28446D01*
X20499Y28386D01*
X20470Y28317D01*
X20460Y28242D01*
X20470Y28168D01*
X20499Y28099D01*
X20544Y28039D01*
X20604Y27993D01*
X20673Y27965D01*
X20748Y27955D01*
X20822Y27965D01*
X20891Y27993D01*
X20951Y28039D01*
X20997Y28099D01*
X21025Y28168D01*
X21035Y28242D01*
X21025Y28317D01*
X20997Y28386D01*
X20951Y28446D01*
X20891Y28491D01*
X20822Y28520D01*
X20748Y28530D01*
D02*
G37*
G36*
X21748D02*
X21673Y28520D01*
X21604Y28491D01*
X21544Y28446D01*
X21499Y28386D01*
X21470Y28317D01*
X21460Y28242D01*
X21470Y28168D01*
X21499Y28099D01*
X21544Y28039D01*
X21604Y27993D01*
X21673Y27965D01*
X21748Y27955D01*
X21822Y27965D01*
X21891Y27993D01*
X21951Y28039D01*
X21997Y28099D01*
X22025Y28168D01*
X22035Y28242D01*
X22025Y28317D01*
X21997Y28386D01*
X21951Y28446D01*
X21891Y28491D01*
X21822Y28520D01*
X21748Y28530D01*
D02*
G37*
G36*
X19748D02*
X19673Y28520D01*
X19604Y28491D01*
X19544Y28446D01*
X19499Y28386D01*
X19470Y28317D01*
X19460Y28242D01*
X19470Y28168D01*
X19499Y28099D01*
X19544Y28039D01*
X19604Y27993D01*
X19673Y27965D01*
X19748Y27955D01*
X19822Y27965D01*
X19891Y27993D01*
X19951Y28039D01*
X19997Y28099D01*
X20025Y28168D01*
X20035Y28242D01*
X20025Y28317D01*
X19997Y28386D01*
X19951Y28446D01*
X19891Y28491D01*
X19822Y28520D01*
X19748Y28530D01*
D02*
G37*
G36*
X17748D02*
X17673Y28520D01*
X17604Y28491D01*
X17544Y28446D01*
X17499Y28386D01*
X17470Y28317D01*
X17460Y28242D01*
X17470Y28168D01*
X17499Y28099D01*
X17544Y28039D01*
X17604Y27993D01*
X17673Y27965D01*
X17748Y27955D01*
X17822Y27965D01*
X17891Y27993D01*
X17951Y28039D01*
X17997Y28099D01*
X18025Y28168D01*
X18035Y28242D01*
X18025Y28317D01*
X17997Y28386D01*
X17951Y28446D01*
X17891Y28491D01*
X17822Y28520D01*
X17748Y28530D01*
D02*
G37*
G36*
X18748D02*
X18673Y28520D01*
X18604Y28491D01*
X18544Y28446D01*
X18499Y28386D01*
X18470Y28317D01*
X18460Y28242D01*
X18470Y28168D01*
X18499Y28099D01*
X18544Y28039D01*
X18604Y27993D01*
X18673Y27965D01*
X18748Y27955D01*
X18822Y27965D01*
X18891Y27993D01*
X18951Y28039D01*
X18997Y28099D01*
X19025Y28168D01*
X19035Y28242D01*
X19025Y28317D01*
X18997Y28386D01*
X18951Y28446D01*
X18891Y28491D01*
X18822Y28520D01*
X18748Y28530D01*
D02*
G37*
G36*
X25748D02*
X25673Y28520D01*
X25604Y28491D01*
X25544Y28446D01*
X25499Y28386D01*
X25470Y28317D01*
X25460Y28242D01*
X25470Y28168D01*
X25499Y28099D01*
X25544Y28039D01*
X25604Y27993D01*
X25673Y27965D01*
X25748Y27955D01*
X25822Y27965D01*
X25891Y27993D01*
X25951Y28039D01*
X25997Y28099D01*
X26025Y28168D01*
X26035Y28242D01*
X26025Y28317D01*
X25997Y28386D01*
X25951Y28446D01*
X25891Y28491D01*
X25822Y28520D01*
X25748Y28530D01*
D02*
G37*
G36*
X35700Y28400D02*
X35505D01*
X35515Y28352D01*
X35570Y28270D01*
X35652Y28214D01*
X35700Y28205D01*
Y28400D01*
D02*
G37*
G36*
X24748Y28530D02*
X24673Y28520D01*
X24604Y28491D01*
X24544Y28446D01*
X24499Y28386D01*
X24470Y28317D01*
X24460Y28242D01*
X24470Y28168D01*
X24499Y28099D01*
X24544Y28039D01*
X24604Y27993D01*
X24673Y27965D01*
X24748Y27955D01*
X24822Y27965D01*
X24891Y27993D01*
X24951Y28039D01*
X24997Y28099D01*
X25025Y28168D01*
X25035Y28242D01*
X25025Y28317D01*
X24997Y28386D01*
X24951Y28446D01*
X24891Y28491D01*
X24822Y28520D01*
X24748Y28530D01*
D02*
G37*
G36*
X22748D02*
X22673Y28520D01*
X22604Y28491D01*
X22544Y28446D01*
X22499Y28386D01*
X22470Y28317D01*
X22460Y28242D01*
X22470Y28168D01*
X22499Y28099D01*
X22544Y28039D01*
X22604Y27993D01*
X22673Y27965D01*
X22748Y27955D01*
X22822Y27965D01*
X22891Y27993D01*
X22951Y28039D01*
X22997Y28099D01*
X23025Y28168D01*
X23035Y28242D01*
X23025Y28317D01*
X22997Y28386D01*
X22951Y28446D01*
X22891Y28491D01*
X22822Y28520D01*
X22748Y28530D01*
D02*
G37*
G36*
X23748D02*
X23673Y28520D01*
X23604Y28491D01*
X23544Y28446D01*
X23499Y28386D01*
X23470Y28317D01*
X23460Y28242D01*
X23470Y28168D01*
X23499Y28099D01*
X23544Y28039D01*
X23604Y27993D01*
X23673Y27965D01*
X23748Y27955D01*
X23822Y27965D01*
X23891Y27993D01*
X23951Y28039D01*
X23997Y28099D01*
X24025Y28168D01*
X24035Y28242D01*
X24025Y28317D01*
X23997Y28386D01*
X23951Y28446D01*
X23891Y28491D01*
X23822Y28520D01*
X23748Y28530D01*
D02*
G37*
G36*
X20748Y38530D02*
X20673Y38520D01*
X20604Y38491D01*
X20544Y38446D01*
X20499Y38386D01*
X20470Y38317D01*
X20460Y38242D01*
X20470Y38168D01*
X20499Y38099D01*
X20544Y38039D01*
X20604Y37993D01*
X20673Y37965D01*
X20748Y37955D01*
X20822Y37965D01*
X20891Y37993D01*
X20951Y38039D01*
X20997Y38099D01*
X21025Y38168D01*
X21035Y38242D01*
X21025Y38317D01*
X20997Y38386D01*
X20951Y38446D01*
X20891Y38491D01*
X20822Y38520D01*
X20748Y38530D01*
D02*
G37*
G36*
X21748D02*
X21673Y38520D01*
X21604Y38491D01*
X21544Y38446D01*
X21499Y38386D01*
X21470Y38317D01*
X21460Y38242D01*
X21470Y38168D01*
X21499Y38099D01*
X21544Y38039D01*
X21604Y37993D01*
X21673Y37965D01*
X21748Y37955D01*
X21822Y37965D01*
X21891Y37993D01*
X21951Y38039D01*
X21997Y38099D01*
X22025Y38168D01*
X22035Y38242D01*
X22025Y38317D01*
X21997Y38386D01*
X21951Y38446D01*
X21891Y38491D01*
X21822Y38520D01*
X21748Y38530D01*
D02*
G37*
G36*
X19748D02*
X19673Y38520D01*
X19604Y38491D01*
X19544Y38446D01*
X19499Y38386D01*
X19470Y38317D01*
X19460Y38242D01*
X19470Y38168D01*
X19499Y38099D01*
X19544Y38039D01*
X19604Y37993D01*
X19673Y37965D01*
X19748Y37955D01*
X19822Y37965D01*
X19891Y37993D01*
X19951Y38039D01*
X19997Y38099D01*
X20025Y38168D01*
X20035Y38242D01*
X20025Y38317D01*
X19997Y38386D01*
X19951Y38446D01*
X19891Y38491D01*
X19822Y38520D01*
X19748Y38530D01*
D02*
G37*
G36*
X17748D02*
X17673Y38520D01*
X17604Y38491D01*
X17544Y38446D01*
X17499Y38386D01*
X17470Y38317D01*
X17460Y38242D01*
X17470Y38168D01*
X17499Y38099D01*
X17544Y38039D01*
X17604Y37993D01*
X17673Y37965D01*
X17748Y37955D01*
X17822Y37965D01*
X17891Y37993D01*
X17951Y38039D01*
X17997Y38099D01*
X18025Y38168D01*
X18035Y38242D01*
X18025Y38317D01*
X17997Y38386D01*
X17951Y38446D01*
X17891Y38491D01*
X17822Y38520D01*
X17748Y38530D01*
D02*
G37*
G36*
X18748D02*
X18673Y38520D01*
X18604Y38491D01*
X18544Y38446D01*
X18499Y38386D01*
X18470Y38317D01*
X18460Y38242D01*
X18470Y38168D01*
X18499Y38099D01*
X18544Y38039D01*
X18604Y37993D01*
X18673Y37965D01*
X18748Y37955D01*
X18822Y37965D01*
X18891Y37993D01*
X18951Y38039D01*
X18997Y38099D01*
X19025Y38168D01*
X19035Y38242D01*
X19025Y38317D01*
X18997Y38386D01*
X18951Y38446D01*
X18891Y38491D01*
X18822Y38520D01*
X18748Y38530D01*
D02*
G37*
G36*
X35800Y38195D02*
Y38000D01*
X35995D01*
X35986Y38048D01*
X35930Y38130D01*
X35848Y38186D01*
X35800Y38195D01*
D02*
G37*
G36*
X14248Y39030D02*
X14173Y39020D01*
X14104Y38991D01*
X14044Y38946D01*
X13999Y38886D01*
X13970Y38817D01*
X13960Y38742D01*
X13970Y38668D01*
X13999Y38599D01*
X14044Y38539D01*
X14104Y38493D01*
X14173Y38465D01*
X14248Y38455D01*
X14322Y38465D01*
X14391Y38493D01*
X14451Y38539D01*
X14497Y38599D01*
X14525Y38668D01*
X14535Y38742D01*
X14525Y38817D01*
X14497Y38886D01*
X14451Y38946D01*
X14391Y38991D01*
X14322Y39020D01*
X14248Y39030D01*
D02*
G37*
G36*
X35700Y38195D02*
X35652Y38186D01*
X35570Y38130D01*
X35515Y38048D01*
X35505Y38000D01*
X35700D01*
Y38195D01*
D02*
G37*
G36*
X33150Y38172D02*
X32846D01*
X32761Y38155D01*
X32688Y38107D01*
X32640Y38035D01*
X32633Y38000D01*
X33150D01*
Y38172D01*
D02*
G37*
G36*
X33554D02*
X33250D01*
Y38000D01*
X33767D01*
X33760Y38035D01*
X33712Y38107D01*
X33639Y38155D01*
X33554Y38172D01*
D02*
G37*
G36*
X16748Y38530D02*
X16673Y38520D01*
X16604Y38491D01*
X16544Y38446D01*
X16499Y38386D01*
X16470Y38317D01*
X16460Y38242D01*
X16470Y38168D01*
X16499Y38099D01*
X16544Y38039D01*
X16604Y37993D01*
X16673Y37965D01*
X16748Y37955D01*
X16822Y37965D01*
X16891Y37993D01*
X16951Y38039D01*
X16997Y38099D01*
X17025Y38168D01*
X17035Y38242D01*
X17025Y38317D01*
X16997Y38386D01*
X16951Y38446D01*
X16891Y38491D01*
X16822Y38520D01*
X16748Y38530D01*
D02*
G37*
G36*
X35700Y37900D02*
X35505D01*
X35515Y37852D01*
X35570Y37770D01*
X35652Y37715D01*
X35700Y37705D01*
Y37900D01*
D02*
G37*
G36*
X35995D02*
X35800D01*
Y37705D01*
X35848Y37715D01*
X35930Y37770D01*
X35986Y37852D01*
X35995Y37900D01*
D02*
G37*
G36*
X24248Y38030D02*
X24173Y38020D01*
X24104Y37991D01*
X24044Y37946D01*
X23999Y37886D01*
X23970Y37817D01*
X23960Y37742D01*
X23970Y37668D01*
X23999Y37599D01*
X24044Y37539D01*
X24104Y37493D01*
X24173Y37465D01*
X24248Y37455D01*
X24322Y37465D01*
X24391Y37493D01*
X24451Y37539D01*
X24497Y37599D01*
X24525Y37668D01*
X24535Y37742D01*
X24525Y37817D01*
X24497Y37886D01*
X24451Y37946D01*
X24391Y37991D01*
X24322Y38020D01*
X24248Y38030D01*
D02*
G37*
G36*
X22248D02*
X22173Y38020D01*
X22104Y37991D01*
X22044Y37946D01*
X21999Y37886D01*
X21970Y37817D01*
X21960Y37742D01*
X21970Y37668D01*
X21999Y37599D01*
X22044Y37539D01*
X22104Y37493D01*
X22173Y37465D01*
X22248Y37455D01*
X22322Y37465D01*
X22391Y37493D01*
X22451Y37539D01*
X22497Y37599D01*
X22525Y37668D01*
X22535Y37742D01*
X22525Y37817D01*
X22497Y37886D01*
X22451Y37946D01*
X22391Y37991D01*
X22322Y38020D01*
X22248Y38030D01*
D02*
G37*
G36*
X23248D02*
X23173Y38020D01*
X23104Y37991D01*
X23044Y37946D01*
X22999Y37886D01*
X22970Y37817D01*
X22960Y37742D01*
X22970Y37668D01*
X22999Y37599D01*
X23044Y37539D01*
X23104Y37493D01*
X23173Y37465D01*
X23248Y37455D01*
X23322Y37465D01*
X23391Y37493D01*
X23451Y37539D01*
X23497Y37599D01*
X23525Y37668D01*
X23535Y37742D01*
X23525Y37817D01*
X23497Y37886D01*
X23451Y37946D01*
X23391Y37991D01*
X23322Y38020D01*
X23248Y38030D01*
D02*
G37*
G36*
X14748Y38530D02*
X14673Y38520D01*
X14604Y38491D01*
X14544Y38446D01*
X14499Y38386D01*
X14470Y38317D01*
X14460Y38242D01*
X14470Y38168D01*
X14499Y38099D01*
X14544Y38039D01*
X14604Y37993D01*
X14673Y37965D01*
X14748Y37955D01*
X14822Y37965D01*
X14891Y37993D01*
X14951Y38039D01*
X14997Y38099D01*
X15025Y38168D01*
X15035Y38242D01*
X15025Y38317D01*
X14997Y38386D01*
X14951Y38446D01*
X14891Y38491D01*
X14822Y38520D01*
X14748Y38530D01*
D02*
G37*
G36*
X15748D02*
X15673Y38520D01*
X15604Y38491D01*
X15544Y38446D01*
X15499Y38386D01*
X15470Y38317D01*
X15460Y38242D01*
X15470Y38168D01*
X15499Y38099D01*
X15544Y38039D01*
X15604Y37993D01*
X15673Y37965D01*
X15748Y37955D01*
X15822Y37965D01*
X15891Y37993D01*
X15951Y38039D01*
X15997Y38099D01*
X16025Y38168D01*
X16035Y38242D01*
X16025Y38317D01*
X15997Y38386D01*
X15951Y38446D01*
X15891Y38491D01*
X15822Y38520D01*
X15748Y38530D01*
D02*
G37*
G36*
X13748D02*
X13673Y38520D01*
X13604Y38491D01*
X13544Y38446D01*
X13499Y38386D01*
X13470Y38317D01*
X13460Y38242D01*
X13470Y38168D01*
X13499Y38099D01*
X13544Y38039D01*
X13604Y37993D01*
X13673Y37965D01*
X13748Y37955D01*
X13822Y37965D01*
X13891Y37993D01*
X13951Y38039D01*
X13997Y38099D01*
X14025Y38168D01*
X14035Y38242D01*
X14025Y38317D01*
X13997Y38386D01*
X13951Y38446D01*
X13891Y38491D01*
X13822Y38520D01*
X13748Y38530D01*
D02*
G37*
G36*
X33150Y37900D02*
X32633D01*
X32640Y37865D01*
X32688Y37793D01*
X32761Y37745D01*
X32846Y37728D01*
X33150D01*
Y37900D01*
D02*
G37*
G36*
X33767D02*
X33250D01*
Y37728D01*
X33554D01*
X33639Y37745D01*
X33712Y37793D01*
X33760Y37865D01*
X33767Y37900D01*
D02*
G37*
G36*
X15248Y39030D02*
X15173Y39020D01*
X15104Y38991D01*
X15044Y38946D01*
X14999Y38886D01*
X14970Y38817D01*
X14960Y38742D01*
X14970Y38668D01*
X14999Y38599D01*
X15044Y38539D01*
X15104Y38493D01*
X15173Y38465D01*
X15248Y38455D01*
X15322Y38465D01*
X15391Y38493D01*
X15451Y38539D01*
X15497Y38599D01*
X15525Y38668D01*
X15535Y38742D01*
X15525Y38817D01*
X15497Y38886D01*
X15451Y38946D01*
X15391Y38991D01*
X15322Y39020D01*
X15248Y39030D01*
D02*
G37*
G36*
X18748Y39530D02*
X18673Y39520D01*
X18604Y39491D01*
X18544Y39446D01*
X18499Y39386D01*
X18470Y39317D01*
X18460Y39242D01*
X18470Y39168D01*
X18499Y39099D01*
X18544Y39039D01*
X18604Y38993D01*
X18673Y38965D01*
X18748Y38955D01*
X18822Y38965D01*
X18891Y38993D01*
X18951Y39039D01*
X18997Y39099D01*
X19025Y39168D01*
X19035Y39242D01*
X19025Y39317D01*
X18997Y39386D01*
X18951Y39446D01*
X18891Y39491D01*
X18822Y39520D01*
X18748Y39530D01*
D02*
G37*
G36*
X19748D02*
X19673Y39520D01*
X19604Y39491D01*
X19544Y39446D01*
X19499Y39386D01*
X19470Y39317D01*
X19460Y39242D01*
X19470Y39168D01*
X19499Y39099D01*
X19544Y39039D01*
X19604Y38993D01*
X19673Y38965D01*
X19748Y38955D01*
X19822Y38965D01*
X19891Y38993D01*
X19951Y39039D01*
X19997Y39099D01*
X20025Y39168D01*
X20035Y39242D01*
X20025Y39317D01*
X19997Y39386D01*
X19951Y39446D01*
X19891Y39491D01*
X19822Y39520D01*
X19748Y39530D01*
D02*
G37*
G36*
X17748D02*
X17673Y39520D01*
X17604Y39491D01*
X17544Y39446D01*
X17499Y39386D01*
X17470Y39317D01*
X17460Y39242D01*
X17470Y39168D01*
X17499Y39099D01*
X17544Y39039D01*
X17604Y38993D01*
X17673Y38965D01*
X17748Y38955D01*
X17822Y38965D01*
X17891Y38993D01*
X17951Y39039D01*
X17997Y39099D01*
X18025Y39168D01*
X18035Y39242D01*
X18025Y39317D01*
X17997Y39386D01*
X17951Y39446D01*
X17891Y39491D01*
X17822Y39520D01*
X17748Y39530D01*
D02*
G37*
G36*
X15748D02*
X15673Y39520D01*
X15604Y39491D01*
X15544Y39446D01*
X15499Y39386D01*
X15470Y39317D01*
X15460Y39242D01*
X15470Y39168D01*
X15499Y39099D01*
X15544Y39039D01*
X15604Y38993D01*
X15673Y38965D01*
X15748Y38955D01*
X15822Y38965D01*
X15891Y38993D01*
X15951Y39039D01*
X15997Y39099D01*
X16025Y39168D01*
X16035Y39242D01*
X16025Y39317D01*
X15997Y39386D01*
X15951Y39446D01*
X15891Y39491D01*
X15822Y39520D01*
X15748Y39530D01*
D02*
G37*
G36*
X16748D02*
X16673Y39520D01*
X16604Y39491D01*
X16544Y39446D01*
X16499Y39386D01*
X16470Y39317D01*
X16460Y39242D01*
X16470Y39168D01*
X16499Y39099D01*
X16544Y39039D01*
X16604Y38993D01*
X16673Y38965D01*
X16748Y38955D01*
X16822Y38965D01*
X16891Y38993D01*
X16951Y39039D01*
X16997Y39099D01*
X17025Y39168D01*
X17035Y39242D01*
X17025Y39317D01*
X16997Y39386D01*
X16951Y39446D01*
X16891Y39491D01*
X16822Y39520D01*
X16748Y39530D01*
D02*
G37*
G36*
X32950Y39345D02*
Y39150D01*
X33145D01*
X33135Y39198D01*
X33080Y39280D01*
X32998Y39335D01*
X32950Y39345D01*
D02*
G37*
G36*
X23300Y40114D02*
X23218Y40098D01*
X23149Y40051D01*
X23102Y39982D01*
X23086Y39900D01*
X23102Y39818D01*
X23137Y39766D01*
Y39264D01*
X23081Y39208D01*
X23034Y39232D01*
X23035Y39242D01*
X23025Y39317D01*
X22997Y39386D01*
X22951Y39446D01*
X22891Y39491D01*
X22822Y39520D01*
X22748Y39530D01*
X22673Y39520D01*
X22604Y39491D01*
X22544Y39446D01*
X22499Y39386D01*
X22470Y39317D01*
X22460Y39242D01*
X22470Y39168D01*
X22499Y39099D01*
X22544Y39039D01*
X22604Y38993D01*
X22673Y38965D01*
X22748Y38955D01*
X22772Y38958D01*
X22785Y38946D01*
X22807Y38912D01*
X22801Y38881D01*
X22801Y38881D01*
Y38587D01*
X22801Y38587D01*
X22803Y38573D01*
X22765Y38528D01*
X22748Y38530D01*
X22673Y38520D01*
X22604Y38491D01*
X22544Y38446D01*
X22499Y38386D01*
X22470Y38317D01*
X22460Y38242D01*
X22470Y38168D01*
X22499Y38099D01*
X22544Y38039D01*
X22604Y37993D01*
X22673Y37965D01*
X22748Y37955D01*
X22822Y37965D01*
X22891Y37993D01*
X22951Y38039D01*
X22997Y38099D01*
X23025Y38168D01*
X23034Y38236D01*
X23070Y38259D01*
X23078Y38263D01*
X23178Y38163D01*
X23178Y38163D01*
X23215Y38139D01*
X23258Y38130D01*
X23486D01*
X23499Y38099D01*
X23544Y38039D01*
X23604Y37993D01*
X23673Y37965D01*
X23748Y37955D01*
X23822Y37965D01*
X23891Y37993D01*
X23951Y38039D01*
X23997Y38099D01*
X24025Y38168D01*
X24035Y38242D01*
X24025Y38317D01*
X23997Y38386D01*
X23951Y38446D01*
X23912Y38475D01*
Y38700D01*
X23912Y38700D01*
X23904Y38743D01*
X23879Y38779D01*
X23879Y38779D01*
X23753Y38906D01*
X23771Y38958D01*
X23822Y38965D01*
X23891Y38993D01*
X23951Y39039D01*
X23997Y39099D01*
X24025Y39168D01*
X24035Y39242D01*
X24025Y39317D01*
X24012Y39348D01*
X24352Y39688D01*
X25743D01*
X25762Y39642D01*
X25475Y39355D01*
X25010D01*
X24997Y39386D01*
X24951Y39446D01*
X24891Y39491D01*
X24822Y39520D01*
X24748Y39530D01*
X24673Y39520D01*
X24604Y39491D01*
X24544Y39446D01*
X24499Y39386D01*
X24470Y39317D01*
X24460Y39242D01*
X24470Y39168D01*
X24499Y39099D01*
X24544Y39039D01*
X24604Y38993D01*
X24673Y38965D01*
X24748Y38955D01*
X24822Y38965D01*
X24891Y38993D01*
X24951Y39039D01*
X24997Y39099D01*
X25010Y39130D01*
X25412D01*
X25431Y39084D01*
X24854Y38507D01*
X24822Y38520D01*
X24748Y38530D01*
X24673Y38520D01*
X24604Y38491D01*
X24544Y38446D01*
X24499Y38386D01*
X24470Y38317D01*
X24460Y38242D01*
X24470Y38168D01*
X24499Y38099D01*
X24544Y38039D01*
X24604Y37993D01*
X24673Y37965D01*
X24748Y37955D01*
X24822Y37965D01*
X24891Y37993D01*
X24951Y38039D01*
X24997Y38099D01*
X25025Y38168D01*
X25035Y38242D01*
X25025Y38317D01*
X25012Y38348D01*
X26032Y39368D01*
X26144D01*
X26163Y39322D01*
X25668Y38827D01*
X25644Y38791D01*
X25636Y38748D01*
X25636Y38748D01*
Y38504D01*
X25604Y38491D01*
X25544Y38446D01*
X25499Y38386D01*
X25470Y38317D01*
X25460Y38242D01*
X25470Y38168D01*
X25499Y38099D01*
X25544Y38039D01*
X25604Y37993D01*
X25673Y37965D01*
X25728Y37958D01*
X25749Y37907D01*
X25583Y37741D01*
X25533Y37762D01*
X25525Y37817D01*
X25497Y37886D01*
X25451Y37946D01*
X25391Y37991D01*
X25322Y38020D01*
X25248Y38030D01*
X25173Y38020D01*
X25104Y37991D01*
X25044Y37946D01*
X24999Y37886D01*
X24970Y37817D01*
X24960Y37742D01*
X24970Y37668D01*
X24999Y37599D01*
X25044Y37539D01*
X25104Y37493D01*
X25173Y37465D01*
X25228Y37458D01*
X25249Y37407D01*
X25196Y37355D01*
X25010D01*
X24997Y37386D01*
X24951Y37446D01*
X24891Y37491D01*
X24822Y37520D01*
X24748Y37530D01*
X24673Y37520D01*
X24604Y37491D01*
X24544Y37446D01*
X24499Y37386D01*
X24470Y37317D01*
X24460Y37242D01*
X24470Y37168D01*
X24499Y37099D01*
X24544Y37039D01*
X24604Y36993D01*
X24673Y36965D01*
X24748Y36955D01*
X24822Y36965D01*
X24891Y36993D01*
X24951Y37039D01*
X24997Y37099D01*
X25010Y37130D01*
X25242D01*
X25242Y37130D01*
X25285Y37139D01*
X25322Y37163D01*
X25417Y37258D01*
X25462Y37232D01*
X25470Y37168D01*
X25499Y37099D01*
X25544Y37039D01*
X25604Y36993D01*
X25673Y36965D01*
X25728Y36958D01*
X25749Y36907D01*
X25583Y36741D01*
X25533Y36762D01*
X25525Y36817D01*
X25497Y36886D01*
X25451Y36946D01*
X25391Y36991D01*
X25322Y37020D01*
X25248Y37030D01*
X25173Y37020D01*
X25104Y36991D01*
X25044Y36946D01*
X24999Y36886D01*
X24970Y36817D01*
X24960Y36742D01*
X24970Y36668D01*
X24999Y36599D01*
X25044Y36539D01*
X25104Y36493D01*
X25173Y36465D01*
X25228Y36458D01*
X25249Y36407D01*
X25196Y36355D01*
X25010D01*
X24997Y36386D01*
X24951Y36446D01*
X24891Y36491D01*
X24822Y36520D01*
X24748Y36530D01*
X24673Y36520D01*
X24604Y36491D01*
X24544Y36446D01*
X24499Y36386D01*
X24470Y36317D01*
X24460Y36242D01*
X24470Y36168D01*
X24499Y36099D01*
X24544Y36039D01*
X24604Y35993D01*
X24673Y35965D01*
X24748Y35955D01*
X24822Y35965D01*
X24891Y35993D01*
X24951Y36039D01*
X24997Y36099D01*
X25010Y36130D01*
X25242D01*
X25242Y36130D01*
X25285Y36139D01*
X25322Y36163D01*
X25417Y36258D01*
X25462Y36232D01*
X25470Y36168D01*
X25499Y36099D01*
X25544Y36039D01*
X25604Y35993D01*
X25673Y35965D01*
X25728Y35958D01*
X25749Y35907D01*
X25583Y35741D01*
X25533Y35762D01*
X25525Y35817D01*
X25497Y35886D01*
X25451Y35946D01*
X25391Y35991D01*
X25322Y36020D01*
X25248Y36030D01*
X25173Y36020D01*
X25104Y35991D01*
X25044Y35946D01*
X24999Y35886D01*
X24970Y35817D01*
X24960Y35742D01*
X24970Y35668D01*
X24999Y35599D01*
X25044Y35539D01*
X25104Y35493D01*
X25173Y35465D01*
X25228Y35458D01*
X25249Y35407D01*
X25196Y35355D01*
X25010D01*
X24997Y35386D01*
X24951Y35446D01*
X24891Y35491D01*
X24822Y35520D01*
X24748Y35530D01*
X24673Y35520D01*
X24604Y35491D01*
X24544Y35446D01*
X24499Y35386D01*
X24470Y35317D01*
X24460Y35242D01*
X24470Y35168D01*
X24499Y35099D01*
X24544Y35039D01*
X24604Y34993D01*
X24673Y34965D01*
X24748Y34955D01*
X24822Y34965D01*
X24891Y34993D01*
X24951Y35039D01*
X24997Y35099D01*
X25010Y35130D01*
X25242D01*
X25242Y35130D01*
X25285Y35139D01*
X25322Y35163D01*
X25417Y35258D01*
X25462Y35232D01*
X25470Y35168D01*
X25499Y35099D01*
X25544Y35039D01*
X25604Y34993D01*
X25673Y34965D01*
X25728Y34958D01*
X25749Y34907D01*
X25583Y34741D01*
X25533Y34762D01*
X25525Y34817D01*
X25497Y34886D01*
X25451Y34946D01*
X25391Y34991D01*
X25322Y35020D01*
X25248Y35030D01*
X25173Y35020D01*
X25104Y34991D01*
X25044Y34946D01*
X24999Y34886D01*
X24970Y34817D01*
X24960Y34742D01*
X24970Y34668D01*
X24999Y34599D01*
X25044Y34539D01*
X25104Y34493D01*
X25173Y34465D01*
X25228Y34458D01*
X25249Y34407D01*
X25196Y34355D01*
X25010D01*
X24997Y34386D01*
X24951Y34446D01*
X24891Y34491D01*
X24822Y34520D01*
X24748Y34530D01*
X24673Y34520D01*
X24604Y34491D01*
X24544Y34446D01*
X24499Y34386D01*
X24470Y34317D01*
X24460Y34242D01*
X24470Y34168D01*
X24499Y34099D01*
X24544Y34039D01*
X24604Y33993D01*
X24673Y33965D01*
X24748Y33955D01*
X24822Y33965D01*
X24891Y33993D01*
X24951Y34039D01*
X24997Y34099D01*
X25010Y34130D01*
X25242D01*
X25242Y34130D01*
X25285Y34139D01*
X25322Y34163D01*
X25417Y34258D01*
X25462Y34232D01*
X25470Y34168D01*
X25499Y34099D01*
X25544Y34039D01*
X25604Y33993D01*
X25673Y33965D01*
X25748Y33955D01*
X25822Y33965D01*
X25891Y33993D01*
X25951Y34039D01*
X25997Y34099D01*
X26025Y34168D01*
X26035Y34242D01*
X26025Y34317D01*
X26012Y34348D01*
X26439Y34775D01*
X26464Y34812D01*
X26472Y34855D01*
X26472Y34855D01*
Y35611D01*
X26899Y36038D01*
X28354D01*
X28521Y35871D01*
X28521Y35871D01*
X28557Y35846D01*
X28600Y35838D01*
X28600Y35838D01*
X28706D01*
X28717Y35822D01*
X28776Y35782D01*
X28846Y35768D01*
X29554D01*
X29624Y35782D01*
X29683Y35822D01*
X29722Y35880D01*
X29736Y35950D01*
X29722Y36019D01*
X29683Y36078D01*
X29624Y36118D01*
X29554Y36132D01*
X28846D01*
X28776Y36118D01*
X28717Y36078D01*
X28706Y36062D01*
X28646D01*
X28479Y36229D01*
X28443Y36254D01*
X28400Y36262D01*
X28400Y36262D01*
X26977D01*
X26956Y36310D01*
X26979Y36338D01*
X28706D01*
X28717Y36322D01*
X28776Y36282D01*
X28846Y36268D01*
X29554D01*
X29624Y36282D01*
X29683Y36322D01*
X29722Y36381D01*
X29736Y36450D01*
X29722Y36519D01*
X29683Y36578D01*
X29624Y36618D01*
X29554Y36632D01*
X28846D01*
X28776Y36618D01*
X28717Y36578D01*
X28706Y36562D01*
X27036D01*
X27017Y36608D01*
X27246Y36838D01*
X28706D01*
X28717Y36822D01*
X28776Y36782D01*
X28846Y36768D01*
X29554D01*
X29624Y36782D01*
X29683Y36822D01*
X29722Y36881D01*
X29736Y36950D01*
X29722Y37020D01*
X29683Y37078D01*
X29624Y37118D01*
X29554Y37132D01*
X28846D01*
X28776Y37118D01*
X28717Y37078D01*
X28706Y37062D01*
X27286D01*
X27267Y37108D01*
X27496Y37338D01*
X28706D01*
X28717Y37322D01*
X28776Y37282D01*
X28846Y37268D01*
X29554D01*
X29624Y37282D01*
X29683Y37322D01*
X29722Y37380D01*
X29736Y37450D01*
X29722Y37520D01*
X29683Y37578D01*
X29624Y37618D01*
X29554Y37632D01*
X28846D01*
X28776Y37618D01*
X28717Y37578D01*
X28706Y37562D01*
X28369D01*
X28351Y37605D01*
X28351Y37612D01*
Y37787D01*
X28668D01*
Y37772D01*
X29732D01*
Y38128D01*
X28668D01*
Y38113D01*
X28351D01*
Y38295D01*
X27741D01*
Y38335D01*
X27425D01*
Y37950D01*
X27325D01*
Y38335D01*
X27009D01*
Y38232D01*
X27000Y38225D01*
Y37950D01*
Y37675D01*
X27009Y37668D01*
Y37565D01*
X27335D01*
X27356Y37515D01*
X26083Y36241D01*
X26033Y36262D01*
X26025Y36317D01*
X26012Y36348D01*
X26659Y36995D01*
X26684Y37032D01*
X26692Y37075D01*
X26692Y37075D01*
Y37796D01*
X26742Y37811D01*
X26770Y37770D01*
X26852Y37715D01*
X26900Y37705D01*
Y37950D01*
Y38195D01*
X26852Y38185D01*
X26770Y38130D01*
X26742Y38089D01*
X26692Y38104D01*
Y38355D01*
X26905Y38568D01*
X29974D01*
X30608Y37934D01*
Y34980D01*
X30608Y34980D01*
X30616Y34937D01*
X30641Y34901D01*
X32171Y33371D01*
X32171Y33371D01*
X32207Y33346D01*
X32250Y33338D01*
X32250Y33338D01*
X32756D01*
X32767Y33322D01*
X32826Y33282D01*
X32896Y33268D01*
X33604D01*
X33674Y33282D01*
X33733Y33322D01*
X33772Y33380D01*
X33786Y33450D01*
X33772Y33519D01*
X33733Y33578D01*
X33674Y33618D01*
X33604Y33632D01*
X32896D01*
X32826Y33618D01*
X32767Y33578D01*
X32756Y33562D01*
X32296D01*
X30832Y35026D01*
Y35144D01*
X30878Y35163D01*
X32171Y33871D01*
X32171Y33871D01*
X32207Y33846D01*
X32250Y33838D01*
X32756D01*
X32767Y33822D01*
X32826Y33782D01*
X32896Y33768D01*
X33604D01*
X33674Y33782D01*
X33733Y33822D01*
X33772Y33881D01*
X33786Y33950D01*
X33772Y34019D01*
X33733Y34078D01*
X33674Y34118D01*
X33604Y34132D01*
X32896D01*
X32826Y34118D01*
X32767Y34078D01*
X32756Y34062D01*
X32296D01*
X30992Y35366D01*
Y35484D01*
X31038Y35503D01*
X32171Y34371D01*
X32171Y34371D01*
X32207Y34346D01*
X32250Y34338D01*
X32756D01*
X32767Y34322D01*
X32826Y34282D01*
X32896Y34268D01*
X33604D01*
X33674Y34282D01*
X33733Y34322D01*
X33772Y34381D01*
X33786Y34450D01*
X33772Y34520D01*
X33733Y34578D01*
X33674Y34618D01*
X33604Y34632D01*
X32896D01*
X32826Y34618D01*
X32767Y34578D01*
X32756Y34562D01*
X32296D01*
X31152Y35706D01*
Y35824D01*
X31198Y35843D01*
X32171Y34871D01*
X32171Y34871D01*
X32207Y34846D01*
X32250Y34838D01*
X32250Y34838D01*
X32756D01*
X32767Y34822D01*
X32826Y34782D01*
X32896Y34768D01*
X33604D01*
X33674Y34782D01*
X33733Y34822D01*
X33772Y34880D01*
X33786Y34950D01*
X33772Y35020D01*
X33733Y35078D01*
X33674Y35118D01*
X33604Y35132D01*
X32896D01*
X32826Y35118D01*
X32767Y35078D01*
X32756Y35062D01*
X32296D01*
X31312Y36046D01*
Y36664D01*
X31358Y36683D01*
X32171Y35871D01*
X32171Y35871D01*
X32207Y35846D01*
X32250Y35838D01*
X32250Y35838D01*
X32756D01*
X32767Y35822D01*
X32826Y35782D01*
X32896Y35768D01*
X33604D01*
X33674Y35782D01*
X33733Y35822D01*
X33772Y35880D01*
X33786Y35950D01*
X33772Y36019D01*
X33733Y36078D01*
X33674Y36118D01*
X33604Y36132D01*
X32896D01*
X32826Y36118D01*
X32767Y36078D01*
X32756Y36062D01*
X32296D01*
X31482Y36876D01*
Y36994D01*
X31528Y37013D01*
X32171Y36371D01*
X32171Y36371D01*
X32207Y36346D01*
X32250Y36338D01*
X32250Y36338D01*
X32756D01*
X32767Y36322D01*
X32826Y36282D01*
X32896Y36268D01*
X33604D01*
X33674Y36282D01*
X33733Y36322D01*
X33772Y36381D01*
X33786Y36450D01*
X33772Y36519D01*
X33733Y36578D01*
X33674Y36618D01*
X33604Y36632D01*
X32896D01*
X32826Y36618D01*
X32767Y36578D01*
X32756Y36562D01*
X32296D01*
X31642Y37216D01*
Y37334D01*
X31688Y37353D01*
X32171Y36871D01*
X32171Y36871D01*
X32207Y36846D01*
X32250Y36838D01*
X32756D01*
X32767Y36822D01*
X32826Y36782D01*
X32896Y36768D01*
X33604D01*
X33674Y36782D01*
X33733Y36822D01*
X33772Y36881D01*
X33786Y36950D01*
X33772Y37020D01*
X33733Y37078D01*
X33674Y37118D01*
X33604Y37132D01*
X32896D01*
X32826Y37118D01*
X32767Y37078D01*
X32756Y37062D01*
X32296D01*
X31802Y37556D01*
Y37724D01*
X31848Y37743D01*
X32221Y37371D01*
X32257Y37346D01*
X32300Y37338D01*
X32300Y37338D01*
X32756D01*
X32767Y37322D01*
X32826Y37282D01*
X32896Y37268D01*
X33604D01*
X33674Y37282D01*
X33733Y37322D01*
X33772Y37380D01*
X33786Y37450D01*
X33772Y37520D01*
X33733Y37578D01*
X33674Y37618D01*
X33604Y37632D01*
X32896D01*
X32826Y37618D01*
X32767Y37578D01*
X32756Y37562D01*
X32346D01*
X31962Y37946D01*
Y38434D01*
X31962Y38434D01*
X31954Y38477D01*
X31929Y38513D01*
X31929Y38513D01*
X30563Y39879D01*
X30527Y39904D01*
X30484Y39912D01*
X30484Y39912D01*
X24305D01*
X24305Y39912D01*
X24262Y39904D01*
X24226Y39879D01*
X24226Y39879D01*
X23854Y39507D01*
X23822Y39520D01*
X23748Y39530D01*
X23673Y39520D01*
X23604Y39491D01*
X23544Y39446D01*
X23513Y39405D01*
X23463Y39422D01*
Y39766D01*
X23498Y39818D01*
X23514Y39900D01*
X23498Y39982D01*
X23451Y40051D01*
X23382Y40098D01*
X23300Y40114D01*
D02*
G37*
G36*
X32850Y39345D02*
X32802Y39335D01*
X32720Y39280D01*
X32664Y39198D01*
X32655Y39150D01*
X32850D01*
Y39345D01*
D02*
G37*
G36*
X20748Y39530D02*
X20673Y39520D01*
X20604Y39491D01*
X20544Y39446D01*
X20499Y39386D01*
X20470Y39317D01*
X20460Y39242D01*
X20470Y39168D01*
X20499Y39099D01*
X20544Y39039D01*
X20604Y38993D01*
X20673Y38965D01*
X20748Y38955D01*
X20822Y38965D01*
X20891Y38993D01*
X20951Y39039D01*
X20997Y39099D01*
X21025Y39168D01*
X21035Y39242D01*
X21025Y39317D01*
X20997Y39386D01*
X20951Y39446D01*
X20891Y39491D01*
X20822Y39520D01*
X20748Y39530D01*
D02*
G37*
G36*
X21748D02*
X21673Y39520D01*
X21604Y39491D01*
X21544Y39446D01*
X21499Y39386D01*
X21470Y39317D01*
X21460Y39242D01*
X21470Y39168D01*
X21499Y39099D01*
X21544Y39039D01*
X21604Y38993D01*
X21673Y38965D01*
X21748Y38955D01*
X21822Y38965D01*
X21891Y38993D01*
X21951Y39039D01*
X21997Y39099D01*
X22025Y39168D01*
X22035Y39242D01*
X22025Y39317D01*
X21997Y39386D01*
X21951Y39446D01*
X21891Y39491D01*
X21822Y39520D01*
X21748Y39530D01*
D02*
G37*
G36*
X14748D02*
X14673Y39520D01*
X14604Y39491D01*
X14544Y39446D01*
X14499Y39386D01*
X14470Y39317D01*
X14460Y39242D01*
X14470Y39168D01*
X14499Y39099D01*
X14544Y39039D01*
X14604Y38993D01*
X14673Y38965D01*
X14748Y38955D01*
X14822Y38965D01*
X14891Y38993D01*
X14951Y39039D01*
X14997Y39099D01*
X15025Y39168D01*
X15035Y39242D01*
X15025Y39317D01*
X14997Y39386D01*
X14951Y39446D01*
X14891Y39491D01*
X14822Y39520D01*
X14748Y39530D01*
D02*
G37*
G36*
X19248Y39030D02*
X19173Y39020D01*
X19104Y38991D01*
X19044Y38946D01*
X18999Y38886D01*
X18970Y38817D01*
X18960Y38742D01*
X18970Y38668D01*
X18999Y38599D01*
X19044Y38539D01*
X19104Y38493D01*
X19173Y38465D01*
X19248Y38455D01*
X19322Y38465D01*
X19391Y38493D01*
X19451Y38539D01*
X19497Y38599D01*
X19525Y38668D01*
X19535Y38742D01*
X19525Y38817D01*
X19497Y38886D01*
X19451Y38946D01*
X19391Y38991D01*
X19322Y39020D01*
X19248Y39030D01*
D02*
G37*
G36*
X20248D02*
X20173Y39020D01*
X20104Y38991D01*
X20044Y38946D01*
X19999Y38886D01*
X19970Y38817D01*
X19960Y38742D01*
X19970Y38668D01*
X19999Y38599D01*
X20044Y38539D01*
X20104Y38493D01*
X20173Y38465D01*
X20248Y38455D01*
X20322Y38465D01*
X20391Y38493D01*
X20451Y38539D01*
X20497Y38599D01*
X20525Y38668D01*
X20535Y38742D01*
X20525Y38817D01*
X20497Y38886D01*
X20451Y38946D01*
X20391Y38991D01*
X20322Y39020D01*
X20248Y39030D01*
D02*
G37*
G36*
X18248D02*
X18173Y39020D01*
X18104Y38991D01*
X18044Y38946D01*
X17999Y38886D01*
X17970Y38817D01*
X17960Y38742D01*
X17970Y38668D01*
X17999Y38599D01*
X18044Y38539D01*
X18104Y38493D01*
X18173Y38465D01*
X18248Y38455D01*
X18322Y38465D01*
X18391Y38493D01*
X18451Y38539D01*
X18497Y38599D01*
X18525Y38668D01*
X18535Y38742D01*
X18525Y38817D01*
X18497Y38886D01*
X18451Y38946D01*
X18391Y38991D01*
X18322Y39020D01*
X18248Y39030D01*
D02*
G37*
G36*
X16248D02*
X16173Y39020D01*
X16104Y38991D01*
X16044Y38946D01*
X15999Y38886D01*
X15970Y38817D01*
X15960Y38742D01*
X15970Y38668D01*
X15999Y38599D01*
X16044Y38539D01*
X16104Y38493D01*
X16173Y38465D01*
X16248Y38455D01*
X16322Y38465D01*
X16391Y38493D01*
X16451Y38539D01*
X16497Y38599D01*
X16525Y38668D01*
X16535Y38742D01*
X16525Y38817D01*
X16497Y38886D01*
X16451Y38946D01*
X16391Y38991D01*
X16322Y39020D01*
X16248Y39030D01*
D02*
G37*
G36*
X17248D02*
X17173Y39020D01*
X17104Y38991D01*
X17044Y38946D01*
X16999Y38886D01*
X16970Y38817D01*
X16960Y38742D01*
X16970Y38668D01*
X16999Y38599D01*
X17044Y38539D01*
X17104Y38493D01*
X17173Y38465D01*
X17248Y38455D01*
X17322Y38465D01*
X17391Y38493D01*
X17451Y38539D01*
X17497Y38599D01*
X17525Y38668D01*
X17535Y38742D01*
X17525Y38817D01*
X17497Y38886D01*
X17451Y38946D01*
X17391Y38991D01*
X17322Y39020D01*
X17248Y39030D01*
D02*
G37*
G36*
X32850Y39050D02*
X32655D01*
X32664Y39002D01*
X32720Y38920D01*
X32802Y38865D01*
X32850Y38855D01*
Y39050D01*
D02*
G37*
G36*
X33145D02*
X32950D01*
Y38855D01*
X32998Y38865D01*
X33080Y38920D01*
X33135Y39002D01*
X33145Y39050D01*
D02*
G37*
G36*
X24248Y39030D02*
X24173Y39020D01*
X24104Y38991D01*
X24044Y38946D01*
X23999Y38886D01*
X23970Y38817D01*
X23960Y38742D01*
X23970Y38668D01*
X23999Y38599D01*
X24044Y38539D01*
X24104Y38493D01*
X24173Y38465D01*
X24248Y38455D01*
X24322Y38465D01*
X24391Y38493D01*
X24451Y38539D01*
X24497Y38599D01*
X24525Y38668D01*
X24535Y38742D01*
X24525Y38817D01*
X24497Y38886D01*
X24451Y38946D01*
X24391Y38991D01*
X24322Y39020D01*
X24248Y39030D01*
D02*
G37*
G36*
X21248D02*
X21173Y39020D01*
X21104Y38991D01*
X21044Y38946D01*
X20999Y38886D01*
X20970Y38817D01*
X20960Y38742D01*
X20970Y38668D01*
X20999Y38599D01*
X21044Y38539D01*
X21104Y38493D01*
X21173Y38465D01*
X21248Y38455D01*
X21322Y38465D01*
X21391Y38493D01*
X21451Y38539D01*
X21497Y38599D01*
X21525Y38668D01*
X21535Y38742D01*
X21525Y38817D01*
X21497Y38886D01*
X21451Y38946D01*
X21391Y38991D01*
X21322Y39020D01*
X21248Y39030D01*
D02*
G37*
G36*
X22248D02*
X22173Y39020D01*
X22104Y38991D01*
X22044Y38946D01*
X21999Y38886D01*
X21970Y38817D01*
X21960Y38742D01*
X21970Y38668D01*
X21999Y38599D01*
X22044Y38539D01*
X22104Y38493D01*
X22173Y38465D01*
X22248Y38455D01*
X22322Y38465D01*
X22391Y38493D01*
X22451Y38539D01*
X22497Y38599D01*
X22525Y38668D01*
X22535Y38742D01*
X22525Y38817D01*
X22497Y38886D01*
X22451Y38946D01*
X22391Y38991D01*
X22322Y39020D01*
X22248Y39030D01*
D02*
G37*
G36*
X12000Y35642D02*
Y35300D01*
X12342D01*
X12335Y35353D01*
X12295Y35449D01*
X12232Y35532D01*
X12149Y35595D01*
X12053Y35635D01*
X12000Y35642D01*
D02*
G37*
G36*
X13248Y36030D02*
X13173Y36020D01*
X13104Y35991D01*
X13044Y35946D01*
X12999Y35886D01*
X12970Y35817D01*
X12960Y35742D01*
X12970Y35668D01*
X12999Y35599D01*
X13044Y35539D01*
X13104Y35493D01*
X13173Y35465D01*
X13248Y35455D01*
X13322Y35465D01*
X13391Y35493D01*
X13451Y35539D01*
X13497Y35599D01*
X13525Y35668D01*
X13535Y35742D01*
X13525Y35817D01*
X13497Y35886D01*
X13451Y35946D01*
X13391Y35991D01*
X13322Y36020D01*
X13248Y36030D01*
D02*
G37*
G36*
X11900Y35642D02*
X11847Y35635D01*
X11751Y35595D01*
X11668Y35532D01*
X11605Y35449D01*
X11565Y35353D01*
X11558Y35300D01*
X11900D01*
Y35642D01*
D02*
G37*
G36*
X32300Y35450D02*
X32105D01*
X32115Y35402D01*
X32170Y35320D01*
X32252Y35264D01*
X32300Y35255D01*
Y35450D01*
D02*
G37*
G36*
X32595D02*
X32400D01*
Y35255D01*
X32448Y35264D01*
X32530Y35320D01*
X32585Y35402D01*
X32595Y35450D01*
D02*
G37*
G36*
X33200Y35672D02*
X32896D01*
X32811Y35655D01*
X32738Y35607D01*
X32690Y35535D01*
X32683Y35500D01*
X33200D01*
Y35672D01*
D02*
G37*
G36*
X33604D02*
X33300D01*
Y35500D01*
X33817D01*
X33810Y35535D01*
X33762Y35607D01*
X33689Y35655D01*
X33604Y35672D01*
D02*
G37*
G36*
X27325Y35835D02*
X27009D01*
Y35500D01*
X27325D01*
Y35835D01*
D02*
G37*
G36*
X14248Y36030D02*
X14173Y36020D01*
X14104Y35991D01*
X14044Y35946D01*
X13999Y35886D01*
X13970Y35817D01*
X13960Y35742D01*
X13970Y35668D01*
X13999Y35599D01*
X14044Y35539D01*
X14104Y35493D01*
X14173Y35465D01*
X14248Y35455D01*
X14322Y35465D01*
X14391Y35493D01*
X14451Y35539D01*
X14497Y35599D01*
X14525Y35668D01*
X14535Y35742D01*
X14525Y35817D01*
X14497Y35886D01*
X14451Y35946D01*
X14391Y35991D01*
X14322Y36020D01*
X14248Y36030D01*
D02*
G37*
G36*
X24248D02*
X24173Y36020D01*
X24104Y35991D01*
X24044Y35946D01*
X23999Y35886D01*
X23970Y35817D01*
X23960Y35742D01*
X23970Y35668D01*
X23999Y35599D01*
X24044Y35539D01*
X24104Y35493D01*
X24173Y35465D01*
X24248Y35455D01*
X24322Y35465D01*
X24391Y35493D01*
X24451Y35539D01*
X24497Y35599D01*
X24525Y35668D01*
X24535Y35742D01*
X24525Y35817D01*
X24497Y35886D01*
X24451Y35946D01*
X24391Y35991D01*
X24322Y36020D01*
X24248Y36030D01*
D02*
G37*
G36*
X27741Y35835D02*
X27425D01*
Y35450D01*
Y35065D01*
X27741D01*
Y35069D01*
X27776Y35105D01*
X28301D01*
X28301D01*
X28307Y35105D01*
X28307Y35102D01*
X28307Y35101D01*
X28307Y35099D01*
X28310Y35075D01*
X28310Y35072D01*
X28280Y35035D01*
X28271Y35029D01*
X28271Y35029D01*
X26954Y33712D01*
X25600D01*
X25600Y33712D01*
X25581Y33708D01*
X25538Y33741D01*
X25535Y33746D01*
X25525Y33817D01*
X25497Y33886D01*
X25451Y33946D01*
X25391Y33991D01*
X25322Y34020D01*
X25248Y34030D01*
X25173Y34020D01*
X25104Y33991D01*
X25044Y33946D01*
X24999Y33886D01*
X24970Y33817D01*
X24960Y33742D01*
X24970Y33668D01*
X24999Y33599D01*
X25044Y33539D01*
X25104Y33493D01*
X25173Y33465D01*
X25228Y33458D01*
X25249Y33407D01*
X25196Y33355D01*
X25010D01*
X24997Y33386D01*
X24951Y33446D01*
X24891Y33491D01*
X24822Y33520D01*
X24748Y33530D01*
X24673Y33520D01*
X24604Y33491D01*
X24544Y33446D01*
X24499Y33386D01*
X24470Y33317D01*
X24460Y33242D01*
X24470Y33168D01*
X24499Y33099D01*
X24544Y33039D01*
X24604Y32993D01*
X24673Y32965D01*
X24748Y32955D01*
X24822Y32965D01*
X24891Y32993D01*
X24951Y33039D01*
X24997Y33099D01*
X25010Y33130D01*
X25242D01*
X25242Y33130D01*
X25285Y33139D01*
X25322Y33163D01*
X25417Y33258D01*
X25462Y33232D01*
X25470Y33168D01*
X25499Y33099D01*
X25544Y33039D01*
X25604Y32993D01*
X25673Y32965D01*
X25748Y32955D01*
X25822Y32965D01*
X25891Y32993D01*
X25951Y33039D01*
X25997Y33099D01*
X26010Y33130D01*
X27142D01*
X27142Y33130D01*
X27185Y33139D01*
X27222Y33163D01*
X28396Y34338D01*
X28706D01*
X28717Y34322D01*
X28776Y34282D01*
X28846Y34268D01*
X29554D01*
X29624Y34282D01*
X29683Y34322D01*
X29722Y34381D01*
X29736Y34450D01*
X29722Y34520D01*
X29683Y34578D01*
X29624Y34618D01*
X29554Y34632D01*
X28846D01*
X28776Y34618D01*
X28717Y34578D01*
X28706Y34562D01*
X28350D01*
X28307Y34554D01*
X28271Y34529D01*
X28271Y34529D01*
X27096Y33355D01*
X26010D01*
X25997Y33386D01*
X25957Y33438D01*
X25970Y33488D01*
X27000D01*
X27000Y33488D01*
X27043Y33496D01*
X27079Y33521D01*
X28396Y34838D01*
X28706D01*
X28717Y34822D01*
X28776Y34782D01*
X28846Y34768D01*
X29554D01*
X29624Y34782D01*
X29683Y34822D01*
X29722Y34880D01*
X29736Y34950D01*
X29722Y35020D01*
X29683Y35078D01*
X29624Y35118D01*
X29554Y35132D01*
X28846D01*
X28776Y35118D01*
X28717Y35078D01*
X28706Y35062D01*
X28403D01*
X28359Y35085D01*
X28351Y35121D01*
D01*
D01*
X28351Y35121D01*
Y35287D01*
X28769D01*
X28776Y35282D01*
X28846Y35268D01*
X29554D01*
X29624Y35282D01*
X29631Y35287D01*
X29966D01*
X30018Y35252D01*
X30100Y35236D01*
X30182Y35252D01*
X30251Y35299D01*
X30298Y35368D01*
X30314Y35450D01*
X30298Y35532D01*
X30251Y35601D01*
X30182Y35648D01*
X30100Y35664D01*
X30018Y35648D01*
X29966Y35613D01*
X29631D01*
X29624Y35618D01*
X29554Y35632D01*
X28846D01*
X28776Y35618D01*
X28769Y35613D01*
X28351D01*
Y35795D01*
X27741D01*
Y35835D01*
D02*
G37*
G36*
X13748Y35530D02*
X13673Y35520D01*
X13604Y35491D01*
X13544Y35446D01*
X13499Y35386D01*
X13470Y35317D01*
X13460Y35242D01*
X13470Y35168D01*
X13499Y35099D01*
X13544Y35039D01*
X13604Y34993D01*
X13673Y34965D01*
X13748Y34955D01*
X13822Y34965D01*
X13891Y34993D01*
X13951Y35039D01*
X13997Y35099D01*
X14025Y35168D01*
X14035Y35242D01*
X14025Y35317D01*
X13997Y35386D01*
X13951Y35446D01*
X13891Y35491D01*
X13822Y35520D01*
X13748Y35530D01*
D02*
G37*
G36*
X14748D02*
X14673Y35520D01*
X14604Y35491D01*
X14544Y35446D01*
X14499Y35386D01*
X14470Y35317D01*
X14460Y35242D01*
X14470Y35168D01*
X14499Y35099D01*
X14544Y35039D01*
X14604Y34993D01*
X14673Y34965D01*
X14748Y34955D01*
X14822Y34965D01*
X14891Y34993D01*
X14951Y35039D01*
X14997Y35099D01*
X15025Y35168D01*
X15035Y35242D01*
X15025Y35317D01*
X14997Y35386D01*
X14951Y35446D01*
X14891Y35491D01*
X14822Y35520D01*
X14748Y35530D01*
D02*
G37*
G36*
X12342Y35200D02*
X12000D01*
Y34858D01*
X12053Y34865D01*
X12149Y34905D01*
X12232Y34968D01*
X12295Y35051D01*
X12335Y35147D01*
X12342Y35200D01*
D02*
G37*
G36*
X27200Y34895D02*
Y34700D01*
X27395D01*
X27385Y34748D01*
X27330Y34830D01*
X27248Y34885D01*
X27200Y34895D01*
D02*
G37*
G36*
X11900Y35200D02*
X11558D01*
X11565Y35147D01*
X11605Y35051D01*
X11668Y34968D01*
X11751Y34905D01*
X11847Y34865D01*
X11900Y34858D01*
Y35200D01*
D02*
G37*
G36*
X33200Y35400D02*
X32683D01*
X32690Y35365D01*
X32738Y35293D01*
X32811Y35245D01*
X32896Y35228D01*
X33200D01*
Y35400D01*
D02*
G37*
G36*
X33817D02*
X33300D01*
Y35228D01*
X33604D01*
X33689Y35245D01*
X33762Y35293D01*
X33810Y35365D01*
X33817Y35400D01*
D02*
G37*
G36*
X35995D02*
X35800D01*
Y35205D01*
X35848Y35215D01*
X35930Y35270D01*
X35986Y35352D01*
X35995Y35400D01*
D02*
G37*
G36*
X27325D02*
X27009D01*
Y35065D01*
X27325D01*
Y35400D01*
D02*
G37*
G36*
X35700D02*
X35505D01*
X35515Y35352D01*
X35570Y35270D01*
X35652Y35215D01*
X35700Y35205D01*
Y35400D01*
D02*
G37*
G36*
Y35695D02*
X35652Y35686D01*
X35570Y35630D01*
X35515Y35548D01*
X35505Y35500D01*
X35700D01*
Y35695D01*
D02*
G37*
G36*
X14248Y38030D02*
X14173Y38020D01*
X14104Y37991D01*
X14044Y37946D01*
X13999Y37886D01*
X13970Y37817D01*
X13960Y37742D01*
X13970Y37668D01*
X13999Y37599D01*
X14044Y37539D01*
X14104Y37493D01*
X14173Y37465D01*
X14248Y37455D01*
X14322Y37465D01*
X14391Y37493D01*
X14451Y37539D01*
X14497Y37599D01*
X14525Y37668D01*
X14535Y37742D01*
X14525Y37817D01*
X14497Y37886D01*
X14451Y37946D01*
X14391Y37991D01*
X14322Y38020D01*
X14248Y38030D01*
D02*
G37*
G36*
X15248D02*
X15173Y38020D01*
X15104Y37991D01*
X15044Y37946D01*
X14999Y37886D01*
X14970Y37817D01*
X14960Y37742D01*
X14970Y37668D01*
X14999Y37599D01*
X15044Y37539D01*
X15104Y37493D01*
X15173Y37465D01*
X15248Y37455D01*
X15322Y37465D01*
X15391Y37493D01*
X15451Y37539D01*
X15497Y37599D01*
X15525Y37668D01*
X15535Y37742D01*
X15525Y37817D01*
X15497Y37886D01*
X15451Y37946D01*
X15391Y37991D01*
X15322Y38020D01*
X15248Y38030D01*
D02*
G37*
G36*
X13248D02*
X13173Y38020D01*
X13104Y37991D01*
X13044Y37946D01*
X12999Y37886D01*
X12970Y37817D01*
X12960Y37742D01*
X12970Y37668D01*
X12999Y37599D01*
X13044Y37539D01*
X13104Y37493D01*
X13173Y37465D01*
X13248Y37455D01*
X13322Y37465D01*
X13391Y37493D01*
X13451Y37539D01*
X13497Y37599D01*
X13525Y37668D01*
X13535Y37742D01*
X13525Y37817D01*
X13497Y37886D01*
X13451Y37946D01*
X13391Y37991D01*
X13322Y38020D01*
X13248Y38030D01*
D02*
G37*
G36*
X13698Y37564D02*
X13663Y37559D01*
X13584Y37526D01*
X13516Y37474D01*
X13464Y37406D01*
X13431Y37327D01*
X13426Y37292D01*
X13698D01*
Y37564D01*
D02*
G37*
G36*
X13798D02*
Y37292D01*
X14069D01*
X14064Y37327D01*
X14032Y37406D01*
X13979Y37474D01*
X13912Y37526D01*
X13833Y37559D01*
X13798Y37564D01*
D02*
G37*
G36*
X19248Y38030D02*
X19173Y38020D01*
X19104Y37991D01*
X19044Y37946D01*
X18999Y37886D01*
X18970Y37817D01*
X18960Y37742D01*
X18970Y37668D01*
X18999Y37599D01*
X19044Y37539D01*
X19104Y37493D01*
X19173Y37465D01*
X19248Y37455D01*
X19322Y37465D01*
X19391Y37493D01*
X19451Y37539D01*
X19497Y37599D01*
X19525Y37668D01*
X19535Y37742D01*
X19525Y37817D01*
X19497Y37886D01*
X19451Y37946D01*
X19391Y37991D01*
X19322Y38020D01*
X19248Y38030D01*
D02*
G37*
G36*
X21248D02*
X21173Y38020D01*
X21104Y37991D01*
X21044Y37946D01*
X20999Y37886D01*
X20970Y37817D01*
X20960Y37742D01*
X20970Y37668D01*
X20999Y37599D01*
X21044Y37539D01*
X21104Y37493D01*
X21173Y37465D01*
X21248Y37455D01*
X21322Y37465D01*
X21391Y37493D01*
X21451Y37539D01*
X21497Y37599D01*
X21525Y37668D01*
X21535Y37742D01*
X21525Y37817D01*
X21497Y37886D01*
X21451Y37946D01*
X21391Y37991D01*
X21322Y38020D01*
X21248Y38030D01*
D02*
G37*
G36*
X18248D02*
X18173Y38020D01*
X18104Y37991D01*
X18044Y37946D01*
X17999Y37886D01*
X17970Y37817D01*
X17960Y37742D01*
X17970Y37668D01*
X17999Y37599D01*
X18044Y37539D01*
X18104Y37493D01*
X18173Y37465D01*
X18248Y37455D01*
X18322Y37465D01*
X18391Y37493D01*
X18451Y37539D01*
X18497Y37599D01*
X18525Y37668D01*
X18535Y37742D01*
X18525Y37817D01*
X18497Y37886D01*
X18451Y37946D01*
X18391Y37991D01*
X18322Y38020D01*
X18248Y38030D01*
D02*
G37*
G36*
X16248D02*
X16173Y38020D01*
X16104Y37991D01*
X16044Y37946D01*
X15999Y37886D01*
X15970Y37817D01*
X15960Y37742D01*
X15970Y37668D01*
X15999Y37599D01*
X16044Y37539D01*
X16104Y37493D01*
X16173Y37465D01*
X16248Y37455D01*
X16322Y37465D01*
X16391Y37493D01*
X16451Y37539D01*
X16497Y37599D01*
X16525Y37668D01*
X16535Y37742D01*
X16525Y37817D01*
X16497Y37886D01*
X16451Y37946D01*
X16391Y37991D01*
X16322Y38020D01*
X16248Y38030D01*
D02*
G37*
G36*
X17248D02*
X17173Y38020D01*
X17104Y37991D01*
X17044Y37946D01*
X16999Y37886D01*
X16970Y37817D01*
X16960Y37742D01*
X16970Y37668D01*
X16999Y37599D01*
X17044Y37539D01*
X17104Y37493D01*
X17173Y37465D01*
X17248Y37455D01*
X17322Y37465D01*
X17391Y37493D01*
X17451Y37539D01*
X17497Y37599D01*
X17525Y37668D01*
X17535Y37742D01*
X17525Y37817D01*
X17497Y37886D01*
X17451Y37946D01*
X17391Y37991D01*
X17322Y38020D01*
X17248Y38030D01*
D02*
G37*
G36*
X14748Y37530D02*
X14673Y37520D01*
X14604Y37491D01*
X14544Y37446D01*
X14499Y37386D01*
X14470Y37317D01*
X14460Y37242D01*
X14470Y37168D01*
X14499Y37099D01*
X14544Y37039D01*
X14604Y36993D01*
X14673Y36965D01*
X14748Y36955D01*
X14822Y36965D01*
X14891Y36993D01*
X14951Y37039D01*
X14997Y37099D01*
X15025Y37168D01*
X15035Y37242D01*
X15025Y37317D01*
X14997Y37386D01*
X14951Y37446D01*
X14891Y37491D01*
X14822Y37520D01*
X14748Y37530D01*
D02*
G37*
G36*
X13748Y36530D02*
X13673Y36520D01*
X13604Y36491D01*
X13544Y36446D01*
X13499Y36386D01*
X13470Y36317D01*
X13460Y36242D01*
X13470Y36168D01*
X13499Y36099D01*
X13544Y36039D01*
X13604Y35993D01*
X13673Y35965D01*
X13748Y35955D01*
X13822Y35965D01*
X13891Y35993D01*
X13951Y36039D01*
X13997Y36099D01*
X14025Y36168D01*
X14035Y36242D01*
X14025Y36317D01*
X13997Y36386D01*
X13951Y36446D01*
X13891Y36491D01*
X13822Y36520D01*
X13748Y36530D01*
D02*
G37*
G36*
X14748D02*
X14673Y36520D01*
X14604Y36491D01*
X14544Y36446D01*
X14499Y36386D01*
X14470Y36317D01*
X14460Y36242D01*
X14470Y36168D01*
X14499Y36099D01*
X14544Y36039D01*
X14604Y35993D01*
X14673Y35965D01*
X14748Y35955D01*
X14822Y35965D01*
X14891Y35993D01*
X14951Y36039D01*
X14997Y36099D01*
X15025Y36168D01*
X15035Y36242D01*
X15025Y36317D01*
X14997Y36386D01*
X14951Y36446D01*
X14891Y36491D01*
X14822Y36520D01*
X14748Y36530D01*
D02*
G37*
G36*
X32400Y35745D02*
Y35550D01*
X32595D01*
X32585Y35598D01*
X32530Y35680D01*
X32448Y35735D01*
X32400Y35745D01*
D02*
G37*
G36*
X35800Y35695D02*
Y35500D01*
X35995D01*
X35986Y35548D01*
X35930Y35630D01*
X35848Y35686D01*
X35800Y35695D01*
D02*
G37*
G36*
X32300Y35745D02*
X32252Y35735D01*
X32170Y35680D01*
X32115Y35598D01*
X32105Y35550D01*
X32300D01*
Y35745D01*
D02*
G37*
G36*
X13698Y37192D02*
X13426D01*
X13431Y37158D01*
X13464Y37078D01*
X13516Y37011D01*
X13584Y36959D01*
X13663Y36926D01*
X13698Y36921D01*
Y37192D01*
D02*
G37*
G36*
X14069D02*
X13798D01*
Y36921D01*
X13833Y36926D01*
X13912Y36959D01*
X13979Y37011D01*
X14032Y37078D01*
X14064Y37158D01*
X14069Y37192D01*
D02*
G37*
G36*
X24248Y37030D02*
X24173Y37020D01*
X24104Y36991D01*
X24044Y36946D01*
X23999Y36886D01*
X23970Y36817D01*
X23960Y36742D01*
X23970Y36668D01*
X23999Y36599D01*
X24044Y36539D01*
X24104Y36493D01*
X24173Y36465D01*
X24248Y36455D01*
X24322Y36465D01*
X24391Y36493D01*
X24451Y36539D01*
X24497Y36599D01*
X24525Y36668D01*
X24535Y36742D01*
X24525Y36817D01*
X24497Y36886D01*
X24451Y36946D01*
X24391Y36991D01*
X24322Y37020D01*
X24248Y37030D01*
D02*
G37*
G36*
X13248D02*
X13173Y37020D01*
X13104Y36991D01*
X13044Y36946D01*
X12999Y36886D01*
X12970Y36817D01*
X12960Y36742D01*
X12970Y36668D01*
X12999Y36599D01*
X13044Y36539D01*
X13104Y36493D01*
X13173Y36465D01*
X13248Y36455D01*
X13322Y36465D01*
X13391Y36493D01*
X13451Y36539D01*
X13497Y36599D01*
X13525Y36668D01*
X13535Y36742D01*
X13525Y36817D01*
X13497Y36886D01*
X13451Y36946D01*
X13391Y36991D01*
X13322Y37020D01*
X13248Y37030D01*
D02*
G37*
G36*
X14248D02*
X14173Y37020D01*
X14104Y36991D01*
X14044Y36946D01*
X13999Y36886D01*
X13970Y36817D01*
X13960Y36742D01*
X13970Y36668D01*
X13999Y36599D01*
X14044Y36539D01*
X14104Y36493D01*
X14173Y36465D01*
X14248Y36455D01*
X14322Y36465D01*
X14391Y36493D01*
X14451Y36539D01*
X14497Y36599D01*
X14525Y36668D01*
X14535Y36742D01*
X14525Y36817D01*
X14497Y36886D01*
X14451Y36946D01*
X14391Y36991D01*
X14322Y37020D01*
X14248Y37030D01*
D02*
G37*
%LPD*%
D10*
X28075Y28450D02*
D03*
X27425D02*
D03*
X28025Y37950D02*
D03*
X27375D02*
D03*
X28025Y35450D02*
D03*
X27375D02*
D03*
D11*
X29200Y37950D02*
D03*
D12*
Y37450D02*
D03*
Y36950D02*
D03*
Y36450D02*
D03*
Y35950D02*
D03*
Y35450D02*
D03*
Y34950D02*
D03*
Y34450D02*
D03*
Y33950D02*
D03*
Y33450D02*
D03*
Y32950D02*
D03*
Y32450D02*
D03*
Y31950D02*
D03*
Y31450D02*
D03*
Y30950D02*
D03*
Y30450D02*
D03*
Y29950D02*
D03*
Y29450D02*
D03*
Y28950D02*
D03*
Y28450D02*
D03*
X33250D02*
D03*
X33200Y37950D02*
D03*
X33250Y37450D02*
D03*
Y36950D02*
D03*
Y36450D02*
D03*
Y35950D02*
D03*
Y35450D02*
D03*
Y34950D02*
D03*
Y34450D02*
D03*
Y33950D02*
D03*
Y33450D02*
D03*
Y32950D02*
D03*
Y32450D02*
D03*
Y31950D02*
D03*
Y31450D02*
D03*
Y30950D02*
D03*
Y30450D02*
D03*
Y29950D02*
D03*
Y29450D02*
D03*
Y28950D02*
D03*
D13*
X26300Y27191D02*
Y29000D01*
X25409Y26300D02*
X26300Y27191D01*
X13442Y26300D02*
X25409D01*
X26610Y27063D02*
Y28872D01*
X25537Y25990D02*
X26610Y27063D01*
X13314Y25990D02*
X25537D01*
X26770Y26996D02*
Y28720D01*
X25604Y25830D02*
X26770Y26996D01*
X13248Y25830D02*
X25604D01*
X12925Y25050D02*
X25938D01*
X27228Y26790D02*
X27240D01*
X25798Y25360D02*
X27228Y26790D01*
X13053Y25360D02*
X25798D01*
X13181Y25670D02*
X25670D01*
X28350Y33450D02*
X29200D01*
X28350Y33950D02*
X29200D01*
X27050Y32650D02*
X28350Y33950D01*
X25682Y32650D02*
X27050D01*
X28350Y34450D02*
X29200D01*
X27142Y33242D02*
X28350Y34450D01*
X25748Y33242D02*
X27142D01*
X28350Y34950D02*
X29200D01*
X27000Y33600D02*
X28350Y34950D01*
X25600Y33600D02*
X27000D01*
X24748Y35242D02*
X25242D01*
X24748Y34242D02*
X25242D01*
Y33242D02*
X25600Y33600D01*
X24748Y33242D02*
X25242D01*
X25274Y32242D02*
X25682Y32650D01*
X24748Y32242D02*
X25274D01*
X24748Y36242D02*
X25242D01*
X32300Y37450D02*
X33250D01*
X32250Y36450D02*
X33250D01*
X32250Y35950D02*
X33250D01*
X32250Y33950D02*
X33250D01*
X32250Y33450D02*
X33250D01*
X25386Y30407D02*
X25556Y30577D01*
X15748Y28242D02*
X18105Y30600D01*
X25748Y38242D02*
Y38748D01*
X24748Y37242D02*
X25242D01*
X26005Y35500D02*
Y35755D01*
X25748Y35242D02*
X26005Y35500D01*
X25242Y34242D02*
X26200Y35200D01*
Y35724D01*
X28600Y35950D02*
X29200D01*
X25748Y34242D02*
X26360Y34855D01*
Y35657D01*
X13073Y30242D02*
X13748D01*
X25670Y25670D02*
X27600Y27600D01*
X27240Y26790D02*
X27740Y27290D01*
X25938Y25050D02*
X27868Y26980D01*
X30620Y28070D02*
X31500Y28950D01*
X33250D01*
X30310Y28760D02*
X31500Y29950D01*
X33250D01*
X12792Y28835D02*
X13200Y29242D01*
X13748D01*
X12792Y26950D02*
Y28835D01*
X32250Y36950D02*
X33250D01*
X32250Y34950D02*
X33250D01*
X32250Y34450D02*
X33250D01*
X27200Y36950D02*
X29200D01*
X25748Y32242D02*
X27142D01*
X28350Y33450D01*
X31500Y31950D02*
X33250D01*
X30800Y32000D02*
X31250Y32450D01*
X30800Y31950D02*
Y32000D01*
X20250Y33600D02*
X21773Y32077D01*
X20250Y33600D02*
Y37740D01*
X20248Y37742D02*
X20250Y37740D01*
X24439Y32077D02*
X24609Y31907D01*
X24886D01*
X25056Y32077D01*
X25439D01*
X21773D02*
X24439D01*
X25386Y31407D02*
X25679Y31700D01*
X25109Y31407D02*
X25386D01*
X24939Y31577D02*
X25109Y31407D01*
X24583Y31577D02*
X24939D01*
X24413Y31407D02*
X24583Y31577D01*
X24109Y31407D02*
X24413D01*
X23816Y31700D02*
X24109Y31407D01*
X18205Y31700D02*
X23816D01*
X14748Y27242D02*
X15242D01*
X23916Y30600D02*
X24109Y30407D01*
X24386D01*
X24556Y30577D01*
X24916D01*
X25086Y30407D01*
X25386D01*
X24416Y30100D02*
X24609Y29907D01*
X24886D01*
X25056Y30077D01*
X25416D01*
X25586Y29907D01*
X25886D01*
X12482Y29652D02*
X13073Y30242D01*
X12482Y26822D02*
Y29652D01*
X31250Y32450D02*
X33250D01*
X30000Y29200D02*
X31750Y30950D01*
X33250D01*
X31950Y31450D02*
X32350D01*
X31178Y30678D02*
X31950Y31450D01*
X25386Y29407D02*
X25629Y29650D01*
X25109Y29407D02*
X25386D01*
X24939Y29577D02*
X25109Y29407D01*
X24583Y29577D02*
X24939D01*
X24413Y29407D02*
X24583Y29577D01*
X24109Y29407D02*
X24413D01*
X23866Y29650D02*
X24109Y29407D01*
X17083Y28533D02*
X18200Y29650D01*
X15242Y27242D02*
X18100Y30100D01*
X11540Y26435D02*
X12925Y25050D01*
X11850Y26563D02*
X13053Y25360D01*
X12162Y26689D02*
X13181Y25670D01*
X12322Y26755D02*
X13248Y25830D01*
X12482Y26822D02*
X13314Y25990D01*
X12792Y26950D02*
X13442Y26300D01*
X17083Y28104D02*
Y28533D01*
X15748Y27242D02*
X16221D01*
X17083Y28104D01*
X30620Y27793D02*
Y28070D01*
X27868Y26980D02*
X29807D01*
X30310Y27922D02*
Y28760D01*
X27740Y27290D02*
X29678D01*
X30000Y28050D02*
Y29200D01*
X27600Y27600D02*
X29550D01*
X29807Y26980D02*
X30620Y27793D01*
X29678Y27290D02*
X30310Y27922D01*
X29550Y27600D02*
X30000Y28050D01*
X27750Y30450D02*
X29200D01*
X27188Y29450D02*
X29200D01*
X26300Y29000D02*
X27750Y30450D01*
X26610Y28872D02*
X27188Y29450D01*
X26770Y28720D02*
X27000Y28950D01*
X29200D01*
X14748Y28242D02*
X18205Y31700D01*
X18100Y30100D02*
X18250D01*
X24416D01*
X18105Y30600D02*
X19250D01*
X23916D01*
X18200Y29650D02*
X20250D01*
X23866D01*
X23748Y38242D02*
X23800Y38295D01*
X24748Y39242D02*
X25521D01*
X23232Y39200D02*
X23300D01*
X23800Y38295D02*
Y38700D01*
X23300Y39200D02*
X23800Y38700D01*
X22913Y38881D02*
X22982Y38950D01*
X22913Y38587D02*
Y38881D01*
Y38587D02*
X23029Y38471D01*
X22913Y38881D02*
X23232Y39200D01*
X22913Y38587D02*
X23258Y38242D01*
X23748D01*
X31500Y31750D02*
Y31950D01*
X30928Y31178D02*
X31500Y31750D01*
X25242Y37242D02*
X26100Y38100D01*
X25748Y37242D02*
X26260Y37755D01*
Y38560D01*
X26100Y38100D02*
Y38626D01*
X25242Y36242D02*
X26420Y37420D01*
Y38467D01*
X25748Y36242D02*
X26580Y37075D01*
Y38401D01*
X25242Y35242D02*
X27450Y37450D01*
X29200D01*
X26005Y35755D02*
X27200Y36950D01*
X26200Y35724D02*
X26926Y36450D01*
X29200D01*
X26360Y35657D02*
X26853Y36150D01*
X28400D01*
X28600Y35950D01*
X25886Y29907D02*
X26079Y30100D01*
X25629Y29650D02*
X26724D01*
X27752Y30678D01*
X31178D01*
X26079Y30100D02*
X26947D01*
X28026Y31178D01*
X30928D01*
X25609Y31907D02*
X25886D01*
X25439Y32077D02*
X25609Y31907D01*
X25679Y31700D02*
X30550D01*
X30800Y31950D01*
X29200D02*
X30400D01*
X31200Y32750D01*
X32200D01*
X25556Y30577D02*
X27199D01*
X28071Y31450D01*
X29200D01*
X25886Y31907D02*
X25929Y31950D01*
X29200D01*
X29200Y31950D01*
X12162Y26689D02*
Y30612D01*
X12792Y31242D01*
X13748D01*
X12322Y26755D02*
Y30272D01*
X12792Y30742D01*
X13248D01*
X11850Y26563D02*
Y31300D01*
X12792Y32242D01*
X13748D01*
X11540Y26435D02*
Y31990D01*
X12792Y33242D01*
X13748D01*
X31850Y37900D02*
X32300Y37450D01*
X31850Y37900D02*
Y38434D01*
X31690Y37510D02*
X32250Y36950D01*
X31690Y37510D02*
Y38368D01*
X31530Y37170D02*
X32250Y36450D01*
X31530Y37170D02*
Y38301D01*
X31370Y36830D02*
X32250Y35950D01*
X31370Y36830D02*
Y38235D01*
X31200Y36000D02*
X32250Y34950D01*
X31200Y36000D02*
Y38179D01*
X31040Y35660D02*
X32250Y34450D01*
X31040Y35660D02*
Y38113D01*
X30880Y35320D02*
X32250Y33950D01*
X30880Y35320D02*
Y38046D01*
X30720Y34980D02*
X32250Y33450D01*
X30720Y34980D02*
Y37980D01*
X23748Y39242D02*
X24305Y39800D01*
X30484D01*
X31850Y38434D01*
X25521Y39242D02*
X25919Y39640D01*
X30418D01*
X31690Y38368D01*
X24748Y38242D02*
X25985Y39480D01*
X30351D01*
X31530Y38301D01*
X25748Y38748D02*
X26320Y39320D01*
X30285D01*
X31370Y38235D01*
X26100Y38626D02*
X26634Y39160D01*
X30219D01*
X31200Y38179D01*
X26260Y38560D02*
X26700Y39000D01*
X30153D01*
X31040Y38113D01*
X26420Y38467D02*
X26793Y38840D01*
X30086D01*
X30880Y38046D01*
X26580Y38401D02*
X26859Y38680D01*
X30020D01*
X30720Y37980D01*
D14*
X26455Y27127D02*
Y28936D01*
X25473Y26145D02*
X26455Y27127D01*
X13378Y26145D02*
X25473D01*
X12989Y25205D02*
X25874D01*
X13117Y25515D02*
X25734D01*
X13740Y34250D02*
X13748Y34242D01*
X11950Y34250D02*
X13740D01*
X12792Y32742D02*
X13248D01*
X25734Y25515D02*
X27664Y27445D01*
X25874Y25205D02*
X27804Y27135D01*
X30465Y28415D02*
X31500Y29450D01*
X33250D01*
X30155Y29105D02*
X31500Y30450D01*
X33250D01*
X13142Y29742D02*
X13248D01*
X12637Y29237D02*
X13142Y29742D01*
X12637Y26886D02*
Y29237D01*
X11695Y31645D02*
X12792Y32742D01*
X11695Y26499D02*
Y31645D01*
Y26499D02*
X12989Y25205D01*
X12007Y26625D02*
X13117Y25515D01*
X12637Y26886D02*
X13378Y26145D01*
X30465Y27857D02*
Y28415D01*
X27804Y27135D02*
X29743D01*
X30155Y27986D02*
Y29105D01*
X27664Y27445D02*
X29614D01*
X29743Y27135D02*
X30465Y27857D01*
X29614Y27445D02*
X30155Y27986D01*
X27469Y29950D02*
X29200D01*
X26455Y28936D02*
X27469Y29950D01*
X13248Y27742D02*
X13640Y27350D01*
X17289Y30250D02*
X17300D01*
X13640Y27350D02*
X14389D01*
X17289Y30250D01*
X12007Y26625D02*
Y30957D01*
X12792Y31742D01*
X13248D01*
D15*
X28075Y35450D02*
X29200D01*
X28025Y37950D02*
X29200D01*
X28075Y28450D02*
X28500D01*
X29200D01*
X23300Y39200D02*
Y39900D01*
X29200Y35450D02*
X30100D01*
X27425Y27975D02*
Y28450D01*
X27400Y27950D02*
X27425Y27975D01*
X26950Y37950D02*
X27375D01*
X26950Y37950D02*
X26950Y37950D01*
D16*
X11950Y34250D02*
D03*
D17*
Y35250D02*
D03*
D18*
X24248Y31742D02*
D03*
X25248D02*
D03*
X24248Y30742D02*
D03*
X25248D02*
D03*
X24248Y29742D02*
D03*
X25248D02*
D03*
X24248Y28742D02*
D03*
X25248D02*
D03*
X24248Y27742D02*
D03*
X25248D02*
D03*
X24248Y26742D02*
D03*
X23248Y27742D02*
D03*
Y26742D02*
D03*
X22248Y27742D02*
D03*
Y26742D02*
D03*
X21248Y27742D02*
D03*
Y26742D02*
D03*
X20248Y27742D02*
D03*
Y26742D02*
D03*
X19248Y27742D02*
D03*
Y26742D02*
D03*
X18248Y27742D02*
D03*
Y26742D02*
D03*
X17248Y27742D02*
D03*
Y26742D02*
D03*
X16248Y27742D02*
D03*
Y26742D02*
D03*
X15248Y27742D02*
D03*
Y26742D02*
D03*
X14248Y27742D02*
D03*
Y26742D02*
D03*
X13248Y27742D02*
D03*
X14248Y28742D02*
D03*
X13248D02*
D03*
X14248Y29742D02*
D03*
X13248D02*
D03*
X14248Y30742D02*
D03*
X13248D02*
D03*
X14248Y31742D02*
D03*
X13248D02*
D03*
X14248Y32742D02*
D03*
X13248D02*
D03*
X14248Y33742D02*
D03*
X13248D02*
D03*
X14248Y34742D02*
D03*
X13248D02*
D03*
X14248Y35742D02*
D03*
X13248D02*
D03*
X14248Y36742D02*
D03*
X13248D02*
D03*
X14248Y37742D02*
D03*
X13248D02*
D03*
X14248Y38742D02*
D03*
X15248Y37742D02*
D03*
Y38742D02*
D03*
X16248Y37742D02*
D03*
Y38742D02*
D03*
X17248Y37742D02*
D03*
Y38742D02*
D03*
X18248Y37742D02*
D03*
Y38742D02*
D03*
X19248Y37742D02*
D03*
Y38742D02*
D03*
X20248Y37742D02*
D03*
Y38742D02*
D03*
X21248Y37742D02*
D03*
Y38742D02*
D03*
X22248Y37742D02*
D03*
Y38742D02*
D03*
X23248Y37742D02*
D03*
Y38742D02*
D03*
X24248Y37742D02*
D03*
Y38742D02*
D03*
X25248Y37742D02*
D03*
X24248Y36742D02*
D03*
X25248D02*
D03*
X24248Y35742D02*
D03*
X25248D02*
D03*
X24248Y34742D02*
D03*
X25248D02*
D03*
X24248Y33742D02*
D03*
X25248D02*
D03*
X24248Y32742D02*
D03*
X25248D02*
D03*
X24748Y32242D02*
D03*
X25748D02*
D03*
X24748Y31242D02*
D03*
X25748D02*
D03*
X24748Y30242D02*
D03*
X25748D02*
D03*
X24748Y29242D02*
D03*
X25748D02*
D03*
X24748Y28242D02*
D03*
X25748D02*
D03*
X24748Y27242D02*
D03*
X23748Y28242D02*
D03*
Y27242D02*
D03*
X22748Y28242D02*
D03*
Y27242D02*
D03*
X21748Y28242D02*
D03*
Y27242D02*
D03*
X20748Y28242D02*
D03*
Y27242D02*
D03*
X19748Y28242D02*
D03*
Y27242D02*
D03*
X18748Y28242D02*
D03*
Y27242D02*
D03*
X17748Y28242D02*
D03*
Y27242D02*
D03*
X16748Y28242D02*
D03*
Y27242D02*
D03*
X15748Y28242D02*
D03*
Y27242D02*
D03*
X14748Y28242D02*
D03*
Y27242D02*
D03*
X13748Y28242D02*
D03*
X14748Y29242D02*
D03*
X13748D02*
D03*
X14748Y30242D02*
D03*
X13748D02*
D03*
X14748Y31242D02*
D03*
X13748D02*
D03*
X14748Y32242D02*
D03*
X13748D02*
D03*
X14748Y33242D02*
D03*
X13748D02*
D03*
X14748Y34242D02*
D03*
X13748D02*
D03*
X14748Y35242D02*
D03*
X13748D02*
D03*
X14748Y36242D02*
D03*
X13748D02*
D03*
X14748Y37242D02*
D03*
X13748D02*
D03*
X14748Y38242D02*
D03*
X13748D02*
D03*
X14748Y39242D02*
D03*
X15748Y38242D02*
D03*
Y39242D02*
D03*
X16748Y38242D02*
D03*
Y39242D02*
D03*
X17748Y38242D02*
D03*
Y39242D02*
D03*
X18748Y38242D02*
D03*
Y39242D02*
D03*
X19748Y38242D02*
D03*
Y39242D02*
D03*
X20748Y38242D02*
D03*
Y39242D02*
D03*
X21748Y38242D02*
D03*
Y39242D02*
D03*
X22748Y38242D02*
D03*
Y39242D02*
D03*
X23748Y38242D02*
D03*
Y39242D02*
D03*
X24748Y38242D02*
D03*
Y39242D02*
D03*
X25748Y38242D02*
D03*
X24748Y37242D02*
D03*
X25748D02*
D03*
X24748Y36242D02*
D03*
X25748D02*
D03*
X24748Y35242D02*
D03*
X25748D02*
D03*
X24748Y34242D02*
D03*
X25748D02*
D03*
X24748Y33242D02*
D03*
X25748D02*
D03*
D19*
X31500Y31950D02*
D03*
X30800D02*
D03*
X28500Y28450D02*
D03*
X28000Y37950D02*
D03*
X32200Y32750D02*
D03*
X35750Y35450D02*
D03*
Y37950D02*
D03*
Y28450D02*
D03*
X32350Y31450D02*
D03*
X17250Y30750D02*
D03*
X18250Y30100D02*
D03*
X19250Y30600D02*
D03*
X20250Y29650D02*
D03*
X17300Y30250D02*
D03*
X23300Y39900D02*
D03*
X30100Y35450D02*
D03*
X31200Y33750D02*
D03*
X27400Y27950D02*
D03*
X26950Y37950D02*
D03*
X27150Y34650D02*
D03*
X32900Y39100D02*
D03*
X32350Y35500D02*
D03*
X30200Y30100D02*
D03*
M02*
