G04 Layer_Color=8150272*
%FSLAX24Y24*%
%MOIN*%
G70*
G01*
G75*
%ADD24O,0.1025X0.0316*%
%ADD25R,0.1025X0.0316*%
%ADD26R,0.0612X0.0651*%
%ADD27C,0.0530*%
%ADD28C,0.0670*%
%ADD29R,0.0670X0.0670*%
%ADD30R,0.0480X0.0280*%
%ADD31R,0.0651X0.0612*%
G36*
X18490Y31810D02*
X18010D01*
Y32790D01*
X18490D01*
Y31810D01*
D02*
G37*
G36*
X17490D02*
X17010D01*
Y32790D01*
X17490D01*
Y31810D01*
D02*
G37*
G36*
X20490D02*
X20010D01*
Y32790D01*
X20490D01*
Y31810D01*
D02*
G37*
G36*
X19490D02*
X19010D01*
Y32790D01*
X19490D01*
Y31810D01*
D02*
G37*
D24*
X29200Y28950D02*
D03*
Y29450D02*
D03*
Y29950D02*
D03*
Y30450D02*
D03*
Y30950D02*
D03*
Y31450D02*
D03*
Y31950D02*
D03*
Y32450D02*
D03*
Y32950D02*
D03*
Y33450D02*
D03*
Y33950D02*
D03*
Y34450D02*
D03*
Y34950D02*
D03*
Y35450D02*
D03*
Y35950D02*
D03*
Y36450D02*
D03*
Y36950D02*
D03*
Y37450D02*
D03*
X29250Y37950D02*
D03*
X29200Y28450D02*
D03*
X33250D02*
D03*
Y28950D02*
D03*
Y29450D02*
D03*
Y29950D02*
D03*
Y30450D02*
D03*
Y30950D02*
D03*
Y31450D02*
D03*
Y31950D02*
D03*
Y32450D02*
D03*
Y32950D02*
D03*
Y33450D02*
D03*
Y33950D02*
D03*
Y34450D02*
D03*
Y34950D02*
D03*
Y35450D02*
D03*
Y35950D02*
D03*
Y36450D02*
D03*
Y36950D02*
D03*
Y37450D02*
D03*
D25*
Y37950D02*
D03*
D26*
X35225D02*
D03*
X34575D02*
D03*
X35225Y35450D02*
D03*
X34575D02*
D03*
X35225Y28450D02*
D03*
X34575D02*
D03*
D27*
X25748Y33242D02*
D03*
X24748D02*
D03*
X25748Y34242D02*
D03*
X24748D02*
D03*
X25748Y35242D02*
D03*
X24748D02*
D03*
X25748Y36242D02*
D03*
X24748D02*
D03*
X25748Y37242D02*
D03*
X24748D02*
D03*
X25748Y38242D02*
D03*
X24748Y39242D02*
D03*
Y38242D02*
D03*
X23748Y39242D02*
D03*
Y38242D02*
D03*
X22748Y39242D02*
D03*
Y38242D02*
D03*
X21748Y39242D02*
D03*
Y38242D02*
D03*
X20748Y39242D02*
D03*
Y38242D02*
D03*
X19748Y39242D02*
D03*
Y38242D02*
D03*
X18748Y39242D02*
D03*
Y38242D02*
D03*
X17748Y39242D02*
D03*
Y38242D02*
D03*
X16748Y39242D02*
D03*
Y38242D02*
D03*
X15748Y39242D02*
D03*
Y38242D02*
D03*
X14748Y39242D02*
D03*
X13748Y38242D02*
D03*
X14748D02*
D03*
X13748Y37242D02*
D03*
X14748D02*
D03*
X13748Y36242D02*
D03*
X14748D02*
D03*
X13748Y35242D02*
D03*
X14748D02*
D03*
X13748Y34242D02*
D03*
X14748D02*
D03*
X13748Y33242D02*
D03*
X14748D02*
D03*
X13748Y32242D02*
D03*
X14748D02*
D03*
X13748Y31242D02*
D03*
X14748D02*
D03*
X13748Y30242D02*
D03*
X14748D02*
D03*
X13748Y29242D02*
D03*
X14748D02*
D03*
X13748Y28242D02*
D03*
X14748Y27242D02*
D03*
Y28242D02*
D03*
X15748Y27242D02*
D03*
Y28242D02*
D03*
X16748Y27242D02*
D03*
Y28242D02*
D03*
X17748Y27242D02*
D03*
Y28242D02*
D03*
X18748Y27242D02*
D03*
Y28242D02*
D03*
X19748Y27242D02*
D03*
Y28242D02*
D03*
X20748Y27242D02*
D03*
Y28242D02*
D03*
X21748Y27242D02*
D03*
Y28242D02*
D03*
X22748Y27242D02*
D03*
Y28242D02*
D03*
X23748Y27242D02*
D03*
Y28242D02*
D03*
X24748Y27242D02*
D03*
X25748Y28242D02*
D03*
X24748D02*
D03*
X25748Y29242D02*
D03*
X24748D02*
D03*
X25748Y30242D02*
D03*
X24748D02*
D03*
X25748Y31242D02*
D03*
X24748D02*
D03*
X25748Y32242D02*
D03*
X24748D02*
D03*
X25248Y32742D02*
D03*
X24248D02*
D03*
X25248Y33742D02*
D03*
X24248D02*
D03*
X25248Y34742D02*
D03*
X24248D02*
D03*
X25248Y35742D02*
D03*
X24248D02*
D03*
X25248Y36742D02*
D03*
X24248D02*
D03*
X25248Y37742D02*
D03*
X24248Y38742D02*
D03*
Y37742D02*
D03*
X23248Y38742D02*
D03*
Y37742D02*
D03*
X22248Y38742D02*
D03*
Y37742D02*
D03*
X21248Y38742D02*
D03*
Y37742D02*
D03*
X20248Y38742D02*
D03*
Y37742D02*
D03*
X19248Y38742D02*
D03*
Y37742D02*
D03*
X18248Y38742D02*
D03*
Y37742D02*
D03*
X17248Y38742D02*
D03*
Y37742D02*
D03*
X16248Y38742D02*
D03*
Y37742D02*
D03*
X15248Y38742D02*
D03*
Y37742D02*
D03*
X14248Y38742D02*
D03*
X13248Y37742D02*
D03*
X14248D02*
D03*
X13248Y36742D02*
D03*
X14248D02*
D03*
X13248Y35742D02*
D03*
X14248D02*
D03*
X13248Y34742D02*
D03*
X14248D02*
D03*
X13248Y33742D02*
D03*
X14248D02*
D03*
X13248Y32742D02*
D03*
X14248D02*
D03*
X13248Y31742D02*
D03*
X14248D02*
D03*
X13248Y30742D02*
D03*
X14248D02*
D03*
X13248Y29742D02*
D03*
X14248D02*
D03*
X13248Y28742D02*
D03*
X14248D02*
D03*
X13248Y27742D02*
D03*
X14248Y26742D02*
D03*
Y27742D02*
D03*
X15248Y26742D02*
D03*
Y27742D02*
D03*
X16248Y26742D02*
D03*
Y27742D02*
D03*
X17248Y26742D02*
D03*
Y27742D02*
D03*
X18248Y26742D02*
D03*
Y27742D02*
D03*
X19248Y26742D02*
D03*
Y27742D02*
D03*
X20248Y26742D02*
D03*
Y27742D02*
D03*
X21248Y26742D02*
D03*
Y27742D02*
D03*
X22248Y26742D02*
D03*
Y27742D02*
D03*
X23248Y26742D02*
D03*
Y27742D02*
D03*
X24248Y26742D02*
D03*
X25248Y27742D02*
D03*
X24248D02*
D03*
X25248Y28742D02*
D03*
X24248D02*
D03*
X25248Y29742D02*
D03*
X24248D02*
D03*
X25248Y30742D02*
D03*
X24248D02*
D03*
X25248Y31742D02*
D03*
X24248D02*
D03*
D28*
X11950Y35250D02*
D03*
D29*
Y34250D02*
D03*
D30*
X17250Y31950D02*
D03*
Y32300D02*
D03*
Y32650D02*
D03*
X18250Y31950D02*
D03*
Y32300D02*
D03*
Y32650D02*
D03*
X19250D02*
D03*
Y32300D02*
D03*
Y31950D02*
D03*
X20250Y32650D02*
D03*
Y32300D02*
D03*
Y31950D02*
D03*
D31*
X15800Y32125D02*
D03*
Y32775D02*
D03*
M02*
