G04 Layer_Color=7318015*
%FSLAX24Y24*%
%MOIN*%
G70*
G01*
G75*
%ADD10O,0.0945X0.0236*%
%ADD11R,0.0945X0.0236*%
%ADD12R,0.0532X0.0571*%
D10*
X33250Y28950D02*
D03*
Y29450D02*
D03*
Y29950D02*
D03*
Y30450D02*
D03*
Y30950D02*
D03*
Y31450D02*
D03*
Y31950D02*
D03*
Y32450D02*
D03*
Y32950D02*
D03*
Y33450D02*
D03*
Y33950D02*
D03*
Y34450D02*
D03*
Y34950D02*
D03*
Y35450D02*
D03*
Y35950D02*
D03*
Y36450D02*
D03*
Y36950D02*
D03*
Y37450D02*
D03*
X33200Y37950D02*
D03*
X33250Y28450D02*
D03*
X29200D02*
D03*
Y28950D02*
D03*
Y29450D02*
D03*
Y29950D02*
D03*
Y30450D02*
D03*
Y30950D02*
D03*
Y31450D02*
D03*
Y31950D02*
D03*
Y32450D02*
D03*
Y32950D02*
D03*
Y33450D02*
D03*
Y33950D02*
D03*
Y34450D02*
D03*
Y34950D02*
D03*
Y35450D02*
D03*
Y35950D02*
D03*
Y36450D02*
D03*
Y36950D02*
D03*
Y37450D02*
D03*
D11*
Y37950D02*
D03*
D12*
X27375Y35450D02*
D03*
X28025D02*
D03*
X27375Y37950D02*
D03*
X28025D02*
D03*
X27425Y28450D02*
D03*
X28075D02*
D03*
M02*
