G04 Layer_Color=20142*
%FSLAX24Y24*%
%MOIN*%
G70*
G01*
G75*
%ADD24R,0.0612X0.0651*%
%ADD25R,0.1025X0.0316*%
%ADD26O,0.1025X0.0316*%
%ADD27R,0.0670X0.0670*%
%ADD28C,0.0670*%
%ADD29C,0.0530*%
D24*
X28075Y28450D02*
D03*
X27425D02*
D03*
X28025Y37950D02*
D03*
X27375D02*
D03*
X28025Y35450D02*
D03*
X27375D02*
D03*
D25*
X29200Y37950D02*
D03*
D26*
Y37450D02*
D03*
Y36950D02*
D03*
Y36450D02*
D03*
Y35950D02*
D03*
Y35450D02*
D03*
Y34950D02*
D03*
Y34450D02*
D03*
Y33950D02*
D03*
Y33450D02*
D03*
Y32950D02*
D03*
Y32450D02*
D03*
Y31950D02*
D03*
Y31450D02*
D03*
Y30950D02*
D03*
Y30450D02*
D03*
Y29950D02*
D03*
Y29450D02*
D03*
Y28950D02*
D03*
Y28450D02*
D03*
X33250D02*
D03*
X33200Y37950D02*
D03*
X33250Y37450D02*
D03*
Y36950D02*
D03*
Y36450D02*
D03*
Y35950D02*
D03*
Y35450D02*
D03*
Y34950D02*
D03*
Y34450D02*
D03*
Y33950D02*
D03*
Y33450D02*
D03*
Y32950D02*
D03*
Y32450D02*
D03*
Y31950D02*
D03*
Y31450D02*
D03*
Y30950D02*
D03*
Y30450D02*
D03*
Y29950D02*
D03*
Y29450D02*
D03*
Y28950D02*
D03*
D27*
X11950Y34250D02*
D03*
D28*
Y35250D02*
D03*
D29*
X24248Y31742D02*
D03*
X25248D02*
D03*
X24248Y30742D02*
D03*
X25248D02*
D03*
X24248Y29742D02*
D03*
X25248D02*
D03*
X24248Y28742D02*
D03*
X25248D02*
D03*
X24248Y27742D02*
D03*
X25248D02*
D03*
X24248Y26742D02*
D03*
X23248Y27742D02*
D03*
Y26742D02*
D03*
X22248Y27742D02*
D03*
Y26742D02*
D03*
X21248Y27742D02*
D03*
Y26742D02*
D03*
X20248Y27742D02*
D03*
Y26742D02*
D03*
X19248Y27742D02*
D03*
Y26742D02*
D03*
X18248Y27742D02*
D03*
Y26742D02*
D03*
X17248Y27742D02*
D03*
Y26742D02*
D03*
X16248Y27742D02*
D03*
Y26742D02*
D03*
X15248Y27742D02*
D03*
Y26742D02*
D03*
X14248Y27742D02*
D03*
Y26742D02*
D03*
X13248Y27742D02*
D03*
X14248Y28742D02*
D03*
X13248D02*
D03*
X14248Y29742D02*
D03*
X13248D02*
D03*
X14248Y30742D02*
D03*
X13248D02*
D03*
X14248Y31742D02*
D03*
X13248D02*
D03*
X14248Y32742D02*
D03*
X13248D02*
D03*
X14248Y33742D02*
D03*
X13248D02*
D03*
X14248Y34742D02*
D03*
X13248D02*
D03*
X14248Y35742D02*
D03*
X13248D02*
D03*
X14248Y36742D02*
D03*
X13248D02*
D03*
X14248Y37742D02*
D03*
X13248D02*
D03*
X14248Y38742D02*
D03*
X15248Y37742D02*
D03*
Y38742D02*
D03*
X16248Y37742D02*
D03*
Y38742D02*
D03*
X17248Y37742D02*
D03*
Y38742D02*
D03*
X18248Y37742D02*
D03*
Y38742D02*
D03*
X19248Y37742D02*
D03*
Y38742D02*
D03*
X20248Y37742D02*
D03*
Y38742D02*
D03*
X21248Y37742D02*
D03*
Y38742D02*
D03*
X22248Y37742D02*
D03*
Y38742D02*
D03*
X23248Y37742D02*
D03*
Y38742D02*
D03*
X24248Y37742D02*
D03*
Y38742D02*
D03*
X25248Y37742D02*
D03*
X24248Y36742D02*
D03*
X25248D02*
D03*
X24248Y35742D02*
D03*
X25248D02*
D03*
X24248Y34742D02*
D03*
X25248D02*
D03*
X24248Y33742D02*
D03*
X25248D02*
D03*
X24248Y32742D02*
D03*
X25248D02*
D03*
X24748Y32242D02*
D03*
X25748D02*
D03*
X24748Y31242D02*
D03*
X25748D02*
D03*
X24748Y30242D02*
D03*
X25748D02*
D03*
X24748Y29242D02*
D03*
X25748D02*
D03*
X24748Y28242D02*
D03*
X25748D02*
D03*
X24748Y27242D02*
D03*
X23748Y28242D02*
D03*
Y27242D02*
D03*
X22748Y28242D02*
D03*
Y27242D02*
D03*
X21748Y28242D02*
D03*
Y27242D02*
D03*
X20748Y28242D02*
D03*
Y27242D02*
D03*
X19748Y28242D02*
D03*
Y27242D02*
D03*
X18748Y28242D02*
D03*
Y27242D02*
D03*
X17748Y28242D02*
D03*
Y27242D02*
D03*
X16748Y28242D02*
D03*
Y27242D02*
D03*
X15748Y28242D02*
D03*
Y27242D02*
D03*
X14748Y28242D02*
D03*
Y27242D02*
D03*
X13748Y28242D02*
D03*
X14748Y29242D02*
D03*
X13748D02*
D03*
X14748Y30242D02*
D03*
X13748D02*
D03*
X14748Y31242D02*
D03*
X13748D02*
D03*
X14748Y32242D02*
D03*
X13748D02*
D03*
X14748Y33242D02*
D03*
X13748D02*
D03*
X14748Y34242D02*
D03*
X13748D02*
D03*
X14748Y35242D02*
D03*
X13748D02*
D03*
X14748Y36242D02*
D03*
X13748D02*
D03*
X14748Y37242D02*
D03*
X13748D02*
D03*
X14748Y38242D02*
D03*
X13748D02*
D03*
X14748Y39242D02*
D03*
X15748Y38242D02*
D03*
Y39242D02*
D03*
X16748Y38242D02*
D03*
Y39242D02*
D03*
X17748Y38242D02*
D03*
Y39242D02*
D03*
X18748Y38242D02*
D03*
Y39242D02*
D03*
X19748Y38242D02*
D03*
Y39242D02*
D03*
X20748Y38242D02*
D03*
Y39242D02*
D03*
X21748Y38242D02*
D03*
Y39242D02*
D03*
X22748Y38242D02*
D03*
Y39242D02*
D03*
X23748Y38242D02*
D03*
Y39242D02*
D03*
X24748Y38242D02*
D03*
Y39242D02*
D03*
X25748Y38242D02*
D03*
X24748Y37242D02*
D03*
X25748D02*
D03*
X24748Y36242D02*
D03*
X25748D02*
D03*
X24748Y35242D02*
D03*
X25748D02*
D03*
X24748Y34242D02*
D03*
X25748D02*
D03*
X24748Y33242D02*
D03*
X25748D02*
D03*
M02*
